STARTFONT 2.1
COMMENT
COMMENT Converted from OpenType font "RobotoMono-Medium.ttf" by "otf2bdf 3.0".
COMMENT
FONT -FreeType-Roboto Mono Medium-Medium-R-Normal--100-720-100-100-P-478-ISO10646-1
SIZE 72 100 100
FONTBOUNDINGBOX 145 131 -49 -27
STARTPROPERTIES 19
FOUNDRY "FreeType"
FAMILY_NAME "Roboto Mono Medium"
WEIGHT_NAME "Medium"
SLANT "R"
SETWIDTH_NAME "Normal"
ADD_STYLE_NAME ""
PIXEL_SIZE 100
POINT_SIZE 720
RESOLUTION_X 100
RESOLUTION_Y 100
SPACING "P"
AVERAGE_WIDTH 478
CHARSET_REGISTRY "ISO10646"
CHARSET_ENCODING "1"
FONT_ASCENT 104
FONT_DESCENT 27
COPYRIGHT "Copyright 2015 Google Inc. All Rights Reserved."
_OTF_FONTFILE "RobotoMono-Medium.ttf"
_OTF_PSNAME "RobotoMono-Medium"
ENDPROPERTIES
CHARS 878
STARTCHAR 0000
ENCODING 0
SWIDTH 0 0
DWIDTH 0 0
BBX 0 0 0 0
BITMAP
ENDCHAR
STARTCHAR 0002
ENCODING 2
SWIDTH 600 0
DWIDTH 60 0
BBX 0 0 0 0
BITMAP
ENDCHAR
STARTCHAR 0009
ENCODING 9
SWIDTH 600 0
DWIDTH 60 0
BBX 0 0 0 0
BITMAP
ENDCHAR
STARTCHAR 000D
ENCODING 13
SWIDTH 600 0
DWIDTH 60 0
BBX 0 0 0 0
BITMAP
ENDCHAR
STARTCHAR 0020
ENCODING 32
SWIDTH 600 0
DWIDTH 60 0
BBX 0 0 0 0
BITMAP
ENDCHAR
STARTCHAR 0021
ENCODING 33
SWIDTH 600 0
DWIDTH 60 0
BBX 13 72 23 -1
BITMAP
7FF0
7FF0
7FF0
7FF0
7FF0
7FF0
7FF0
7FF0
7FF0
7FF0
7FF0
7FF0
7FF0
7FF0
7FF0
7FF0
7FF0
7FF0
7FF0
7FF0
7FF0
7FF0
7FF0
7FF0
7FF0
7FF0
7FF0
7FF0
7FF0
7FF0
7FF0
7FF0
7FF0
7FF0
7FF0
7FF0
7FF0
7FF0
7FF0
7FF0
7FF0
7FF0
7FF0
7FF0
7FF0
7FF0
7FF0
0000
0000
0000
0000
0000
0000
0000
0000
0000
0000
0000
0000
1F80
3FE0
7FF0
FFF8
FFF8
FFF8
FFF8
FFF8
FFF8
FFF8
7FF0
3FE0
1FC0
ENDCHAR
STARTCHAR 0022
ENCODING 34
SWIDTH 600 0
DWIDTH 60 0
BBX 28 25 15 50
BITMAP
FF801FF0
FF801FF0
FF801FF0
FF801FF0
FF801FF0
FF801FF0
FF801FF0
FF801FF0
FF801FF0
FF801FF0
FF801FF0
FF801FF0
FF801FF0
FF801FF0
FF801FF0
FF801FF0
FF001FF0
FF001FF0
FF001FE0
FF001FE0
FF001FE0
FF001FE0
FF001FE0
FF001FE0
FF001FE0
ENDCHAR
STARTCHAR 0023
ENCODING 35
SWIDTH 600 0
DWIDTH 60 0
BBX 55 71 2 0
BITMAP
000007F800FF80
000007F800FF00
000007F800FF00
000007F800FF00
000007F800FF00
00000FF001FF00
00000FF001FE00
00000FF001FE00
00000FF001FE00
00000FF001FE00
00001FE001FE00
00001FE003FE00
00001FE003FC00
00001FE003FC00
00001FE003FC00
00003FE003FC00
00003FC007FC00
00003FC007F800
00003FC007F800
00003FC007F800
0FFFFFFFFFFFFE
0FFFFFFFFFFFFE
0FFFFFFFFFFFFE
0FFFFFFFFFFFFE
0FFFFFFFFFFFFE
0FFFFFFFFFFFFE
0FFFFFFFFFFFFE
0FFFFFFFFFFFFE
0000FF001FE000
0000FF001FE000
0000FF001FE000
0001FF001FE000
0001FE003FE000
0001FE003FC000
0001FE003FC000
0001FE003FC000
0003FE003FC000
0003FC007FC000
0003FC007F8000
0003FC007F8000
0003FC007F8000
0003FC007F8000
0007F8007F8000
FFFFFFFFFFFFE0
FFFFFFFFFFFFE0
FFFFFFFFFFFFE0
FFFFFFFFFFFFE0
FFFFFFFFFFFFE0
FFFFFFFFFFFFE0
FFFFFFFFFFFFE0
FFFFFFFFFFFFE0
000FF001FE0000
000FF001FE0000
001FE003FE0000
001FE003FC0000
001FE003FC0000
001FE003FC0000
001FE003FC0000
003FE003FC0000
003FC007FC0000
003FC007F80000
003FC007F80000
003FC007F80000
007FC007F80000
007F800FF80000
007F800FF00000
007F800FF00000
007F800FF00000
007F800FF00000
00FF000FF00000
00FF001FE00000
ENDCHAR
STARTCHAR 0024
ENCODING 36
SWIDTH 600 0
DWIDTH 60 0
BBX 48 93 7 -10
BITMAP
000007F80000
000007F80000
000007F80000
000007F80000
000007F80000
000007F80000
000007F80000
000007F80000
000007F80000
000007F80000
000007F80000
00007FFF8000
0003FFFFF000
000FFFFFF800
003FFFFFFE00
007FFFFFFF00
00FFFFFFFF80
01FFFFFFFFC0
03FFFFFFFFE0
03FFFFFFFFF0
07FFF80FFFF0
0FFFE003FFF8
0FFF8000FFF8
0FFF00007FFC
1FFF00007FFC
1FFE00003FFC
1FFE00003FFE
1FFE00001FFE
1FFC00001FFE
1FFC00001FFE
1FFC00001FFE
1FFC00001FFE
1FFE00000FFE
1FFE00000000
1FFE00000000
1FFF00000000
0FFF80000000
0FFFC0000000
0FFFE0000000
07FFF8000000
07FFFE000000
03FFFF800000
01FFFFF00000
00FFFFFE0000
007FFFFF8000
003FFFFFE000
001FFFFFF800
0007FFFFFE00
0001FFFFFF00
00007FFFFF80
00001FFFFFC0
000003FFFFE0
0000007FFFF0
0000001FFFF8
00000007FFF8
00000001FFFC
00000000FFFC
000000007FFE
000000003FFE
000000001FFE
000000001FFE
FFF000000FFE
FFF000000FFF
FFF000000FFF
FFF000000FFF
FFF000000FFF
FFF000000FFE
7FF800001FFE
7FF800001FFE
7FFC00003FFE
3FFE00003FFE
3FFF00007FFC
3FFF8001FFFC
1FFFF00FFFF8
0FFFFFFFFFF8
0FFFFFFFFFF0
07FFFFFFFFE0
03FFFFFFFFC0
01FFFFFFFF80
00FFFFFFFF00
003FFFFFFC00
000FFFFFF000
0001FFFFC000
00000FF00000
00000FF00000
00000FF00000
00000FF00000
00000FF00000
00000FF00000
00000FF00000
00000FF00000
00000FF00000
00000FF00000
ENDCHAR
STARTCHAR 0025
ENCODING 37
SWIDTH 600 0
DWIDTH 60 0
BBX 56 73 2 -1
BITMAP
007FC000000000
01FFF000000000
07FFFC00000000
0FFFFE00000000
1FFFFF00000000
3FFFFF80000000
3FFFFF80000000
7FE0FFC0000000
7FC07FC0000000
FF803FE0010000
FF803FE001C000
FF001FE003F000
FF001FE007F800
FF001FE007F800
FF001FE00FF000
FF001FE00FF000
FF001FE01FE000
FF001FE01FE000
FF001FE03FC000
FF001FE03FC000
FF803FE07F8000
FF803FE07F8000
7FC07FC0FF0000
7FE0FFC1FE0000
3FFFFF81FE0000
3FFFFF83FC0000
1FFFFF03FC0000
0FFFFE07F80000
07FFFC07F80000
01FFF00FF00000
007FC00FF00000
0000001FE00000
0000001FC00000
0000003FC00000
0000007F800000
0000007F800000
000000FF000000
000000FF000000
000001FE000000
000001FE000000
000003FC000000
000003FC000000
000007F803FC00
000007F00FFF80
00000FF03FFFE0
00001FE07FFFF0
00001FE0FFFFF8
00003FC1FFFFFC
00003FC3FFFFFC
00007F83FF07FE
00007F83FE03FE
0000FF07FC01FE
0000FF07F801FF
0001FE07F800FF
0001FC07F800FF
0003FC07F800FF
0007F807F800FF
0007F807F800FF
000FF007F800FF
000FF007F800FF
0003E007F800FF
0000E007F800FF
00002007F801FF
00000007FC01FE
00000003FE03FE
00000003FF07FE
00000003FFFFFC
00000001FFFFFC
00000000FFFFF8
000000007FFFF0
000000003FFFE0
000000000FFF80
0000000003FE00
ENDCHAR
STARTCHAR 0026
ENCODING 38
SWIDTH 600 0
DWIDTH 60 0
BBX 55 73 4 -1
BITMAP
00000FF8000000
00007FFF000000
0001FFFFC00000
0007FFFFE00000
000FFFFFF80000
001FFFFFF80000
003FFFFFFC0000
007FFFFFFE0000
007FFFFFFE0000
00FFFF3FFF0000
00FFF80FFF0000
00FFF007FF8000
01FFE003FF8000
01FFE003FF8000
01FFC001FF8000
01FFC001FF8000
01FFC001FF8000
01FFC001FF8000
01FFC001FF8000
01FFC003FF8000
01FFC003FF0000
01FFC007FF0000
01FFE00FFE0000
00FFE01FFE0000
00FFF03FFC0000
00FFF07FF80000
007FF9FFF00000
007FFBFFE00000
003FFFFFC00000
003FFFFF800000
001FFFFF000000
000FFFFE000000
000FFFF8000000
0007FFF0000000
0007FFE0000000
001FFFE0000000
003FFFF0000000
007FFFF8000000
00FFFFFC001FFC
03FFFFFC001FFC
03FFFFFE001FF8
07FFFFFF001FF8
0FFF8FFF801FF8
1FFF0FFFC01FF8
1FFE07FFC01FF8
3FFE03FFE03FF8
3FFC01FFF03FF8
7FF801FFF83FF8
7FF800FFF87FF0
7FF8007FFC7FF0
7FF0003FFE7FF0
FFF0003FFFFFE0
FFF0001FFFFFE0
FFF0000FFFFFC0
FFF00007FFFFC0
FFF00007FFFFC0
FFF00003FFFF80
7FF80001FFFF00
7FF80000FFFF00
7FFC0000FFFE00
7FFC0000FFFE00
3FFE0003FFFE00
3FFF800FFFFF00
1FFFF9FFFFFF80
1FFFFFFFFFFFC0
0FFFFFFFFFFFC0
07FFFFFFFFFFE0
03FFFFFFFFFFF0
01FFFFFFF9FFF8
00FFFFFFE0FFF8
003FFFFF807FFC
0007FFFE007FFE
0000FFE0000000
ENDCHAR
STARTCHAR 0027
ENCODING 39
SWIDTH 600 0
DWIDTH 60 0
BBX 9 25 23 50
BITMAP
FF80
FF80
FF80
FF80
FF80
FF80
FF80
FF80
FF80
FF80
FF80
FF80
FF80
FF80
FF80
FF80
FF80
FF80
FF80
FF80
FF80
FF00
FF00
FF00
FF00
ENDCHAR
STARTCHAR 0028
ENCODING 40
SWIDTH 600 0
DWIDTH 60 0
BBX 27 103 17 -23
BITMAP
00000080
00000380
00000780
00001F80
00003FC0
00007FC0
0000FFC0
0001FFE0
0003FF80
0003FF00
0007FE00
000FFC00
001FF800
001FF800
003FF000
007FE000
007FE000
00FFC000
00FFC000
01FF8000
01FF8000
03FF0000
03FF0000
07FE0000
07FE0000
0FFE0000
0FFC0000
0FFC0000
1FFC0000
1FF80000
1FF80000
1FF80000
3FF80000
3FF00000
3FF00000
3FF00000
7FF00000
7FF00000
7FF00000
7FE00000
7FE00000
7FE00000
FFE00000
FFE00000
FFE00000
FFE00000
FFE00000
FFE00000
FFE00000
FFE00000
FFE00000
FFE00000
FFE00000
FFE00000
FFE00000
FFE00000
FFE00000
FFE00000
FFE00000
FFE00000
FFE00000
7FE00000
7FE00000
7FE00000
7FF00000
7FF00000
7FF00000
3FF00000
3FF00000
3FF00000
3FF80000
1FF80000
1FF80000
1FF80000
1FFC0000
0FFC0000
0FFC0000
0FFE0000
07FE0000
07FE0000
03FF0000
03FF0000
01FF8000
01FF8000
00FFC000
00FFC000
007FE000
007FE000
003FF000
001FF800
001FF800
000FFC00
0007FE00
0003FF00
0003FF80
0001FFC0
0000FFE0
00007FC0
00003FC0
00000F80
00000780
00000380
00000080
ENDCHAR
STARTCHAR 0029
ENCODING 41
SWIDTH 600 0
DWIDTH 60 0
BBX 27 103 15 -23
BITMAP
20000000
38000000
3C000000
3F000000
7F800000
7FC00000
FFE00000
7FF00000
3FF80000
1FFC0000
0FFC0000
07FE0000
03FF0000
03FF8000
01FF8000
00FFC000
00FFC000
007FE000
007FF000
003FF000
003FF800
001FF800
001FF800
000FFC00
000FFC00
000FFE00
0007FE00
0007FE00
0007FF00
0003FF00
0003FF00
0003FF80
0003FF80
0001FF80
0001FFC0
0001FFC0
0001FFC0
0001FFC0
0001FFC0
0000FFE0
0000FFE0
0000FFE0
0000FFE0
0000FFE0
0000FFE0
0000FFE0
0000FFE0
0000FFE0
0000FFE0
0000FFE0
0000FFE0
0000FFE0
0000FFE0
0000FFE0
0000FFE0
0000FFE0
0000FFE0
0000FFE0
0000FFE0
0000FFE0
0000FFE0
0000FFE0
0000FFE0
0000FFE0
0000FFC0
0001FFC0
0001FFC0
0001FFC0
0001FFC0
0001FF80
0003FF80
0003FF80
0003FF00
0003FF00
0007FF00
0007FF00
0007FE00
000FFE00
000FFC00
000FFC00
001FFC00
001FF800
003FF800
003FF000
003FF000
007FE000
00FFC000
00FFC000
01FF8000
01FF8000
03FF0000
07FE0000
0FFC0000
1FFC0000
3FF80000
7FF00000
FFE00000
7FC00000
7F800000
3F000000
3C000000
38000000
20000000
ENDCHAR
STARTCHAR 002A
ENCODING 42
SWIDTH 600 0
DWIDTH 60 0
BBX 48 50 8 9
BITMAP
00001FF80000
00001FF80000
00001FF80000
00001FF80000
00001FF80000
00001FF80000
00001FF00000
00000FF00000
00000FF00000
00000FF00000
00000FF00000
00000FF00000
00000FF00000
30000FF00000
3C000FF00018
3F000FF0007C
7FC00FF003FC
7FF80FF00FFC
7FFE0FF03FFE
FFFF8FE1FFFE
FFFFF7E7FFFE
FFFFFFFFFFFF
FFFFFFFFFFFF
1FFFFFFFFFFE
01FFFFFFFFE0
001FFFFFFE00
0001FFFFE000
00003FFC0000
00007FFC0000
0000FFFE0000
0000FFFE0000
0001FFFF0000
0003FEFF8000
0007FC7FC000
000FFC7FE000
000FF83FE000
001FF83FF000
003FF01FF800
007FE01FFC00
00FFE00FFE00
01FFC007FE00
01FFC007FF00
03FF8003FF80
07FF8003FFC0
01FF0001FF80
00FE0001FE00
003E0000FC00
001C00007800
000C00006000
000000004000
ENDCHAR
STARTCHAR 002B
ENCODING 43
SWIDTH 600 0
DWIDTH 60 0
BBX 49 52 5 7
BITMAP
00001FFC000000
00001FFC000000
00001FFC000000
00001FFC000000
00001FFC000000
00001FFC000000
00001FFC000000
00001FFC000000
00001FFC000000
00001FFC000000
00001FFC000000
00001FFC000000
00001FFC000000
00001FFC000000
00001FFC000000
00001FFC000000
00001FFC000000
00001FFC000000
00001FFC000000
00001FFC000000
FFFFFFFFFFFF80
FFFFFFFFFFFF80
FFFFFFFFFFFF80
FFFFFFFFFFFF80
FFFFFFFFFFFF80
FFFFFFFFFFFF80
FFFFFFFFFFFF80
FFFFFFFFFFFF80
FFFFFFFFFFFF80
FFFFFFFFFFFF80
FFFFFFFFFFFF80
00001FFC000000
00001FFC000000
00001FFC000000
00001FFC000000
00001FFC000000
00001FFC000000
00001FFC000000
00001FFC000000
00001FFC000000
00001FFC000000
00001FFC000000
00001FFC000000
00001FFC000000
00001FFC000000
00001FFC000000
00001FFC000000
00001FFC000000
00001FFC000000
00001FFC000000
00001FFC000000
00001FFC000000
ENDCHAR
STARTCHAR 002C
ENCODING 44
SWIDTH 600 0
DWIDTH 60 0
BBX 16 30 17 -19
BITMAP
07FF
07FF
07FF
07FF
07FF
07FF
07FF
07FF
07FF
07FF
07FF
07FF
07FF
0FFF
0FFF
0FFF
0FFE
0FFE
0FFE
1FFC
1FFC
1FF8
3FF8
3FF0
7FE0
7FE0
FFC0
3F80
0F00
0200
ENDCHAR
STARTCHAR 002D
ENCODING 45
SWIDTH 600 0
DWIDTH 60 0
BBX 39 9 12 27
BITMAP
FFFFFFFFFE
FFFFFFFFFE
FFFFFFFFFE
FFFFFFFFFE
FFFFFFFFFE
FFFFFFFFFE
FFFFFFFFFE
FFFFFFFFFE
FFFFFFFFFE
ENDCHAR
STARTCHAR 002E
ENCODING 46
SWIDTH 600 0
DWIDTH 60 0
BBX 17 16 22 -1
BITMAP
07F000
1FFC00
3FFE00
7FFF00
7FFF00
7FFF80
FFFF80
FFFF80
FFFF80
FFFF80
FFFF80
7FFF80
7FFF00
3FFE00
1FFC00
07F000
ENDCHAR
STARTCHAR 002F
ENCODING 47
SWIDTH 600 0
DWIDTH 60 0
BBX 39 77 11 -6
BITMAP
0000000FFE
0000000FFE
0000000FFC
0000001FFC
0000001FFC
0000003FF8
0000003FF8
0000003FF0
0000007FF0
0000007FF0
0000007FE0
000000FFE0
000000FFE0
000000FFC0
000001FFC0
000001FFC0
000003FF80
000003FF80
000003FF00
000007FF00
000007FF00
000007FE00
00000FFE00
00000FFE00
00000FFC00
00001FFC00
00001FFC00
00001FF800
00003FF800
00003FF000
00007FF000
00007FF000
00007FE000
0000FFE000
0000FFE000
0000FFC000
0001FFC000
0001FFC000
0001FF8000
0003FF8000
0003FF0000
0007FF0000
0007FF0000
0007FE0000
000FFE0000
000FFE0000
000FFC0000
001FFC0000
001FFC0000
001FF80000
003FF80000
003FF00000
007FF00000
007FF00000
007FE00000
00FFE00000
00FFE00000
00FFC00000
01FFC00000
01FFC00000
01FF800000
03FF800000
03FF000000
07FF000000
07FF000000
07FE000000
0FFE000000
0FFE000000
0FFC000000
1FFC000000
1FFC000000
1FF8000000
3FF8000000
3FF0000000
7FF0000000
7FF0000000
FFE0000000
ENDCHAR
STARTCHAR 0030
ENCODING 48
SWIDTH 600 0
DWIDTH 60 0
BBX 46 73 7 -1
BITMAP
00003FF00000
0003FFFF0000
000FFFFFC000
003FFFFFF000
007FFFFFF800
00FFFFFFFC00
01FFFFFFFE00
03FFFFFFFF00
07FFFFFFFF80
0FFFFCFFFFC0
0FFFC00FFFC0
1FFF0003FFE0
1FFE0001FFE0
3FFC0000FFF0
3FFC0000FFF0
3FF800007FF0
7FF800007FF8
7FF800007FF8
7FF000003FF8
7FF000003FF8
FFF000003FFC
FFF000003FFC
FFF000003FFC
FFF000003FFC
FFF000003FFC
FFF00000FFFC
FFF00001FFFC
FFF00003FFFC
FFF0000FFFFC
FFF0001FFFFC
FFF0003FFFFC
FFF000FFFFFC
FFF001FFFFFC
FFF007FFFFFC
FFF00FFFBFFC
FFF01FFE3FFC
FFF07FFC3FFC
FFF0FFF03FFC
FFF1FFE03FFC
FFF7FFC03FFC
FFFFFF003FFC
FFFFFE003FFC
FFFFFC003FFC
FFFFF0003FFC
FFFFE0003FFC
FFFFC0003FFC
FFFF00003FFC
FFFE00003FFC
FFFC00003FFC
FFF000003FFC
FFF000003FFC
FFF000003FFC
FFF000003FFC
7FF000003FF8
7FF000003FF8
7FF800007FF8
7FF800007FF8
3FF800007FF0
3FFC0000FFF0
3FFE0000FFF0
1FFE0001FFE0
1FFF0003FFE0
0FFFC00FFFC0
0FFFFCFFFFC0
07FFFFFFFF80
03FFFFFFFF00
01FFFFFFFF00
00FFFFFFFE00
007FFFFFF800
003FFFFFF000
000FFFFFC000
0003FFFF0000
00003FF00000
ENDCHAR
STARTCHAR 0031
ENCODING 49
SWIDTH 600 0
DWIDTH 60 0
BBX 30 71 9 0
BITMAP
0000001C
000000FC
000003FC
00001FFC
0000FFFC
0003FFFC
001FFFFC
00FFFFFC
03FFFFFC
1FFFFFFC
FFFFFFFC
FFFFFFFC
FFFFFFFC
FFFFFFFC
FFFFBFFC
FFFE3FFC
FFF03FFC
FF803FFC
FC003FFC
F0003FFC
80003FFC
00003FFC
00003FFC
00003FFC
00003FFC
00003FFC
00003FFC
00003FFC
00003FFC
00003FFC
00003FFC
00003FFC
00003FFC
00003FFC
00003FFC
00003FFC
00003FFC
00003FFC
00003FFC
00003FFC
00003FFC
00003FFC
00003FFC
00003FFC
00003FFC
00003FFC
00003FFC
00003FFC
00003FFC
00003FFC
00003FFC
00003FFC
00003FFC
00003FFC
00003FFC
00003FFC
00003FFC
00003FFC
00003FFC
00003FFC
00003FFC
00003FFC
00003FFC
00003FFC
00003FFC
00003FFC
00003FFC
00003FFC
00003FFC
00003FFC
00003FFC
ENDCHAR
STARTCHAR 0032
ENCODING 50
SWIDTH 600 0
DWIDTH 60 0
BBX 49 72 4 0
BITMAP
00003FF8000000
0001FFFF800000
000FFFFFF00000
003FFFFFF80000
007FFFFFFE0000
01FFFFFFFF0000
03FFFFFFFF8000
07FFFFFFFFC000
0FFFFFFFFFE000
0FFFFE7FFFE000
1FFFC007FFF000
3FFF0003FFF000
3FFE0000FFF800
7FFC0000FFF800
7FF800007FF800
7FF800007FFC00
FFF000003FFC00
FFF000003FFC00
FFF000003FFC00
FFF000003FFC00
FFF000003FFC00
FFE000003FFC00
000000003FFC00
000000003FFC00
000000003FFC00
000000003FF800
000000007FF800
000000007FF800
00000000FFF000
00000000FFF000
00000001FFE000
00000003FFE000
00000007FFC000
00000007FFC000
0000000FFF8000
0000001FFF0000
0000003FFE0000
0000007FFE0000
000000FFFC0000
000001FFF80000
000001FFF00000
000003FFE00000
000007FFC00000
00000FFF800000
00001FFF800000
00003FFF000000
00007FFE000000
0000FFFC000000
0001FFF8000000
0003FFF0000000
0007FFE0000000
000FFFC0000000
000FFF80000000
001FFF00000000
003FFE00000000
007FFC00000000
00FFF800000000
01FFF000000000
03FFE000000000
07FFE000000000
0FFFC000000000
1FFF8000000000
3FFF0000000000
3FFFFFFFFFFF80
7FFFFFFFFFFF80
7FFFFFFFFFFF80
7FFFFFFFFFFF80
7FFFFFFFFFFF80
7FFFFFFFFFFF80
7FFFFFFFFFFF80
7FFFFFFFFFFF80
7FFFFFFFFFFF80
ENDCHAR
STARTCHAR 0033
ENCODING 51
SWIDTH 600 0
DWIDTH 60 0
BBX 47 73 5 -1
BITMAP
00003FF80000
0003FFFF8000
001FFFFFE000
007FFFFFF800
00FFFFFFFC00
01FFFFFFFF00
03FFFFFFFF80
07FFFFFFFFC0
0FFFFFFFFFC0
1FFFFCFFFFE0
1FFFC007FFE0
3FFF0003FFF0
3FFE0001FFF0
7FFC0000FFF8
7FF800007FF8
7FF800007FF8
FFF000003FF8
FFF000003FF8
FFF000003FFC
000000003FFC
000000003FFC
000000003FFC
000000003FF8
000000007FF8
000000007FF8
000000007FF8
00000000FFF0
00000001FFF0
00000003FFE0
00000007FFC0
0000003FFFC0
0001FFFFFF80
0001FFFFFF00
0001FFFFFE00
0001FFFFF800
0001FFFFE000
0001FFFFF800
0001FFFFFE00
0001FFFFFF80
0001FFFFFFC0
000001FFFFE0
0000000FFFE0
00000003FFF0
00000000FFF8
000000007FF8
000000007FFC
000000003FFC
000000003FFC
000000001FFC
000000001FFC
000000001FFE
000000001FFE
000000001FFE
FFE000001FFE
FFE000001FFC
FFF000001FFC
FFF000003FFC
FFF000003FFC
FFF800007FFC
7FF800007FF8
7FFC0000FFF8
7FFF0001FFF8
3FFF8007FFF0
1FFFFCFFFFE0
1FFFFFFFFFE0
0FFFFFFFFFC0
07FFFFFFFF80
03FFFFFFFF00
01FFFFFFFE00
007FFFFFF800
001FFFFFE000
0007FFFF8000
00007FF80000
ENDCHAR
STARTCHAR 0034
ENCODING 52
SWIDTH 600 0
DWIDTH 60 0
BBX 52 71 3 0
BITMAP
00000001FFE000
00000003FFE000
00000007FFE000
00000007FFE000
0000000FFFE000
0000001FFFE000
0000001FFFE000
0000003FFFE000
0000003FFFE000
0000007FFFE000
000000FFFFE000
000000FFFFE000
000001FFFFE000
000003FFFFE000
000003FFFFE000
000007FFFFE000
00000FFFFFE000
00000FFDFFE000
00001FFDFFE000
00003FF9FFE000
00003FF1FFE000
00007FF1FFE000
00007FE1FFE000
0000FFE1FFE000
0001FFC1FFE000
0001FF81FFE000
0003FF81FFE000
0007FF01FFE000
0007FE01FFE000
000FFE01FFE000
001FFC01FFE000
001FF801FFE000
003FF801FFE000
003FF001FFE000
007FE001FFE000
00FFE001FFE000
00FFC001FFE000
01FF8001FFE000
03FF8001FFE000
03FF0001FFE000
07FF0001FFE000
0FFE0001FFE000
0FFC0001FFE000
1FFC0001FFE000
3FF80001FFE000
3FF00001FFE000
7FFFFFFFFFFFF0
7FFFFFFFFFFFF0
FFFFFFFFFFFFF0
FFFFFFFFFFFFF0
FFFFFFFFFFFFF0
FFFFFFFFFFFFF0
FFFFFFFFFFFFF0
FFFFFFFFFFFFF0
FFFFFFFFFFFFF0
00000001FFE000
00000001FFE000
00000001FFE000
00000001FFE000
00000001FFE000
00000001FFE000
00000001FFE000
00000001FFE000
00000001FFE000
00000001FFE000
00000001FFE000
00000001FFE000
00000001FFE000
00000001FFE000
00000001FFE000
00000001FFE000
ENDCHAR
STARTCHAR 0035
ENCODING 53
SWIDTH 600 0
DWIDTH 60 0
BBX 47 72 7 -1
BITMAP
03FFFFFFFFF0
03FFFFFFFFF0
03FFFFFFFFF0
03FFFFFFFFF0
03FFFFFFFFF0
03FFFFFFFFF0
03FFFFFFFFF0
03FFFFFFFFF0
07FFFFFFFFF0
07FFFFFFFFF0
07FF00000000
07FF00000000
07FF00000000
07FF00000000
07FF00000000
07FE00000000
07FE00000000
0FFE00000000
0FFE00000000
0FFE00000000
0FFE00000000
0FFE00000000
0FFE00000000
0FFE00000000
0FFE0FFC0000
0FFC7FFFC000
1FFDFFFFF000
1FFFFFFFFC00
1FFFFFFFFE00
1FFFFFFFFF00
1FFFFFFFFF80
1FFFFFFFFFC0
1FFFFFFFFFE0
1FFFF9FFFFE0
1FFF000FFFF0
1FFE0003FFF0
01F80001FFF8
00100000FFF8
000000007FF8
000000007FFC
000000003FFC
000000003FFC
000000003FFC
000000001FFC
000000001FFE
000000001FFE
000000001FFE
000000001FFE
000000001FFE
000000001FFE
000000001FFE
000000001FFE
FFF000001FFC
FFF000003FFC
7FF000003FFC
7FF000003FFC
7FF800007FFC
7FF800007FF8
3FFC0000FFF8
3FFE0001FFF8
1FFF0003FFF0
1FFFC007FFF0
0FFFFC7FFFE0
07FFFFFFFFC0
07FFFFFFFFC0
03FFFFFFFF80
01FFFFFFFF00
007FFFFFFC00
003FFFFFF800
000FFFFFE000
0003FFFF8000
00003FF80000
ENDCHAR
STARTCHAR 0036
ENCODING 54
SWIDTH 600 0
DWIDTH 60 0
BBX 47 72 6 -1
BITMAP
0000000FF000
000001FFF000
00000FFFF000
00003FFFF000
0000FFFFF000
0001FFFFF000
0007FFFFF000
000FFFFFF000
001FFFFFF000
003FFFFFC000
007FFFE00000
00FFFF000000
01FFFC000000
01FFF8000000
03FFE0000000
07FFC0000000
07FF80000000
0FFF80000000
0FFF00000000
0FFE00000000
1FFE00000000
1FFC00000000
3FFC00000000
3FF800000000
3FF803FE0000
3FF81FFFC000
7FF87FFFF000
7FF0FFFFFC00
7FF3FFFFFE00
7FF7FFFFFF00
7FFFFFFFFF80
FFFFFFFFFFC0
FFFFFFFFFFE0
FFFFFE7FFFE0
FFFFE00FFFF0
FFFF8003FFF0
FFFF0001FFF8
FFFE0000FFF8
FFFC00007FF8
FFF800007FFC
FFF000003FFC
FFF000003FFC
FFF000003FFC
FFF000001FFC
FFF000001FFE
FFF000001FFE
FFF000001FFE
FFF000001FFE
FFF000001FFE
FFF000001FFE
FFF000001FFE
7FF000001FFE
7FF800001FFC
7FF800001FFC
7FF800003FFC
3FFC00003FFC
3FFC00007FF8
3FFE00007FF8
1FFE0000FFF8
1FFF0001FFF0
0FFF8003FFF0
07FFE007FFE0
07FFFE7FFFE0
03FFFFFFFFC0
01FFFFFFFF80
00FFFFFFFF00
007FFFFFFE00
003FFFFFFC00
001FFFFFF800
0007FFFFE000
0001FFFF8000
00001FF80000
ENDCHAR
STARTCHAR 0037
ENCODING 55
SWIDTH 600 0
DWIDTH 60 0
BBX 50 71 4 0
BITMAP
FFFFFFFFFFFFC0
FFFFFFFFFFFFC0
FFFFFFFFFFFFC0
FFFFFFFFFFFFC0
FFFFFFFFFFFFC0
FFFFFFFFFFFFC0
FFFFFFFFFFFF80
FFFFFFFFFFFF80
FFFFFFFFFFFF80
0000000007FF00
0000000007FF00
000000000FFE00
000000000FFE00
000000001FFC00
000000001FFC00
000000003FF800
000000003FF800
000000007FF800
000000007FF000
000000007FF000
00000000FFE000
00000000FFE000
00000001FFC000
00000001FFC000
00000003FFC000
00000003FF8000
00000007FF8000
00000007FF0000
0000000FFF0000
0000000FFE0000
0000001FFE0000
0000001FFC0000
0000001FFC0000
0000003FFC0000
0000003FF80000
0000007FF80000
0000007FF00000
000000FFF00000
000000FFE00000
000001FFE00000
000001FFC00000
000003FFC00000
000003FFC00000
000007FF800000
000007FF800000
000007FF000000
00000FFF000000
00000FFE000000
00001FFE000000
00001FFE000000
00003FFC000000
00003FFC000000
00007FF8000000
00007FF8000000
0000FFF0000000
0000FFF0000000
0001FFE0000000
0001FFE0000000
0001FFE0000000
0003FFC0000000
0003FFC0000000
0007FF80000000
0007FF80000000
000FFF00000000
000FFF00000000
001FFE00000000
001FFE00000000
003FFE00000000
003FFC00000000
007FFC00000000
007FF800000000
ENDCHAR
STARTCHAR 0038
ENCODING 56
SWIDTH 600 0
DWIDTH 60 0
BBX 46 73 7 -1
BITMAP
00003FF80000
0003FFFF0000
000FFFFFE000
003FFFFFF800
00FFFFFFFC00
01FFFFFFFE00
03FFFFFFFF00
07FFFFFFFF80
07FFFFFFFFC0
0FFFFCFFFFC0
0FFFC00FFFE0
1FFF8007FFE0
1FFF0001FFF0
3FFE0001FFF0
3FFC0000FFF0
3FFC0000FFF8
3FFC00007FF8
3FF800007FF8
3FF800007FF8
3FF800007FF8
3FF800007FF8
3FF800007FF8
3FF800007FF8
3FFC00007FF0
3FFC0000FFF0
1FFC0000FFF0
1FFE0001FFF0
1FFF0001FFE0
0FFF8003FFC0
07FFC00FFFC0
07FFFCFFFF80
03FFFFFFFF00
01FFFFFFFE00
007FFFFFFC00
003FFFFFF000
001FFFFFE000
007FFFFFF800
00FFFFFFFE00
03FFFFFFFF00
07FFFFFFFF80
0FFFF01FFFC0
0FFF8007FFE0
1FFF0001FFE0
3FFE0000FFF0
3FFC00007FF8
7FF800007FF8
7FF800003FF8
7FF000003FFC
FFF000003FFC
FFF000001FFC
FFF000001FFC
FFF000001FFC
FFF000001FFC
FFF000001FFC
FFF000001FFC
FFF000003FFC
FFF000003FFC
FFF800003FFC
7FF800007FFC
7FFC0000FFF8
7FFE0000FFF8
3FFF0003FFF8
3FFFC007FFF0
1FFFFCFFFFE0
0FFFFFFFFFE0
0FFFFFFFFFC0
07FFFFFFFF80
03FFFFFFFF00
00FFFFFFFE00
007FFFFFF800
001FFFFFE000
0003FFFF8000
00003FF80000
ENDCHAR
STARTCHAR 0039
ENCODING 57
SWIDTH 600 0
DWIDTH 60 0
BBX 46 72 6 0
BITMAP
00003FF00000
0003FFFE0000
000FFFFF8000
003FFFFFE000
007FFFFFF000
00FFFFFFFC00
01FFFFFFFE00
03FFFFFFFF00
07FFFFFFFF00
0FFFFCFFFF80
0FFFC01FFFC0
1FFF8007FFC0
3FFF0003FFE0
3FFE0001FFE0
3FFC0001FFF0
7FF80000FFF0
7FF800007FF0
7FF800007FF8
7FF000007FF8
FFF000003FF8
FFF000003FF8
FFF000003FFC
FFF000003FFC
FFF000003FFC
FFF000003FFC
FFF000001FFC
FFF000001FFC
FFF000001FFC
FFF000001FFC
FFF000001FFC
FFF000001FFC
7FF800003FFC
7FF800003FFC
7FFC00007FFC
7FFC0000FFFC
3FFE0001FFFC
3FFF0003FFFC
1FFF8007FFFC
1FFFF03FFFFC
0FFFFFFFFFFC
0FFFFFFFFFFC
07FFFFFFFFFC
03FFFFFFFFFC
01FFFFFFFFF8
00FFFFFF3FF8
003FFFFE3FF8
000FFFF83FF8
0003FFE03FF8
000000007FF0
000000007FF0
000000007FF0
00000000FFE0
00000000FFE0
00000001FFE0
00000001FFC0
00000003FFC0
00000007FF80
0000000FFF80
0000001FFF00
0000007FFE00
000001FFFE00
00000FFFFC00
0007FFFFF800
003FFFFFF000
003FFFFFE000
003FFFFFC000
003FFFFF0000
003FFFFE0000
003FFFF80000
003FFFC00000
003FFE000000
003FC0000000
ENDCHAR
STARTCHAR 003A
ENCODING 58
SWIDTH 600 0
DWIDTH 60 0
BBX 17 58 24 -1
BITMAP
07F000
1FFC00
3FFE00
7FFF00
7FFF00
7FFF80
FFFF80
FFFF80
FFFF80
FFFF80
FFFF80
7FFF80
7FFF00
3FFE00
1FFC00
07F000
000000
000000
000000
000000
000000
000000
000000
000000
000000
000000
000000
000000
000000
000000
000000
000000
000000
000000
000000
000000
000000
000000
000000
000000
000000
000000
07F000
1FFC00
3FFE00
7FFF00
7FFF00
7FFF80
FFFF80
FFFF80
FFFF80
FFFF80
FFFF80
7FFF80
7FFF00
3FFE00
1FFC00
07F000
ENDCHAR
STARTCHAR 003B
ENCODING 59
SWIDTH 600 0
DWIDTH 60 0
BBX 19 76 22 -19
BITMAP
01FC00
07FF00
0FFF80
1FFFC0
1FFFC0
1FFFE0
3FFFE0
3FFFE0
3FFFE0
3FFFE0
3FFFE0
1FFFE0
1FFFC0
0FFF80
07FF00
01FC00
000000
000000
000000
000000
000000
000000
000000
000000
000000
000000
000000
000000
000000
000000
000000
000000
000000
000000
000000
000000
000000
000000
000000
000000
000000
000000
000000
000000
000000
000000
07FF00
07FF00
07FF00
07FF00
07FF00
07FF00
07FF00
07FF00
07FF00
07FF00
07FF00
07FF00
07FF00
0FFF00
0FFF00
0FFF00
0FFE00
0FFE00
0FFE00
1FFC00
1FFC00
1FF800
3FF800
3FF000
7FE000
7FE000
FFC000
3F8000
0F0000
020000
ENDCHAR
STARTCHAR 003C
ENCODING 60
SWIDTH 600 0
DWIDTH 60 0
BBX 42 46 8 8
BITMAP
000000000040
0000000001C0
0000000007C0
000000001FC0
00000000FFC0
00000003FFC0
0000000FFFC0
0000007FFFC0
000001FFFFC0
000007FFFFC0
00003FFFFFC0
0000FFFFFFC0
0003FFFFFF80
001FFFFFFC00
007FFFFFE000
01FFFFFF0000
0FFFFFFC0000
3FFFFFE00000
FFFFFF000000
FFFFF8000000
FFFFE0000000
FFFF00000000
FFF800000000
FFF800000000
FFFE00000000
FFFFC0000000
FFFFF8000000
FFFFFF000000
3FFFFFE00000
0FFFFFF80000
01FFFFFF0000
007FFFFFE000
001FFFFFFC00
0003FFFFFF80
0000FFFFFFC0
00003FFFFFC0
000007FFFFC0
000001FFFFC0
0000007FFFC0
0000000FFFC0
00000003FFC0
00000000FFC0
000000003FC0
0000000007C0
0000000001C0
000000000040
ENDCHAR
STARTCHAR 003D
ENCODING 61
SWIDTH 600 0
DWIDTH 60 0
BBX 45 30 8 16
BITMAP
FFFFFFFFFFF8
FFFFFFFFFFF8
FFFFFFFFFFF8
FFFFFFFFFFF8
FFFFFFFFFFF8
FFFFFFFFFFF8
FFFFFFFFFFF8
FFFFFFFFFFF8
FFFFFFFFFFF8
000000000000
000000000000
000000000000
000000000000
000000000000
000000000000
000000000000
000000000000
000000000000
000000000000
000000000000
000000000000
FFFFFFFFFFF8
FFFFFFFFFFF8
FFFFFFFFFFF8
FFFFFFFFFFF8
FFFFFFFFFFF8
FFFFFFFFFFF8
FFFFFFFFFFF8
FFFFFFFFFFF8
FFFFFFFFFFF8
ENDCHAR
STARTCHAR 003E
ENCODING 62
SWIDTH 600 0
DWIDTH 60 0
BBX 44 46 8 8
BITMAP
800000000000
F00000000000
FC0000000000
FF0000000000
FFE000000000
FFF800000000
FFFF00000000
FFFFC0000000
FFFFF0000000
FFFFFE000000
FFFFFF800000
FFFFFFF00000
1FFFFFFC0000
07FFFFFF0000
00FFFFFFE000
001FFFFFF800
0003FFFFFF00
00007FFFFFC0
00000FFFFFF0
000001FFFFF0
0000003FFFF0
0000000FFFF0
00000001FFF0
00000001FFF0
0000000FFFF0
0000007FFFF0
000003FFFFF0
00001FFFFFF0
0000FFFFFFC0
0003FFFFFE00
001FFFFFF800
00FFFFFFE000
07FFFFFF0000
3FFFFFFC0000
FFFFFFE00000
FFFFFF800000
FFFFFE000000
FFFFF0000000
FFFFC0000000
FFFE00000000
FFF800000000
FFE000000000
FF0000000000
FC0000000000
E00000000000
800000000000
ENDCHAR
STARTCHAR 003F
ENCODING 63
SWIDTH 600 0
DWIDTH 60 0
BBX 45 73 8 -1
BITMAP
00007FF80000
0007FFFF8000
003FFFFFE000
007FFFFFF800
01FFFFFFFC00
03FFFFFFFF00
07FFFFFFFF00
0FFFFFFFFF80
1FFFFFFFFFC0
1FFFF8FFFFE0
3FFF800FFFE0
3FFE0003FFE0
7FFC0001FFF0
7FFC0000FFF0
7FF80000FFF0
7FF800007FF0
FFF000007FF8
FFF000007FF8
000000007FF8
000000007FF8
000000007FF8
000000007FF8
00000000FFF0
00000000FFF0
00000000FFF0
00000001FFF0
00000003FFE0
00000003FFE0
00000007FFC0
0000000FFFC0
0000001FFF80
0000003FFF00
0000007FFE00
000000FFFE00
000001FFFC00
000003FFF800
000007FFF000
00000FFFE000
00001FFFC000
00001FFF0000
00003FFE0000
00003FFC0000
00007FFC0000
00007FF80000
00007FF00000
00007FF00000
00007FF00000
00007FF00000
00007FF00000
00007FF00000
00007FF00000
00007FF00000
000000000000
000000000000
000000000000
000000000000
000000000000
000000000000
000000000000
000000000000
00001F800000
00007FE00000
0000FFF00000
0000FFF00000
0001FFF80000
0001FFF80000
0001FFF80000
0001FFF80000
0001FFF80000
0000FFF00000
0000FFF00000
00007FE00000
00001F800000
ENDCHAR
STARTCHAR 0040
ENCODING 64
SWIDTH 600 0
DWIDTH 60 0
BBX 54 71 3 0
BITMAP
000000FFC00000
000007FFFC0000
00003FFFFF0000
00007FFFFFC000
0001FFFFFFE000
0003FFFFFFF800
000FFFFFFFFC00
001FFF803FFE00
003FFC0007FF00
003FF00001FF00
007FC00000FF80
00FF8000007FC0
01FF0000003FC0
01FE0000001FE0
03FC001FC00FE0
07F800FFF80FE0
07F801FFFC07F0
0FF007FFFE07F0
0FE00FFFFF03F0
1FE00FFFFF03F8
1FC01FFFFF03F8
1FC03FF07F03F8
3FC03FC07F01F8
3F807F807F01F8
3F80FF807F01FC
7F80FF007F01FC
7F00FE007E01FC
7F01FE007E01FC
7F01FE007E01FC
FF01FC00FE01FC
FF03FC00FE01FC
FE03FC00FE01FC
FE03FC00FE01FC
FE03F800FE01FC
FE03F800FE01FC
FE03F800FE01FC
FE03F800FE01F8
FE07F800FE01F8
FE07F800FC01F8
FE07F800FC01F8
FE07F800FC03F8
FE07F801FC03F0
FE07F801FC03F0
FE03F801FC03F0
FE03FC01FC07F0
FE03FC03FC07E0
FE03FC07FC0FE0
FF03FE0FFC0FC0
FF01FFFFFE3FC0
7F01FFFFFFFF80
7F00FFFFFFFF00
7F80FFFE7FFF00
7F807FFC3FFC00
3F803FF01FF800
3FC00FC007E000
3FC00000000000
1FE00000000000
1FF00000000000
0FF80000000000
0FFC0000000000
07FE0000000000
03FF0000040000
03FFC0001C0000
01FFFC01FE0000
00FFFFFFFE0000
007FFFFFFE0000
001FFFFFFE0000
000FFFFFFF0000
0003FFFFFC0000
00007FFFE00000
000007FF000000
ENDCHAR
STARTCHAR 0041
ENCODING 65
SWIDTH 600 0
DWIDTH 60 0
BBX 56 71 3 0
BITMAP
000003FF800000
000003FF800000
000003FFC00000
000007FFC00000
000007FFC00000
000007FFE00000
000007FFE00000
00000FFFE00000
00000FFFF00000
00000FFFF00000
00001FFFF00000
00001FFFF80000
00001FFFF80000
00003FFFF80000
00003FFFFC0000
00003FFFFC0000
00007FFFFC0000
00007FFFFE0000
00007FEFFE0000
0000FFE7FE0000
0000FFE7FE0000
0000FFC7FF0000
0001FFC7FF0000
0001FFC3FF0000
0001FF83FF8000
0003FF83FF8000
0003FF81FF8000
0003FF81FFC000
0007FF01FFC000
0007FF00FFC000
0007FF00FFE000
000FFE00FFE000
000FFE00FFE000
000FFE007FF000
001FFC007FF000
001FFC007FF000
001FFC003FF800
003FFC003FF800
003FF8003FF800
003FF8003FFC00
007FF8001FFC00
007FF0001FFC00
007FF0001FFC00
00FFF0000FFE00
00FFFFFFFFFE00
00FFFFFFFFFE00
01FFFFFFFFFF00
01FFFFFFFFFF00
01FFFFFFFFFF00
01FFFFFFFFFF80
03FFFFFFFFFF80
03FFFFFFFFFF80
03FFFFFFFFFFC0
07FFFFFFFFFFC0
07FF000001FFC0
07FF000001FFE0
0FFF000001FFE0
0FFF000000FFE0
0FFE000000FFF0
1FFE000000FFF0
1FFE0000007FF0
1FFC0000007FF8
3FFC0000007FF8
3FFC0000007FF8
3FFC0000003FFC
7FF80000003FFC
7FF80000003FFC
7FF80000001FFC
FFF00000001FFE
FFF00000001FFE
FFF00000001FFF
ENDCHAR
STARTCHAR 0042
ENCODING 66
SWIDTH 600 0
DWIDTH 60 0
BBX 49 71 7 0
BITMAP
FFFFFFF8000000
FFFFFFFFC00000
FFFFFFFFF80000
FFFFFFFFFE0000
FFFFFFFFFF0000
FFFFFFFFFF8000
FFFFFFFFFFE000
FFFFFFFFFFF000
FFFFFFFFFFF000
FFF0007FFFF800
FFF00003FFFC00
FFF00000FFFC00
FFF000007FFC00
FFF000003FFE00
FFF000001FFE00
FFF000001FFE00
FFF000001FFE00
FFF000000FFE00
FFF000000FFE00
FFF000000FFE00
FFF000000FFE00
FFF000001FFE00
FFF000001FFE00
FFF000001FFE00
FFF000003FFE00
FFF000003FFC00
FFF000007FFC00
FFF00001FFF800
FFF00007FFF000
FFF0007FFFE000
FFFFFFFFFFC000
FFFFFFFFFF8000
FFFFFFFFFF0000
FFFFFFFFFC0000
FFFFFFFFFC0000
FFFFFFFFFF8000
FFFFFFFFFFC000
FFFFFFFFFFF000
FFFFFFFFFFF800
FFF00007FFFC00
FFF00000FFFC00
FFF000007FFE00
FFF000001FFE00
FFF000001FFF00
FFF000000FFF00
FFF000000FFF80
FFF0000007FF80
FFF0000007FF80
FFF0000007FF80
FFF0000007FF80
FFF0000007FF80
FFF0000007FF80
FFF0000007FF80
FFF0000007FF80
FFF0000007FF80
FFF000000FFF80
FFF000000FFF00
FFF000001FFF00
FFF000003FFF00
FFF000007FFE00
FFF00001FFFE00
FFF0003FFFFC00
FFFFFFFFFFF800
FFFFFFFFFFF800
FFFFFFFFFFF000
FFFFFFFFFFC000
FFFFFFFFFF8000
FFFFFFFFFF0000
FFFFFFFFFC0000
FFFFFFFFE00000
FFFFFFFE000000
ENDCHAR
STARTCHAR 0043
ENCODING 67
SWIDTH 600 0
DWIDTH 60 0
BBX 51 73 4 -1
BITMAP
000007FF000000
00007FFFF00000
0001FFFFFC0000
0007FFFFFF0000
000FFFFFFFC000
001FFFFFFFE000
003FFFFFFFF000
007FFFFFFFF800
00FFFFFFFFFC00
01FFFFDFFFFE00
03FFF800FFFE00
03FFE0003FFF00
07FFC0001FFF00
0FFF80000FFF80
0FFF000007FF80
0FFF000007FFC0
1FFE000003FFC0
1FFE000003FFC0
3FFC000001FFC0
3FFC000001FFE0
3FFC000001FFE0
3FF8000001FFE0
7FF8000001FFE0
7FF80000000000
7FF80000000000
7FF80000000000
7FF80000000000
7FF00000000000
7FF00000000000
FFF00000000000
FFF00000000000
FFF00000000000
FFF00000000000
FFF00000000000
FFF00000000000
FFF00000000000
FFF00000000000
FFF00000000000
FFF00000000000
FFF00000000000
FFF00000000000
FFF00000000000
FFF00000000000
7FF00000000000
7FF00000000000
7FF00000000000
7FF80000000000
7FF80000000000
7FF80000000000
7FF80000000000
7FF8000001FFE0
3FF8000001FFE0
3FFC000001FFE0
3FFC000001FFE0
3FFC000001FFE0
1FFE000003FFC0
1FFE000003FFC0
1FFF000007FFC0
0FFF000007FF80
0FFF80000FFF80
07FFC0001FFF00
07FFE0003FFF00
03FFF800FFFE00
01FFFFCFFFFE00
00FFFFFFFFFC00
00FFFFFFFFF800
007FFFFFFFF000
003FFFFFFFE000
000FFFFFFFC000
0007FFFFFF0000
0001FFFFFC0000
00007FFFF00000
000007FF000000
ENDCHAR
STARTCHAR 0044
ENCODING 68
SWIDTH 600 0
DWIDTH 60 0
BBX 49 71 7 0
BITMAP
FFFFFE00000000
FFFFFFF0000000
FFFFFFFC000000
FFFFFFFF800000
FFFFFFFFC00000
FFFFFFFFF00000
FFFFFFFFF80000
FFFFFFFFFC0000
FFFFFFFFFE0000
FFF03FFFFF0000
FFF000FFFF8000
FFF0003FFFC000
FFF0000FFFE000
FFF00007FFE000
FFF00001FFF000
FFF00001FFF800
FFF00000FFF800
FFF000007FFC00
FFF000007FFC00
FFF000003FFC00
FFF000003FFE00
FFF000001FFE00
FFF000001FFE00
FFF000000FFF00
FFF000000FFF00
FFF000000FFF00
FFF000000FFF00
FFF000000FFF00
FFF000000FFF00
FFF0000007FF80
FFF0000007FF80
FFF0000007FF80
FFF0000007FF80
FFF0000007FF80
FFF0000007FF80
FFF0000007FF80
FFF0000007FF80
FFF0000007FF80
FFF0000007FF80
FFF0000007FF80
FFF0000007FF80
FFF0000007FF80
FFF000000FFF00
FFF000000FFF00
FFF000000FFF00
FFF000000FFF00
FFF000000FFF00
FFF000000FFF00
FFF000001FFE00
FFF000001FFE00
FFF000001FFE00
FFF000003FFC00
FFF000003FFC00
FFF000007FFC00
FFF00000FFF800
FFF00000FFF800
FFF00001FFF000
FFF00003FFF000
FFF0000FFFE000
FFF0001FFFC000
FFF000FFFF8000
FFF03FFFFF8000
FFFFFFFFFF0000
FFFFFFFFFE0000
FFFFFFFFF80000
FFFFFFFFF00000
FFFFFFFFE00000
FFFFFFFF800000
FFFFFFFE000000
FFFFFFF0000000
FFFFFF00000000
ENDCHAR
STARTCHAR 0045
ENCODING 69
SWIDTH 600 0
DWIDTH 60 0
BBX 46 71 8 0
BITMAP
FFFFFFFFFFFC
FFFFFFFFFFFC
FFFFFFFFFFFC
FFFFFFFFFFFC
FFFFFFFFFFFC
FFFFFFFFFFFC
FFFFFFFFFFFC
FFFFFFFFFFFC
FFFFFFFFFFFC
FFF000000000
FFF000000000
FFF000000000
FFF000000000
FFF000000000
FFF000000000
FFF000000000
FFF000000000
FFF000000000
FFF000000000
FFF000000000
FFF000000000
FFF000000000
FFF000000000
FFF000000000
FFF000000000
FFF000000000
FFF000000000
FFF000000000
FFF000000000
FFF000000000
FFFFFFFFFF80
FFFFFFFFFF80
FFFFFFFFFF80
FFFFFFFFFF80
FFFFFFFFFF80
FFFFFFFFFF80
FFFFFFFFFF80
FFFFFFFFFF80
FFFFFFFFFF80
FFF000000000
FFF000000000
FFF000000000
FFF000000000
FFF000000000
FFF000000000
FFF000000000
FFF000000000
FFF000000000
FFF000000000
FFF000000000
FFF000000000
FFF000000000
FFF000000000
FFF000000000
FFF000000000
FFF000000000
FFF000000000
FFF000000000
FFF000000000
FFF000000000
FFF000000000
FFF000000000
FFFFFFFFFFFC
FFFFFFFFFFFC
FFFFFFFFFFFC
FFFFFFFFFFFC
FFFFFFFFFFFC
FFFFFFFFFFFC
FFFFFFFFFFFC
FFFFFFFFFFFC
FFFFFFFFFFFC
ENDCHAR
STARTCHAR 0046
ENCODING 70
SWIDTH 600 0
DWIDTH 60 0
BBX 46 71 8 0
BITMAP
FFFFFFFFFFFC
FFFFFFFFFFFC
FFFFFFFFFFFC
FFFFFFFFFFFC
FFFFFFFFFFFC
FFFFFFFFFFFC
FFFFFFFFFFFC
FFFFFFFFFFFC
FFFFFFFFFFFC
FFF000000000
FFF000000000
FFF000000000
FFF000000000
FFF000000000
FFF000000000
FFF000000000
FFF000000000
FFF000000000
FFF000000000
FFF000000000
FFF000000000
FFF000000000
FFF000000000
FFF000000000
FFF000000000
FFF000000000
FFF000000000
FFF000000000
FFF000000000
FFF000000000
FFF000000000
FFFFFFFFFFC0
FFFFFFFFFFC0
FFFFFFFFFFC0
FFFFFFFFFFC0
FFFFFFFFFFC0
FFFFFFFFFFC0
FFFFFFFFFFC0
FFFFFFFFFFC0
FFFFFFFFFFC0
FFF000000000
FFF000000000
FFF000000000
FFF000000000
FFF000000000
FFF000000000
FFF000000000
FFF000000000
FFF000000000
FFF000000000
FFF000000000
FFF000000000
FFF000000000
FFF000000000
FFF000000000
FFF000000000
FFF000000000
FFF000000000
FFF000000000
FFF000000000
FFF000000000
FFF000000000
FFF000000000
FFF000000000
FFF000000000
FFF000000000
FFF000000000
FFF000000000
FFF000000000
FFF000000000
FFF000000000
ENDCHAR
STARTCHAR 0047
ENCODING 71
SWIDTH 600 0
DWIDTH 60 0
BBX 50 73 5 -1
BITMAP
00000FFE000000
00007FFFE00000
0003FFFFFC0000
0007FFFFFE0000
001FFFFFFF8000
003FFFFFFFC000
007FFFFFFFE000
00FFFFFFFFF000
01FFFFFFFFF800
03FFFF9FFFFC00
07FFF001FFFC00
07FFE0007FFE00
0FFFC0003FFE00
0FFF80001FFF00
1FFF00000FFF00
1FFE00000FFF80
3FFE000007FF80
3FFC000007FF80
3FFC000003FF80
7FF8000003FFC0
7FF8000003FFC0
7FF8000003FFC0
FFF00000000000
FFF00000000000
FFF00000000000
FFF00000000000
FFF00000000000
FFF00000000000
FFE00000000000
FFE00000000000
FFE00000000000
FFE00000000000
FFE00000000000
FFE00000000000
FFE00000000000
FFE00000000000
FFE0003FFFFFC0
FFE0003FFFFFC0
FFE0003FFFFFC0
FFE0003FFFFFC0
FFE0003FFFFFC0
FFE0003FFFFFC0
FFE0003FFFFFC0
FFE0003FFFFFC0
FFE0003FFFFFC0
FFF0000003FFC0
FFF0000003FFC0
FFF0000003FFC0
FFF0000003FFC0
FFF0000003FFC0
7FF0000003FFC0
7FF8000003FFC0
7FF8000003FFC0
7FF8000003FFC0
3FFC000003FFC0
3FFC000003FFC0
3FFE000003FFC0
1FFE000003FFC0
1FFF000003FFC0
0FFF800003FFC0
0FFFC00007FFC0
07FFE0000FFFC0
03FFF8003FFFC0
03FFFFCFFFFFC0
01FFFFFFFFFF80
00FFFFFFFFFF00
007FFFFFFFFE00
003FFFFFFFF800
001FFFFFFFF000
0007FFFFFFC000
0001FFFFFF0000
00007FFFF80000
000007FF000000
ENDCHAR
STARTCHAR 0048
ENCODING 72
SWIDTH 600 0
DWIDTH 60 0
BBX 47 71 6 0
BITMAP
FFF000000FFE
FFF000000FFE
FFF000000FFE
FFF000000FFE
FFF000000FFE
FFF000000FFE
FFF000000FFE
FFF000000FFE
FFF000000FFE
FFF000000FFE
FFF000000FFE
FFF000000FFE
FFF000000FFE
FFF000000FFE
FFF000000FFE
FFF000000FFE
FFF000000FFE
FFF000000FFE
FFF000000FFE
FFF000000FFE
FFF000000FFE
FFF000000FFE
FFF000000FFE
FFF000000FFE
FFF000000FFE
FFF000000FFE
FFF000000FFE
FFF000000FFE
FFF000000FFE
FFF000000FFE
FFFFFFFFFFFE
FFFFFFFFFFFE
FFFFFFFFFFFE
FFFFFFFFFFFE
FFFFFFFFFFFE
FFFFFFFFFFFE
FFFFFFFFFFFE
FFFFFFFFFFFE
FFFFFFFFFFFE
FFF000000FFE
FFF000000FFE
FFF000000FFE
FFF000000FFE
FFF000000FFE
FFF000000FFE
FFF000000FFE
FFF000000FFE
FFF000000FFE
FFF000000FFE
FFF000000FFE
FFF000000FFE
FFF000000FFE
FFF000000FFE
FFF000000FFE
FFF000000FFE
FFF000000FFE
FFF000000FFE
FFF000000FFE
FFF000000FFE
FFF000000FFE
FFF000000FFE
FFF000000FFE
FFF000000FFE
FFF000000FFE
FFF000000FFE
FFF000000FFE
FFF000000FFE
FFF000000FFE
FFF000000FFE
FFF000000FFE
FFF000000FFE
ENDCHAR
STARTCHAR 0049
ENCODING 73
SWIDTH 600 0
DWIDTH 60 0
BBX 42 71 9 0
BITMAP
FFFFFFFFFFC0
FFFFFFFFFFC0
FFFFFFFFFFC0
FFFFFFFFFFC0
FFFFFFFFFFC0
FFFFFFFFFFC0
FFFFFFFFFFC0
FFFFFFFFFFC0
FFFFFFFFFFC0
0001FFE00000
0001FFE00000
0001FFE00000
0001FFE00000
0001FFE00000
0001FFE00000
0001FFE00000
0001FFE00000
0001FFE00000
0001FFE00000
0001FFE00000
0001FFE00000
0001FFE00000
0001FFE00000
0001FFE00000
0001FFE00000
0001FFE00000
0001FFE00000
0001FFE00000
0001FFE00000
0001FFE00000
0001FFE00000
0001FFE00000
0001FFE00000
0001FFE00000
0001FFE00000
0001FFE00000
0001FFE00000
0001FFE00000
0001FFE00000
0001FFE00000
0001FFE00000
0001FFE00000
0001FFE00000
0001FFE00000
0001FFE00000
0001FFE00000
0001FFE00000
0001FFE00000
0001FFE00000
0001FFE00000
0001FFE00000
0001FFE00000
0001FFE00000
0001FFE00000
0001FFE00000
0001FFE00000
0001FFE00000
0001FFE00000
0001FFE00000
0001FFE00000
0001FFE00000
0001FFE00000
FFFFFFFFFFC0
FFFFFFFFFFC0
FFFFFFFFFFC0
FFFFFFFFFFC0
FFFFFFFFFFC0
FFFFFFFFFFC0
FFFFFFFFFFC0
FFFFFFFFFFC0
FFFFFFFFFFC0
ENDCHAR
STARTCHAR 004A
ENCODING 74
SWIDTH 600 0
DWIDTH 60 0
BBX 48 72 5 -1
BITMAP
000000000FFE
000000000FFE
000000000FFE
000000000FFE
000000000FFE
000000000FFE
000000000FFE
000000000FFE
000000000FFE
000000000FFE
000000000FFE
000000000FFE
000000000FFE
000000000FFF
000000000FFF
000000000FFF
000000000FFF
000000000FFF
000000000FFF
000000000FFF
000000000FFF
000000000FFF
000000000FFF
000000000FFF
000000000FFF
000000000FFF
000000000FFF
000000000FFF
000000000FFF
000000000FFF
000000000FFF
000000000FFF
000000000FFF
000000000FFF
000000000FFF
000000000FFF
000000000FFF
000000000FFF
000000000FFF
000000000FFF
000000000FFF
000000000FFF
000000000FFF
000000000FFF
000000000FFF
000000000FFF
000000000FFF
000000000FFF
000000000FFF
000000000FFF
FFF000000FFE
FFF000001FFE
FFF000001FFE
FFF000001FFE
FFF000001FFE
7FF800003FFE
7FF800003FFC
7FFC00007FFC
3FFC00007FFC
3FFE0000FFF8
3FFF0003FFF8
1FFFC007FFF0
0FFFFC7FFFE0
0FFFFFFFFFE0
07FFFFFFFFC0
03FFFFFFFF80
01FFFFFFFF00
00FFFFFFFC00
003FFFFFF800
000FFFFFE000
0003FFFF8000
00003FF80000
ENDCHAR
STARTCHAR 004B
ENCODING 75
SWIDTH 600 0
DWIDTH 60 0
BBX 53 71 7 0
BITMAP
FFF0000007FFF0
FFF000000FFFC0
FFF000001FFFC0
FFF000001FFF80
FFF000003FFF00
FFF000007FFE00
FFF00000FFFE00
FFF00000FFFC00
FFF00001FFF800
FFF00003FFF000
FFF00007FFF000
FFF00007FFE000
FFF0000FFFC000
FFF0001FFF8000
FFF0003FFF0000
FFF0003FFF0000
FFF0007FFE0000
FFF000FFFC0000
FFF001FFF80000
FFF001FFF80000
FFF003FFF00000
FFF007FFE00000
FFF00FFFC00000
FFF00FFFC00000
FFF01FFF800000
FFF03FFF000000
FFF07FFE000000
FFF07FFE000000
FFF0FFFC000000
FFF1FFF8000000
FFF3FFF0000000
FFF3FFE0000000
FFF7FFF0000000
FFFFFFF8000000
FFFFFFF8000000
FFFFFFFC000000
FFFFFFFE000000
FFFFFFFE000000
FFFFFFFF000000
FFFFFFFF000000
FFFFFFFF800000
FFFFEFFFC00000
FFFFC7FFC00000
FFFF83FFE00000
FFFF03FFF00000
FFFE01FFF00000
FFFC01FFF80000
FFF800FFFC0000
FFF0007FFC0000
FFF0007FFE0000
FFF0003FFF0000
FFF0001FFF0000
FFF0001FFF8000
FFF0000FFF8000
FFF0000FFFC000
FFF00007FFE000
FFF00003FFE000
FFF00003FFF000
FFF00001FFF800
FFF00000FFF800
FFF00000FFFC00
FFF000007FFE00
FFF000007FFE00
FFF000003FFF00
FFF000001FFF80
FFF000001FFF80
FFF000000FFFC0
FFF0000007FFE0
FFF0000007FFE0
FFF0000003FFF0
FFF0000003FFF8
ENDCHAR
STARTCHAR 004C
ENCODING 76
SWIDTH 600 0
DWIDTH 60 0
BBX 46 71 8 0
BITMAP
FFF000000000
FFF000000000
FFF000000000
FFF000000000
FFF000000000
FFF000000000
FFF000000000
FFF000000000
FFF000000000
FFF000000000
FFF000000000
FFF000000000
FFF000000000
FFF000000000
FFF000000000
FFF000000000
FFF000000000
FFF000000000
FFF000000000
FFF000000000
FFF000000000
FFF000000000
FFF000000000
FFF000000000
FFF000000000
FFF000000000
FFF000000000
FFF000000000
FFF000000000
FFF000000000
FFF000000000
FFF000000000
FFF000000000
FFF000000000
FFF000000000
FFF000000000
FFF000000000
FFF000000000
FFF000000000
FFF000000000
FFF000000000
FFF000000000
FFF000000000
FFF000000000
FFF000000000
FFF000000000
FFF000000000
FFF000000000
FFF000000000
FFF000000000
FFF000000000
FFF000000000
FFF000000000
FFF000000000
FFF000000000
FFF000000000
FFF000000000
FFF000000000
FFF000000000
FFF000000000
FFF000000000
FFF000000000
FFFFFFFFFFFC
FFFFFFFFFFFC
FFFFFFFFFFFC
FFFFFFFFFFFC
FFFFFFFFFFFC
FFFFFFFFFFFC
FFFFFFFFFFFC
FFFFFFFFFFFC
FFFFFFFFFFFC
ENDCHAR
STARTCHAR 004D
ENCODING 77
SWIDTH 600 0
DWIDTH 60 0
BBX 47 71 7 0
BITMAP
FFFC00007FFE
FFFE0000FFFE
FFFE0000FFFE
FFFE0000FFFE
FFFE0001FFFE
FFFF0001FFFE
FFFF0001FFFE
FFFF0003FFFE
FFFF8003FFFE
FFFF8003FFFE
FFFF8007FFFE
FFFF8007FFFE
FFFFC007FFFE
FFFFC00FFFFE
FFFFC00FFFFE
FFFFE00FFFFE
FFFFE00FFFFE
FFFFE01FF7FE
FFFFE01FF7FE
FFDFF01FF7FE
FFDFF03FE7FE
FFDFF03FE7FE
FFCFF83FE7FE
FFCFF87FC7FE
FFCFF87FC7FE
FFC7F87FC7FE
FFC7FCFFC7FE
FFC7FCFF87FE
FFC7FCFF87FE
FFC3FFFF87FE
FFC3FFFF07FE
FFC3FFFF07FE
FFC1FFFF07FE
FFC1FFFE07FE
FFC1FFFE07FE
FFC0FFFE0FFE
FFC0FFFC0FFE
FFC0FFFC0FFE
FFC0FFFC0FFE
FFC07FF80FFE
FFC07FF80FFE
FFE07FF80FFE
FFE03FF00FFE
FFE03FF00FFE
FFE03FF00FFE
FFE01FE00FFE
FFE01FE00FFE
FFE01FE00FFE
FFE00FC00FFE
FFE00FC00FFE
FFE000000FFE
FFE000000FFE
FFE000000FFE
FFE000000FFE
FFE000000FFE
FFE000000FFE
FFE000000FFE
FFE000000FFE
FFE000000FFE
FFE000000FFE
FFE000000FFE
FFE000000FFE
FFE000000FFE
FFE000000FFE
FFE000000FFE
FFE000000FFE
FFE000000FFE
FFE000000FFE
FFE000000FFE
FFE000000FFE
FFE000000FFE
ENDCHAR
STARTCHAR 004E
ENCODING 78
SWIDTH 600 0
DWIDTH 60 0
BBX 47 71 6 0
BITMAP
FFF800001FFE
FFF800001FFE
FFF800001FFE
FFFC00001FFE
FFFC00001FFE
FFFE00001FFE
FFFE00001FFE
FFFF00001FFE
FFFF00001FFE
FFFF80001FFE
FFFF80001FFE
FFFFC0001FFE
FFFFC0001FFE
FFFFE0001FFE
FFFFE0001FFE
FFFFF0001FFE
FFFFF0001FFE
FFFFF8001FFE
FFFFF8001FFE
FFFFF8001FFE
FFFFFC001FFE
FFFFFC001FFE
FFFFFE001FFE
FFF7FE001FFE
FFF7FF001FFE
FFF3FF001FFE
FFF3FF801FFE
FFF1FF801FFE
FFF1FFC01FFE
FFF0FFC01FFE
FFF0FFE01FFE
FFF07FE01FFE
FFF07FF01FFE
FFF07FF01FFE
FFF03FF81FFE
FFF03FF81FFE
FFF01FF81FFE
FFF01FFC1FFE
FFF00FFC1FFE
FFF00FFE1FFE
FFF007FE1FFE
FFF007FF1FFE
FFF003FF1FFE
FFF003FF9FFE
FFF001FF9FFE
FFF001FFDFFE
FFF000FFDFFE
FFF000FFFFFE
FFF0007FFFFE
FFF0007FFFFE
FFF0003FFFFE
FFF0003FFFFE
FFF0001FFFFE
FFF0001FFFFE
FFF0000FFFFE
FFF0000FFFFE
FFF00007FFFE
FFF00007FFFE
FFF00007FFFE
FFF00003FFFE
FFF00003FFFE
FFF00001FFFE
FFF00001FFFE
FFF00000FFFE
FFF00000FFFE
FFF000007FFE
FFF000007FFE
FFF000003FFE
FFF000003FFE
FFF000001FFE
FFF000001FFE
ENDCHAR
STARTCHAR 004F
ENCODING 79
SWIDTH 600 0
DWIDTH 60 0
BBX 51 73 4 -1
BITMAP
000007FE000000
00007FFFC00000
0001FFFFF80000
0007FFFFFC0000
000FFFFFFF0000
003FFFFFFF8000
007FFFFFFFC000
00FFFFFFFFE000
00FFFFFFFFF000
01FFFF1FFFF800
03FFF801FFFC00
03FFE0007FFC00
07FFC0003FFE00
0FFF80001FFE00
0FFF00001FFF00
0FFF00000FFF00
1FFE000007FF80
1FFE000007FF80
3FFC000003FF80
3FFC000003FFC0
3FFC000003FFC0
3FF8000001FFC0
7FF8000001FFC0
7FF8000001FFE0
7FF8000001FFE0
7FF8000001FFE0
7FF8000001FFE0
7FF0000001FFE0
7FF0000000FFE0
FFF0000000FFE0
FFF0000000FFE0
FFF0000000FFE0
FFF0000000FFE0
FFF0000000FFE0
FFF0000000FFE0
FFF0000000FFE0
FFF0000000FFE0
FFF0000000FFE0
FFF0000000FFE0
FFF0000000FFE0
FFF0000000FFE0
FFF0000000FFE0
FFF0000000FFE0
FFF0000000FFE0
7FF0000000FFE0
7FF0000001FFE0
7FF8000001FFE0
7FF8000001FFE0
7FF8000001FFE0
7FF8000001FFE0
7FF8000001FFE0
3FF8000003FFC0
3FFC000003FFC0
3FFC000003FFC0
3FFC000003FF80
1FFE000007FF80
1FFE000007FF80
0FFF00000FFF00
0FFF00001FFF00
0FFF80001FFE00
07FFC0003FFE00
03FFE0007FFC00
03FFF801FFFC00
01FFFFBFFFF800
00FFFFFFFFF000
007FFFFFFFE000
007FFFFFFFC000
001FFFFFFF8000
000FFFFFFF0000
0007FFFFFE0000
0001FFFFF80000
00007FFFE00000
000007FE000000
ENDCHAR
STARTCHAR 0050
ENCODING 80
SWIDTH 600 0
DWIDTH 60 0
BBX 49 71 8 0
BITMAP
FFFFFFFC000000
FFFFFFFFC00000
FFFFFFFFF00000
FFFFFFFFFC0000
FFFFFFFFFF0000
FFFFFFFFFF8000
FFFFFFFFFFC000
FFFFFFFFFFE000
FFFFFFFFFFF000
FFF0007FFFF800
FFF00003FFF800
FFF00001FFFC00
FFF000007FFE00
FFF000003FFE00
FFF000001FFE00
FFF000001FFF00
FFF000000FFF00
FFF000000FFF00
FFF000000FFF00
FFF000000FFF00
FFF0000007FF00
FFF0000007FF80
FFF0000007FF00
FFF0000007FF00
FFF000000FFF00
FFF000000FFF00
FFF000000FFF00
FFF000001FFF00
FFF000001FFF00
FFF000003FFE00
FFF000007FFE00
FFF00000FFFC00
FFF00001FFFC00
FFF0000FFFF800
FFFFFFFFFFF000
FFFFFFFFFFF000
FFFFFFFFFFE000
FFFFFFFFFFC000
FFFFFFFFFF0000
FFFFFFFFFE0000
FFFFFFFFF80000
FFFFFFFFE00000
FFFFFFFF000000
FFF00000000000
FFF00000000000
FFF00000000000
FFF00000000000
FFF00000000000
FFF00000000000
FFF00000000000
FFF00000000000
FFF00000000000
FFF00000000000
FFF00000000000
FFF00000000000
FFF00000000000
FFF00000000000
FFF00000000000
FFF00000000000
FFF00000000000
FFF00000000000
FFF00000000000
FFF00000000000
FFF00000000000
FFF00000000000
FFF00000000000
FFF00000000000
FFF00000000000
FFF00000000000
FFF00000000000
FFF00000000000
ENDCHAR
STARTCHAR 0051
ENCODING 81
SWIDTH 600 0
DWIDTH 60 0
BBX 54 84 4 -12
BITMAP
000007FE000000
00007FFFE00000
0001FFFFF80000
0007FFFFFE0000
000FFFFFFF0000
001FFFFFFF8000
007FFFFFFFC000
007FFFFFFFE000
00FFFFFFFFF000
01FFFF9FFFF800
03FFF801FFFC00
03FFE0007FFC00
07FFC0003FFE00
0FFF80001FFF00
0FFF00000FFF00
0FFF000007FF80
1FFE000007FF80
1FFE000003FF80
3FFC000003FFC0
3FFC000003FFC0
3FF8000001FFC0
3FF8000001FFE0
7FF8000001FFE0
7FF8000001FFE0
7FF8000000FFE0
7FF8000000FFE0
7FF0000000FFF0
7FF0000000FFF0
FFF0000000FFF0
FFF0000000FFF0
FFF0000000FFF0
FFF0000000FFF0
FFF0000000FFF0
FFF0000000FFF0
FFF0000000FFF0
FFF0000000FFF0
FFF0000000FFF0
FFF0000000FFF0
FFF0000000FFF0
FFF0000000FFF0
FFF0000000FFF0
FFF0000000FFF0
FFF0000000FFF0
FFF0000000FFF0
FFF0000000FFF0
FFF0000000FFF0
7FF0000000FFF0
7FF0000000FFF0
7FF8000000FFE0
7FF8000001FFE0
7FF8000001FFE0
7FF8000001FFE0
3FF8000001FFE0
3FFC000003FFC0
3FFC000003FFC0
1FFC000003FFC0
1FFE000007FF80
1FFF000007FF80
0FFF00000FFF00
0FFF80001FFF00
07FFC0003FFE00
07FFE0007FFE00
03FFF801FFFC00
01FFFF1FFFF800
00FFFFFFFFF800
007FFFFFFFF000
007FFFFFFFE000
001FFFFFFFE000
000FFFFFFFF000
0007FFFFFFF800
0001FFFFFFFC00
00007FFFFFFE00
000007FE7FFF80
000000003FFFC0
000000001FFFE0
0000000007FFF0
0000000003FFF8
0000000001FFFC
0000000000FFF8
00000000007FF0
00000000003FE0
00000000001FC0
00000000000780
00000000000200
ENDCHAR
STARTCHAR 0052
ENCODING 82
SWIDTH 600 0
DWIDTH 60 0
BBX 50 71 7 0
BITMAP
FFFFFFF8000000
FFFFFFFF800000
FFFFFFFFF00000
FFFFFFFFFC0000
FFFFFFFFFF0000
FFFFFFFFFF8000
FFFFFFFFFFC000
FFFFFFFFFFE000
FFFFFFFFFFF000
FFF000FFFFF800
FFF00007FFF800
FFF00001FFFC00
FFF000007FFC00
FFF000003FFE00
FFF000003FFE00
FFF000001FFE00
FFF000001FFF00
FFF000000FFF00
FFF000000FFF00
FFF000000FFF00
FFF000000FFF00
FFF000000FFF00
FFF000000FFF00
FFF000000FFF00
FFF000000FFF00
FFF000000FFF00
FFF000001FFE00
FFF000001FFE00
FFF000003FFE00
FFF000003FFC00
FFF00000FFFC00
FFF00001FFF800
FFF00007FFF800
FFF000FFFFF000
FFFFFFFFFFE000
FFFFFFFFFFC000
FFFFFFFFFF8000
FFFFFFFFFF0000
FFFFFFFFFE0000
FFFFFFFFF80000
FFFFFFFFE00000
FFFFFFFFF00000
FFFFFFFFF00000
FFF000FFF80000
FFF0007FF80000
FFF0007FFC0000
FFF0003FFC0000
FFF0003FFE0000
FFF0001FFE0000
FFF0001FFF0000
FFF0000FFF0000
FFF0000FFF8000
FFF00007FF8000
FFF00007FFC000
FFF00003FFC000
FFF00003FFE000
FFF00001FFE000
FFF00001FFF000
FFF00000FFF000
FFF00000FFF000
FFF000007FF800
FFF000007FF800
FFF000003FFC00
FFF000003FFC00
FFF000003FFE00
FFF000001FFE00
FFF000001FFF00
FFF000000FFF00
FFF000000FFF80
FFF0000007FF80
FFF0000007FFC0
ENDCHAR
STARTCHAR 0053
ENCODING 83
SWIDTH 600 0
DWIDTH 60 0
BBX 51 73 5 -1
BITMAP
000007FF000000
00007FFFF00000
0003FFFFFC0000
000FFFFFFF0000
003FFFFFFFC000
007FFFFFFFE000
00FFFFFFFFF000
01FFFFFFFFF800
03FFFFFFFFFC00
07FFFF9FFFFE00
07FFF000FFFF00
0FFFC0003FFF00
0FFF80001FFF80
1FFF00000FFF80
1FFE000007FFC0
1FFE000003FFC0
3FFC000003FFC0
3FFC000003FFE0
3FFC000001FFE0
3FFC000001FFE0
3FFC000001FFE0
3FFC000001FFE0
3FFC0000000000
3FFE0000000000
1FFF0000000000
1FFF8000000000
1FFFC000000000
0FFFE000000000
0FFFF800000000
07FFFE00000000
03FFFFC0000000
01FFFFFC000000
00FFFFFF000000
007FFFFFE00000
003FFFFFF80000
001FFFFFFE0000
0007FFFFFF8000
0001FFFFFFC000
00007FFFFFF000
00001FFFFFF800
000003FFFFFC00
0000007FFFFE00
0000000FFFFE00
00000001FFFF00
000000007FFF80
000000003FFF80
000000000FFFC0
0000000007FFC0
0000000003FFC0
0000000003FFE0
0000000001FFE0
FFF0000001FFE0
FFF0000001FFE0
FFF0000001FFE0
FFF0000001FFE0
FFF8000001FFE0
7FF8000001FFE0
7FFC000003FFE0
7FFC000003FFC0
3FFE000007FFC0
3FFF00000FFFC0
1FFFC0001FFF80
0FFFF0007FFF80
0FFFFF8FFFFF00
07FFFFFFFFFE00
03FFFFFFFFFE00
01FFFFFFFFFC00
007FFFFFFFF000
003FFFFFFFE000
000FFFFFFF8000
0003FFFFFE0000
00007FFFF80000
000007FF000000
ENDCHAR
STARTCHAR 0054
ENCODING 84
SWIDTH 600 0
DWIDTH 60 0
BBX 56 71 2 0
BITMAP
FFFFFFFFFFFFFF
FFFFFFFFFFFFFF
FFFFFFFFFFFFFF
FFFFFFFFFFFFFF
FFFFFFFFFFFFFF
FFFFFFFFFFFFFF
FFFFFFFFFFFFFF
FFFFFFFFFFFFFF
FFFFFFFFFFFFFF
000003FFC00000
000003FFC00000
000003FFC00000
000003FFC00000
000003FFC00000
000003FFC00000
000003FFC00000
000003FFC00000
000003FFC00000
000003FFC00000
000003FFC00000
000003FFC00000
000003FFC00000
000003FFC00000
000003FFC00000
000003FFC00000
000003FFC00000
000003FFC00000
000003FFC00000
000003FFC00000
000003FFC00000
000003FFC00000
000003FFC00000
000003FFC00000
000003FFC00000
000003FFC00000
000003FFC00000
000003FFC00000
000003FFC00000
000003FFC00000
000003FFC00000
000003FFC00000
000003FFC00000
000003FFC00000
000003FFC00000
000003FFC00000
000003FFC00000
000003FFC00000
000003FFC00000
000003FFC00000
000003FFC00000
000003FFC00000
000003FFC00000
000003FFC00000
000003FFC00000
000003FFC00000
000003FFC00000
000003FFC00000
000003FFC00000
000003FFC00000
000003FFC00000
000003FFC00000
000003FFC00000
000003FFC00000
000003FFC00000
000003FFC00000
000003FFC00000
000003FFC00000
000003FFC00000
000003FFC00000
000003FFC00000
000003FFC00000
ENDCHAR
STARTCHAR 0055
ENCODING 85
SWIDTH 600 0
DWIDTH 60 0
BBX 48 72 6 -1
BITMAP
FFF000000FFF
FFF000000FFF
FFF000000FFF
FFF000000FFF
FFF000000FFF
FFF000000FFF
FFF000000FFF
FFF000000FFF
FFF000000FFF
FFF000000FFF
FFF000000FFF
FFF000000FFF
FFF000000FFF
FFF000000FFF
FFF000000FFF
FFF000000FFF
FFF000000FFF
FFF000000FFF
FFF000000FFF
FFF000000FFF
FFF000000FFF
FFF000000FFF
FFF000000FFF
FFF000000FFF
FFF000000FFF
FFF000000FFF
FFF000000FFF
FFF000000FFF
FFF000000FFF
FFF000000FFF
FFF000000FFF
FFF000000FFF
FFF000000FFF
FFF000000FFF
FFF000000FFF
FFF000000FFF
FFF000000FFF
FFF000000FFF
FFF000000FFF
FFF000000FFF
FFF000000FFF
FFF000000FFF
FFF000000FFF
FFF000000FFF
FFF000000FFF
FFF000000FFF
FFF000000FFF
FFF000000FFF
FFF000000FFF
FFF000000FFF
FFF000000FFE
7FF000000FFE
7FF800001FFE
7FF800001FFE
7FF800001FFE
7FF800003FFE
3FFC00003FFC
3FFC00007FFC
3FFE00007FF8
1FFF0000FFF8
1FFF8001FFF0
0FFFE007FFF0
07FFFE7FFFE0
07FFFFFFFFE0
03FFFFFFFFC0
01FFFFFFFF80
00FFFFFFFF00
007FFFFFFE00
001FFFFFF800
0007FFFFE000
0001FFFF8000
00003FF80000
ENDCHAR
STARTCHAR 0056
ENCODING 86
SWIDTH 600 0
DWIDTH 60 0
BBX 55 71 2 0
BITMAP
FFF80000001FFE
7FFC0000003FFE
7FFC0000003FFE
7FFC0000003FFC
3FFC0000007FFC
3FFE0000007FFC
3FFE0000007FF8
1FFE0000007FF8
1FFF000000FFF8
1FFF000000FFF8
0FFF000000FFF0
0FFF000001FFF0
0FFF800001FFF0
07FF800001FFE0
07FF800001FFE0
07FF800003FFE0
07FFC00003FFC0
03FFC00003FFC0
03FFC00003FFC0
03FFE00007FF80
01FFE00007FF80
01FFE00007FF80
01FFE0000FFF80
00FFF0000FFF00
00FFF0000FFF00
00FFF0000FFF00
007FF8001FFE00
007FF8001FFE00
007FF8001FFE00
007FF8003FFC00
003FFC003FFC00
003FFC003FFC00
003FFC003FF800
001FFC007FF800
001FFE007FF800
001FFE007FF000
000FFE007FF000
000FFF00FFF000
000FFF00FFF000
0007FF00FFE000
0007FF01FFE000
0007FF81FFE000
0003FF81FFC000
0003FF81FFC000
0003FF83FFC000
0003FFC3FF8000
0001FFC3FF8000
0001FFC7FF8000
0001FFE7FF0000
0000FFE7FF0000
0000FFE7FF0000
0000FFEFFF0000
00007FFFFE0000
00007FFFFE0000
00007FFFFE0000
00003FFFFC0000
00003FFFFC0000
00003FFFFC0000
00003FFFF80000
00001FFFF80000
00001FFFF80000
00001FFFF00000
00000FFFF00000
00000FFFF00000
00000FFFF00000
000007FFE00000
000007FFE00000
000007FFE00000
000003FFC00000
000003FFC00000
000003FFC00000
ENDCHAR
STARTCHAR 0057
ENCODING 87
SWIDTH 600 0
DWIDTH 60 0
BBX 56 71 2 0
BITMAP
FFE000FF8007FF
7FE001FF8007FF
7FF001FF8007FF
7FF001FF8007FF
7FF001FFC007FF
7FF001FFC007FF
7FF001FFC007FF
7FF003FFC007FE
7FF003FFC00FFE
3FF003FFC00FFE
3FF003FFE00FFE
3FF803FFE00FFE
3FF803FFE00FFE
3FF803FFE00FFE
3FF807FFE00FFE
3FF807FFE00FFC
3FF807FFE00FFC
1FF807FFF01FFC
1FF807FFF01FFC
1FF807FFF01FFC
1FFC0FFFF01FFC
1FFC0FFFF01FFC
1FFC0FFFF01FF8
1FFC0FFFF81FF8
1FFC0FFFF81FF8
0FFC0FFFF81FF8
0FFC1FF7F81FF8
0FFC1FF7F83FF8
0FFC1FF7F83FF8
0FFC1FE7FC3FF8
0FFE1FE7FC3FF0
0FFE1FE7FC3FF0
07FE1FE3FC3FF0
07FE3FE3FC3FF0
07FE3FE3FC3FF0
07FE3FC3FE3FF0
07FE3FC3FE7FF0
07FE3FC3FE7FF0
07FE3FC1FE7FE0
07FF7FC1FE7FE0
03FF7FC1FE7FE0
03FF7F81FE7FE0
03FF7F81FF7FE0
03FF7F81FF7FE0
03FF7F80FF7FE0
03FF7F80FFFFE0
03FFFF80FFFFC0
03FFFF00FFFFC0
01FFFF00FFFFC0
01FFFF00FFFFC0
01FFFF007FFFC0
01FFFF007FFFC0
01FFFF007FFFC0
01FFFF007FFFC0
01FFFE007FFF80
01FFFE007FFF80
00FFFE003FFF80
00FFFE003FFF80
00FFFE003FFF80
00FFFE003FFF80
00FFFC003FFF80
00FFFC003FFF00
00FFFC001FFF00
00FFFC001FFF00
007FFC001FFF00
007FFC001FFF00
007FF8001FFF00
007FF8001FFF00
007FF8000FFF00
007FF8000FFE00
007FF8000FFE00
ENDCHAR
STARTCHAR 0058
ENCODING 88
SWIDTH 600 0
DWIDTH 60 0
BBX 55 71 3 0
BITMAP
FFFC0000007FFE
7FFE000000FFFC
3FFE000000FFFC
3FFF000001FFF8
1FFF000001FFF0
1FFF800003FFF0
0FFF800003FFE0
07FFC00007FFE0
07FFC00007FFC0
03FFE0000FFFC0
03FFE0000FFF80
01FFF0001FFF00
01FFF0001FFF00
00FFF8003FFE00
00FFF8003FFE00
007FFC007FFC00
003FFC007FFC00
003FFE00FFF800
001FFE00FFF000
001FFF01FFF000
000FFF01FFE000
000FFF83FFE000
0007FF83FFC000
0003FFC7FFC000
0003FFCFFF8000
0001FFEFFF0000
0001FFFFFF0000
0000FFFFFE0000
0000FFFFFE0000
00007FFFFC0000
00003FFFFC0000
00003FFFF80000
00001FFFF00000
00001FFFF00000
00000FFFE00000
00000FFFE00000
00000FFFE00000
00001FFFF00000
00001FFFF00000
00003FFFF80000
00003FFFFC0000
00007FFFFC0000
0000FFFFFE0000
0000FFFFFE0000
0001FFFFFF0000
0001FFEFFF0000
0003FFE7FF8000
0003FFC7FFC000
0007FFC3FFC000
000FFF83FFE000
000FFF01FFE000
001FFF01FFF000
001FFE00FFF800
003FFE00FFF800
007FFC007FFC00
007FFC003FFC00
00FFF8003FFE00
00FFF8001FFF00
01FFF0001FFF00
03FFF0000FFF80
03FFE0000FFF80
07FFE00007FFC0
07FFC00007FFC0
0FFFC00003FFE0
0FFF800003FFF0
1FFF800001FFF0
3FFF000001FFF8
3FFE000000FFF8
7FFE000000FFFC
7FFC0000007FFE
FFFC0000007FFE
ENDCHAR
STARTCHAR 0059
ENCODING 89
SWIDTH 600 0
DWIDTH 60 0
BBX 56 71 2 0
BITMAP
FFFC0000001FFF
7FFC0000003FFE
7FFC0000003FFE
3FFE0000007FFC
3FFE0000007FFC
1FFF000000FFF8
1FFF000000FFF8
0FFF800000FFF0
0FFF800001FFF0
07FF800001FFE0
07FFC00003FFE0
03FFC00003FFC0
03FFE00007FFC0
01FFE00007FF80
01FFF00007FF80
00FFF0000FFF00
00FFF0000FFF00
007FF8001FFF00
007FF8001FFE00
003FFC003FFE00
003FFC003FFC00
001FFE007FFC00
001FFE007FF800
000FFF007FF800
000FFF00FFF000
0007FF00FFF000
0007FF81FFE000
0003FF81FFE000
0003FFC3FFC000
0003FFC3FFC000
0001FFE3FF8000
0001FFE7FF8000
0000FFE7FF0000
0000FFFFFF0000
00007FFFFE0000
00007FFFFE0000
00003FFFFC0000
00003FFFFC0000
00001FFFF80000
00001FFFF80000
00000FFFF00000
00000FFFF00000
000007FFE00000
000007FFE00000
000003FFC00000
000003FFC00000
000003FFC00000
000003FFC00000
000003FFC00000
000003FFC00000
000003FFC00000
000003FFC00000
000003FFC00000
000003FFC00000
000003FFC00000
000003FFC00000
000003FFC00000
000003FFC00000
000003FFC00000
000003FFC00000
000003FFC00000
000003FFC00000
000003FFC00000
000003FFC00000
000003FFC00000
000003FFC00000
000003FFC00000
000003FFC00000
000003FFC00000
000003FFC00000
000003FFC00000
ENDCHAR
STARTCHAR 005A
ENCODING 90
SWIDTH 600 0
DWIDTH 60 0
BBX 50 71 5 0
BITMAP
FFFFFFFFFFFF00
FFFFFFFFFFFF00
FFFFFFFFFFFF00
FFFFFFFFFFFF00
FFFFFFFFFFFF00
FFFFFFFFFFFF80
FFFFFFFFFFFF80
FFFFFFFFFFFF80
FFFFFFFFFFFF00
000000001FFE00
000000003FFE00
000000007FFC00
000000007FF800
00000000FFF800
00000001FFF000
00000001FFE000
00000003FFE000
00000007FFC000
00000007FF8000
0000000FFF8000
0000001FFF0000
0000001FFF0000
0000003FFE0000
0000003FFC0000
0000007FFC0000
000000FFF80000
000000FFF00000
000001FFF00000
000003FFE00000
000003FFC00000
000007FFC00000
00000FFF800000
00000FFF000000
00001FFF000000
00003FFE000000
00003FFE000000
00007FFC000000
00007FF8000000
0000FFF8000000
0001FFF0000000
0001FFE0000000
0003FFE0000000
0007FFC0000000
0007FF80000000
000FFF80000000
001FFF00000000
001FFE00000000
003FFE00000000
007FFC00000000
007FFC00000000
00FFF800000000
01FFF000000000
01FFF000000000
03FFE000000000
03FFC000000000
07FFC000000000
0FFF8000000000
0FFF0000000000
1FFF0000000000
3FFE0000000000
3FFC0000000000
7FFC0000000000
FFFFFFFFFFFFC0
FFFFFFFFFFFFC0
FFFFFFFFFFFFC0
FFFFFFFFFFFFC0
FFFFFFFFFFFFC0
FFFFFFFFFFFFC0
FFFFFFFFFFFFC0
FFFFFFFFFFFFC0
FFFFFFFFFFFFC0
ENDCHAR
STARTCHAR 005B
ENCODING 91
SWIDTH 600 0
DWIDTH 60 0
BBX 21 98 20 -16
BITMAP
FFFFF8
FFFFF8
FFFFF8
FFFFF8
FFFFF8
FFFFF8
FFFFF8
FFFFF8
FFFFF8
FFE000
FFE000
FFE000
FFE000
FFE000
FFE000
FFE000
FFE000
FFE000
FFE000
FFE000
FFE000
FFE000
FFE000
FFE000
FFE000
FFE000
FFE000
FFE000
FFE000
FFE000
FFE000
FFE000
FFE000
FFE000
FFE000
FFE000
FFE000
FFE000
FFE000
FFE000
FFE000
FFE000
FFE000
FFE000
FFE000
FFE000
FFE000
FFE000
FFE000
FFE000
FFE000
FFE000
FFE000
FFE000
FFE000
FFE000
FFE000
FFE000
FFE000
FFE000
FFE000
FFE000
FFE000
FFE000
FFE000
FFE000
FFE000
FFE000
FFE000
FFE000
FFE000
FFE000
FFE000
FFE000
FFE000
FFE000
FFE000
FFE000
FFE000
FFE000
FFE000
FFE000
FFE000
FFE000
FFE000
FFE000
FFE000
FFE000
FFE000
FFFFF8
FFFFF8
FFFFF8
FFFFF8
FFFFF8
FFFFF8
FFFFF8
FFFFF8
FFFFF8
ENDCHAR
STARTCHAR 005C
ENCODING 92
SWIDTH 600 0
DWIDTH 60 0
BBX 39 77 11 -6
BITMAP
FFE0000000
7FF0000000
7FF0000000
3FF0000000
3FF8000000
3FF8000000
1FF8000000
1FFC000000
1FFC000000
0FFE000000
0FFE000000
07FE000000
07FF000000
07FF000000
03FF000000
03FF800000
03FF800000
01FF800000
01FFC00000
01FFC00000
00FFE00000
00FFE00000
007FE00000
007FF00000
007FF00000
003FF00000
003FF80000
003FF80000
001FF80000
001FFC0000
001FFC0000
000FFE0000
000FFE0000
0007FE0000
0007FF0000
0007FF0000
0003FF0000
0003FF8000
0003FF8000
0001FF8000
0001FFC000
0001FFC000
0000FFE000
0000FFE000
00007FE000
00007FF000
00007FF000
00003FF000
00003FF800
00003FF800
00001FF800
00001FFC00
00001FFC00
00000FFE00
00000FFE00
000007FE00
000007FF00
000007FF00
000003FF00
000003FF80
000003FF80
000001FF80
000001FFC0
000001FFC0
000000FFE0
000000FFE0
0000007FE0
0000007FF0
0000007FF0
0000003FF0
0000003FF8
0000003FF8
0000001FF8
0000001FFC
0000001FFC
0000000FFE
0000000FFE
ENDCHAR
STARTCHAR 005D
ENCODING 93
SWIDTH 600 0
DWIDTH 60 0
BBX 20 98 20 -16
BITMAP
FFFFF0
FFFFF0
FFFFF0
FFFFF0
FFFFF0
FFFFF0
FFFFF0
FFFFF0
FFFFF0
007FF0
007FF0
007FF0
007FF0
007FF0
007FF0
007FF0
007FF0
007FF0
007FF0
007FF0
007FF0
007FF0
007FF0
007FF0
007FF0
007FF0
007FF0
007FF0
007FF0
007FF0
007FF0
007FF0
007FF0
007FF0
007FF0
007FF0
007FF0
007FF0
007FF0
007FF0
007FF0
007FF0
007FF0
007FF0
007FF0
007FF0
007FF0
007FF0
007FF0
007FF0
007FF0
007FF0
007FF0
007FF0
007FF0
007FF0
007FF0
007FF0
007FF0
007FF0
007FF0
007FF0
007FF0
007FF0
007FF0
007FF0
007FF0
007FF0
007FF0
007FF0
007FF0
007FF0
007FF0
007FF0
007FF0
007FF0
007FF0
007FF0
007FF0
007FF0
007FF0
007FF0
007FF0
007FF0
007FF0
007FF0
007FF0
007FF0
007FF0
FFFFF0
FFFFF0
FFFFF0
FFFFF0
FFFFF0
FFFFF0
FFFFF0
FFFFF0
FFFFF0
ENDCHAR
STARTCHAR 005E
ENCODING 94
SWIDTH 600 0
DWIDTH 60 0
BBX 39 38 11 33
BITMAP
0001FF0000
0001FF0000
0003FF8000
0003FF8000
0007FF8000
0007FFC000
0007FFC000
000FFFE000
000FFFE000
001FFFE000
001FFFF000
001FFFF000
003FEFF800
003FEFF800
007FEFF800
007FCFFC00
007FC7FC00
00FFC7FE00
00FF83FE00
01FF83FF00
01FF03FF00
03FF01FF00
03FF01FF80
03FE01FF80
07FE00FFC0
07FE00FFC0
0FFC007FC0
0FFC007FE0
0FF8007FE0
1FF8003FF0
1FF8003FF0
3FF0001FF0
3FF0001FF8
3FE0001FF8
7FE0000FFC
7FE0000FFC
FFC00007FC
FFC00007FE
ENDCHAR
STARTCHAR 005F
ENCODING 95
SWIDTH 600 0
DWIDTH 60 0
BBX 45 9 7 -9
BITMAP
FFFFFFFFFFF8
FFFFFFFFFFF8
FFFFFFFFFFF8
FFFFFFFFFFF8
FFFFFFFFFFF8
FFFFFFFFFFF8
FFFFFFFFFFF8
FFFFFFFFFFF8
FFFFFFFFFFF8
ENDCHAR
STARTCHAR 0060
ENCODING 96
SWIDTH 600 0
DWIDTH 60 0
BBX 22 13 20 59
BITMAP
FFFC00
7FFC00
3FFE00
1FFF00
0FFF00
07FF80
03FFC0
01FFC0
00FFE0
007FF0
003FF0
001FF8
000FFC
ENDCHAR
STARTCHAR 0061
ENCODING 97
SWIDTH 600 0
DWIDTH 60 0
BBX 46 55 7 -1
BITMAP
00007FF00000
0007FFFF0000
003FFFFFC000
007FFFFFF000
01FFFFFFFC00
03FFFFFFFE00
07FFFFFFFF00
0FFFFFFFFF80
1FFFFFFFFF80
1FFFF1FFFFC0
3FFF001FFFE0
3FFE0007FFE0
7FFC0003FFE0
7FF80001FFF0
7FF80000FFF0
7FF00000FFF0
7FF00000FFF0
00000000FFF0
000000007FF0
000000007FF0
000000007FF0
000000007FF0
00007FFFFFF0
000FFFFFFFF0
007FFFFFFFF0
01FFFFFFFFF0
03FFFFFFFFF0
07FFFFFFFFF0
0FFFFFFFFFF0
1FFFF0007FF0
3FFF00007FF0
7FFC00007FF0
7FF800007FF0
FFF000007FF0
FFF000007FF0
FFF000007FF0
FFE000007FF0
FFE000007FF0
FFE000007FF0
FFE00000FFF0
FFF00000FFF0
FFF00001FFF0
FFF80003FFF0
FFF8000FFFF0
FFFE003FFFF0
7FFFE3FFFFF0
7FFFFFFFFFF0
3FFFFFFFFFF8
1FFFFFFFFFF8
0FFFFFFFFFF8
07FFFFFE7FF8
03FFFFFC7FF8
01FFFFF03FFC
003FFFC03FFC
0007FE000000
ENDCHAR
STARTCHAR 0062
ENCODING 98
SWIDTH 600 0
DWIDTH 60 0
BBX 46 76 8 -1
BITMAP
FFE000000000
FFE000000000
FFE000000000
FFE000000000
FFE000000000
FFE000000000
FFE000000000
FFE000000000
FFE000000000
FFE000000000
FFE000000000
FFE000000000
FFE000000000
FFE000000000
FFE000000000
FFE000000000
FFE000000000
FFE000000000
FFE000000000
FFE000000000
FFE000000000
FFE00FFC0000
FFE07FFF8000
FFE1FFFFE000
FFE3FFFFF800
FFE7FFFFFC00
FFEFFFFFFE00
FFFFFFFFFF00
FFFFFFFFFF80
FFFFFFFFFF80
FFFFF9FFFFC0
FFFF801FFFC0
FFFE0007FFE0
FFFC0003FFE0
FFF80001FFF0
FFF80000FFF0
FFF00000FFF0
FFE000007FF8
FFE000007FF8
FFE000007FF8
FFE000003FF8
FFE000003FFC
FFE000003FFC
FFE000003FFC
FFE000003FFC
FFE000003FFC
FFE000003FFC
FFE000003FFC
FFE000003FFC
FFE000003FFC
FFE000003FFC
FFE000003FFC
FFE000003FFC
FFE000003FFC
FFE000003FFC
FFE000003FFC
FFE000003FF8
FFE000007FF8
FFE000007FF8
FFE000007FF8
FFF00000FFF0
FFF00000FFF0
FFF80001FFF0
FFFC0003FFE0
FFFE0007FFE0
FFFF801FFFC0
FFFFFDFFFFC0
FFFFFFFFFF80
FFFFFFFFFF80
FFFFFFFFFF00
FFEFFFFFFE00
FFE7FFFFFC00
FFE3FFFFF800
FFC1FFFFE000
FFC07FFF8000
00000FFC0000
ENDCHAR
STARTCHAR 0063
ENCODING 99
SWIDTH 600 0
DWIDTH 60 0
BBX 47 55 6 -1
BITMAP
00001FFC0000
0000FFFFC000
0007FFFFF000
001FFFFFFC00
003FFFFFFE00
007FFFFFFF80
00FFFFFFFFC0
01FFFFFFFFC0
03FFFFFFFFE0
07FFFF3FFFF0
0FFFE003FFF0
0FFFC001FFF8
1FFF00007FF8
1FFF00003FFC
3FFE00003FFC
3FFC00001FFC
3FFC00001FFE
7FF800000FFE
7FF800000FFE
7FF800000FFE
7FF800000000
7FF000000000
FFF000000000
FFF000000000
FFF000000000
FFF000000000
FFF000000000
FFF000000000
FFF000000000
FFF000000000
FFF000000000
FFF000000000
FFF000000000
7FF000000000
7FF000000000
7FF800000000
7FF800000FFE
7FF800000FFE
3FFC00001FFE
3FFC00001FFE
3FFE00001FFC
1FFF00003FFC
1FFF00007FFC
0FFFC000FFF8
0FFFE003FFF8
07FFFF3FFFF0
03FFFFFFFFE0
01FFFFFFFFC0
00FFFFFFFF80
007FFFFFFF00
003FFFFFFE00
001FFFFFF800
0007FFFFF000
0000FFFF8000
00001FFC0000
ENDCHAR
STARTCHAR 0064
ENCODING 100
SWIDTH 600 0
DWIDTH 60 0
BBX 46 76 6 -1
BITMAP
000000003FFC
000000003FFC
000000003FFC
000000003FFC
000000003FFC
000000003FFC
000000003FFC
000000003FFC
000000003FFC
000000003FFC
000000003FFC
000000003FFC
000000003FFC
000000003FFC
000000003FFC
000000003FFC
000000003FFC
000000003FFC
000000003FFC
000000003FFC
000000003FFC
0000FFC03FFC
0007FFF83FFC
001FFFFE3FFC
003FFFFF3FFC
00FFFFFFBFFC
01FFFFFFFFFC
03FFFFFFFFFC
03FFFFFFFFFC
07FFFFFFFFFC
0FFFFE7FFFFC
0FFFE007FFFC
1FFF8001FFFC
1FFF0000FFFC
3FFE00007FFC
3FFE00003FFC
3FFC00003FFC
7FFC00003FFC
7FF800003FFC
7FF800003FFC
7FF800003FFC
FFF000003FFC
FFF000003FFC
FFF000003FFC
FFF000003FFC
FFF000003FFC
FFF000003FFC
FFF000003FFC
FFF000003FFC
FFF000003FFC
FFF000003FFC
FFF000003FFC
FFF000003FFC
FFF000003FFC
FFF000003FFC
FFF000003FFC
7FF000003FFC
7FF800003FFC
7FF800003FFC
7FF800003FFC
3FFC00003FFC
3FFE00003FFC
3FFE00007FFC
1FFF0000FFFC
1FFF8001FFFC
0FFFE007FFFC
0FFFFE7FFFFC
07FFFFFFFFFC
03FFFFFFFFFC
01FFFFFFFFFC
00FFFFFFDFFC
007FFFFF9FFC
003FFFFF1FFC
001FFFFE1FFC
0007FFF80FFC
0000FFC00000
ENDCHAR
STARTCHAR 0065
ENCODING 101
SWIDTH 600 0
DWIDTH 60 0
BBX 48 55 6 -1
BITMAP
00000FFC0000
0000FFFFC000
0003FFFFF000
000FFFFFFC00
001FFFFFFE00
007FFFFFFF00
00FFFFFFFFC0
01FFFFFFFFC0
03FFFFFFFFE0
03FFFF3FFFF0
07FFF003FFF0
0FFFC000FFF8
0FFF80007FFC
1FFF00003FFC
1FFE00001FFC
3FFC00001FFE
3FFC00000FFE
7FF800000FFE
7FF800000FFF
7FF8000007FF
7FF0000007FF
FFF0000007FF
FFFFFFFFFFFF
FFFFFFFFFFFF
FFFFFFFFFFFF
FFFFFFFFFFFF
FFFFFFFFFFFF
FFFFFFFFFFFF
FFFFFFFFFFFF
FFFFFFFFFFFF
FFFFFFFFFFFF
FFF000000000
FFF000000000
FFF000000000
FFF000000000
7FF800000000
7FF800000000
7FFC00000000
7FFC00000000
3FFE00000040
3FFE000000E0
1FFF000001F0
1FFFC00007F8
0FFFE0000FFC
07FFF8007FFE
07FFFFCFFFFE
03FFFFFFFFFC
01FFFFFFFFF8
00FFFFFFFFF0
007FFFFFFFE0
001FFFFFFFC0
000FFFFFFF00
0003FFFFFC00
00007FFFF000
00000FFF0000
ENDCHAR
STARTCHAR 0066
ENCODING 102
SWIDTH 600 0
DWIDTH 60 0
BBX 49 77 7 0
BITMAP
00000007FFF800
0000007FFFFF80
000001FFFFFF80
000003FFFFFF80
00000FFFFFFF80
00001FFFFFFF00
00003FFFFFFF00
00003FFFFFFF00
00007FFFFFFF00
0000FFFF801F00
0000FFFE000100
0001FFF8000000
0001FFF0000000
0001FFE0000000
0003FFE0000000
0003FFC0000000
0003FFC0000000
0003FFC0000000
0003FFC0000000
0003FFC0000000
0003FFC0000000
0003FFC0000000
0003FFC0000000
0003FFC0000000
FFFFFFFFFFF800
FFFFFFFFFFF800
FFFFFFFFFFF800
FFFFFFFFFFF800
FFFFFFFFFFF800
FFFFFFFFFFF800
FFFFFFFFFFF800
FFFFFFFFFFF800
FFFFFFFFFFF800
0003FFC0000000
0003FFC0000000
0003FFC0000000
0003FFC0000000
0003FFC0000000
0003FFC0000000
0003FFC0000000
0003FFC0000000
0003FFC0000000
0003FFC0000000
0003FFC0000000
0003FFC0000000
0003FFC0000000
0003FFC0000000
0003FFC0000000
0003FFC0000000
0003FFC0000000
0003FFC0000000
0003FFC0000000
0003FFC0000000
0003FFC0000000
0003FFC0000000
0003FFC0000000
0003FFC0000000
0003FFC0000000
0003FFC0000000
0003FFC0000000
0003FFC0000000
0003FFC0000000
0003FFC0000000
0003FFC0000000
0003FFC0000000
0003FFC0000000
0003FFC0000000
0003FFC0000000
0003FFC0000000
0003FFC0000000
0003FFC0000000
0003FFC0000000
0003FFC0000000
0003FFC0000000
0003FFC0000000
0003FFC0000000
0003FFC0000000
ENDCHAR
STARTCHAR 0067
ENCODING 103
SWIDTH 600 0
DWIDTH 60 0
BBX 47 74 6 -20
BITMAP
00007FC00000
0003FFF80FFE
000FFFFE0FFE
003FFFFF8FFE
007FFFFFCFFE
00FFFFFFEFFE
01FFFFFFFFFE
03FFFFFFFFFE
07FFFFFFFFFE
0FFFFF7FFFFE
0FFFE003FFFE
1FFFC001FFFE
1FFF8000FFFE
3FFF00007FFE
3FFE00003FFE
3FFC00001FFE
7FFC00001FFE
7FF800001FFE
7FF800001FFE
7FF800001FFE
7FF000001FFE
FFF000001FFE
FFF000001FFE
FFF000001FFE
FFF000001FFE
FFF000001FFE
FFF000001FFE
FFF000001FFE
FFF000001FFE
FFF000001FFE
FFF000001FFE
FFF000001FFE
FFF000001FFE
FFF000001FFE
7FF000001FFE
7FF800001FFE
7FF800001FFE
7FF800001FFE
7FFC00001FFE
3FFC00001FFE
3FFE00003FFE
3FFE00007FFE
1FFF00007FFE
1FFF8001FFFE
0FFFE003FFFE
0FFFFE7FFFFE
07FFFFFFFFFE
03FFFFFFFFFE
01FFFFFFFFFE
00FFFFFFFFFE
007FFFFFDFFE
003FFFFF9FFE
000FFFFE1FFE
0003FFF81FFE
00007FC01FFC
000000001FFC
000000003FFC
000000003FFC
000000003FFC
008000007FFC
01C00000FFF8
03F00001FFF8
07F80003FFF0
0FFF000FFFF0
1FFFF9FFFFE0
1FFFFFFFFFC0
0FFFFFFFFFC0
07FFFFFFFF80
03FFFFFFFF00
00FFFFFFFC00
007FFFFFF800
001FFFFFE000
0003FFFF0000
00003FF00000
ENDCHAR
STARTCHAR 0068
ENCODING 104
SWIDTH 600 0
DWIDTH 60 0
BBX 45 75 8 0
BITMAP
FFE000000000
FFE000000000
FFE000000000
FFE000000000
FFE000000000
FFE000000000
FFE000000000
FFE000000000
FFE000000000
FFE000000000
FFE000000000
FFE000000000
FFE000000000
FFE000000000
FFE000000000
FFE000000000
FFE000000000
FFE000000000
FFE000000000
FFE000000000
FFE000000000
FFE003FE0000
FFE01FFFE000
FFE07FFFF800
FFE0FFFFFC00
FFE3FFFFFF00
FFE7FFFFFF00
FFE7FFFFFF80
FFEFFFFFFFC0
FFFFFFFFFFE0
FFFFFCFFFFE0
FFFF800FFFE0
FFFE0003FFF0
FFFC0001FFF0
FFF80000FFF0
FFF00000FFF8
FFE000007FF8
FFE000007FF8
FFE000007FF8
FFE000007FF8
FFE000003FF8
FFE000003FF8
FFE000003FF8
FFE000003FF8
FFE000003FF8
FFE000003FF8
FFE000003FF8
FFE000003FF8
FFE000003FF8
FFE000003FF8
FFE000003FF8
FFE000003FF8
FFE000003FF8
FFE000003FF8
FFE000003FF8
FFE000003FF8
FFE000003FF8
FFE000003FF8
FFE000003FF8
FFE000003FF8
FFE000003FF8
FFE000003FF8
FFE000003FF8
FFE000003FF8
FFE000003FF8
FFE000003FF8
FFE000003FF8
FFE000003FF8
FFE000003FF8
FFE000003FF8
FFE000003FF8
FFE000003FF8
FFE000003FF8
FFE000003FF8
FFE000003FF8
ENDCHAR
STARTCHAR 0069
ENCODING 105
SWIDTH 600 0
DWIDTH 60 0
BBX 44 72 10 0
BITMAP
00001F800000
00003FE00000
00007FF00000
0000FFF00000
0000FFF80000
0000FFF80000
0000FFF80000
0000FFF80000
0000FFF80000
0000FFF00000
00007FF00000
00003FE00000
00001F800000
000000000000
000000000000
000000000000
000000000000
000000000000
000000000000
FFFFFFF00000
FFFFFFF00000
FFFFFFF00000
FFFFFFF00000
FFFFFFF00000
FFFFFFF00000
FFFFFFF00000
FFFFFFF00000
FFFFFFF00000
00007FF00000
00007FF00000
00007FF00000
00007FF00000
00007FF00000
00007FF00000
00007FF00000
00007FF00000
00007FF00000
00007FF00000
00007FF00000
00007FF00000
00007FF00000
00007FF00000
00007FF00000
00007FF00000
00007FF00000
00007FF00000
00007FF00000
00007FF00000
00007FF00000
00007FF00000
00007FF00000
00007FF00000
00007FF00000
00007FF00000
00007FF00000
00007FF00000
00007FF00000
00007FF00000
00007FF00000
00007FF00000
00007FF00000
00007FF00000
00007FF00000
FFFFFFFFFFF0
FFFFFFFFFFF0
FFFFFFFFFFF0
FFFFFFFFFFF0
FFFFFFFFFFF0
FFFFFFFFFFF0
FFFFFFFFFFF0
FFFFFFFFFFF0
FFFFFFFFFFF0
ENDCHAR
STARTCHAR 006A
ENCODING 106
SWIDTH 600 0
DWIDTH 60 0
BBX 32 93 11 -21
BITMAP
000003F0
00000FF8
00001FFC
00001FFE
00003FFE
00003FFE
00003FFF
00003FFE
00003FFE
00001FFE
00001FFC
00000FF8
000003F0
00000000
00000000
00000000
00000000
00000000
00000000
0FFFFFFE
0FFFFFFE
0FFFFFFE
0FFFFFFE
0FFFFFFE
0FFFFFFE
0FFFFFFE
0FFFFFFE
0FFFFFFE
00001FFE
00001FFE
00001FFE
00001FFE
00001FFE
00001FFE
00001FFE
00001FFE
00001FFE
00001FFE
00001FFE
00001FFE
00001FFE
00001FFE
00001FFE
00001FFE
00001FFE
00001FFE
00001FFE
00001FFE
00001FFE
00001FFE
00001FFE
00001FFE
00001FFE
00001FFE
00001FFE
00001FFE
00001FFE
00001FFE
00001FFE
00001FFE
00001FFE
00001FFE
00001FFE
00001FFE
00001FFE
00001FFE
00001FFE
00001FFE
00001FFE
00001FFE
00001FFE
00001FFE
00001FFE
00001FFE
00001FFE
00001FFE
00001FFE
00003FFC
00003FFC
00007FFC
00007FFC
0000FFF8
0003FFF8
E03FFFF0
FFFFFFF0
FFFFFFE0
FFFFFFC0
FFFFFFC0
FFFFFF00
FFFFFE00
FFFFF800
FFFFE000
7FFE0000
ENDCHAR
STARTCHAR 006B
ENCODING 107
SWIDTH 600 0
DWIDTH 60 0
BBX 49 75 8 0
BITMAP
FFE00000000000
FFE00000000000
FFE00000000000
FFE00000000000
FFE00000000000
FFE00000000000
FFE00000000000
FFE00000000000
FFE00000000000
FFE00000000000
FFE00000000000
FFE00000000000
FFE00000000000
FFE00000000000
FFE00000000000
FFE00000000000
FFE00000000000
FFE00000000000
FFE00000000000
FFE00000000000
FFE00000000000
FFE00000000000
FFE00001FFFC00
FFE00003FFF000
FFE00007FFF000
FFE0000FFFE000
FFE0000FFFC000
FFE0001FFF8000
FFE0003FFF0000
FFE0007FFE0000
FFE000FFFC0000
FFE001FFF80000
FFE003FFF00000
FFE007FFE00000
FFE00FFFC00000
FFE01FFF800000
FFE03FFF000000
FFE07FFE000000
FFE0FFFE000000
FFE1FFFC000000
FFE3FFF8000000
FFE3FFF0000000
FFE7FFE0000000
FFEFFFC0000000
FFFFFFC0000000
FFFFFFE0000000
FFFFFFE0000000
FFFFFFF0000000
FFFFFFF8000000
FFFFFFFC000000
FFFFFFFC000000
FFFFFFFE000000
FFFFBFFF000000
FFFF1FFF800000
FFFE0FFF800000
FFFC0FFFC00000
FFF807FFE00000
FFF003FFF00000
FFE003FFF00000
FFE001FFF80000
FFE000FFFC0000
FFE0007FFE0000
FFE0007FFE0000
FFE0003FFF0000
FFE0001FFF8000
FFE0000FFFC000
FFE0000FFFC000
FFE00007FFE000
FFE00003FFF000
FFE00003FFF800
FFE00001FFFC00
FFE00000FFFC00
FFE000007FFE00
FFE000007FFF00
FFE000003FFF80
ENDCHAR
STARTCHAR 006C
ENCODING 108
SWIDTH 600 0
DWIDTH 60 0
BBX 44 75 10 0
BITMAP
FFFFFFF00000
FFFFFFF00000
FFFFFFF00000
FFFFFFF00000
FFFFFFF00000
FFFFFFF00000
FFFFFFF00000
FFFFFFF00000
FFFFFFF00000
00007FF00000
00007FF00000
00007FF00000
00007FF00000
00007FF00000
00007FF00000
00007FF00000
00007FF00000
00007FF00000
00007FF00000
00007FF00000
00007FF00000
00007FF00000
00007FF00000
00007FF00000
00007FF00000
00007FF00000
00007FF00000
00007FF00000
00007FF00000
00007FF00000
00007FF00000
00007FF00000
00007FF00000
00007FF00000
00007FF00000
00007FF00000
00007FF00000
00007FF00000
00007FF00000
00007FF00000
00007FF00000
00007FF00000
00007FF00000
00007FF00000
00007FF00000
00007FF00000
00007FF00000
00007FF00000
00007FF00000
00007FF00000
00007FF00000
00007FF00000
00007FF00000
00007FF00000
00007FF00000
00007FF00000
00007FF00000
00007FF00000
00007FF00000
00007FF00000
00007FF00000
00007FF00000
00007FF00000
00007FF00000
00007FF00000
00007FF00000
FFFFFFFFFFF0
FFFFFFFFFFF0
FFFFFFFFFFF0
FFFFFFFFFFF0
FFFFFFFFFFF0
FFFFFFFFFFF0
FFFFFFFFFFF0
FFFFFFFFFFF0
FFFFFFFFFFF0
ENDCHAR
STARTCHAR 006D
ENCODING 109
SWIDTH 600 0
DWIDTH 60 0
BBX 52 54 4 0
BITMAP
00007F800FF000
FFC1FFE03FFC00
FFC3FFF07FFE00
FFC7FFF8FFFF00
FFCFFFFDFFFF80
FFFFFFFFFFFFC0
FFFFFFFFFFFFC0
FFFFFFFFFFFFE0
FFFFFFFFFFFFE0
FFFE7FFFE7FFE0
FFF81FFF81FFE0
FFF00FFF00FFE0
FFE00FFE007FF0
FFE007FE007FF0
FFE007FE007FF0
FFE007FE007FF0
FFE007FE007FF0
FFE007FE007FF0
FFE007FE007FF0
FFE007FE007FF0
FFE007FE007FF0
FFE007FE007FF0
FFE007FE007FF0
FFE007FE007FF0
FFE007FE007FF0
FFE007FE007FF0
FFE007FE007FF0
FFE007FE007FF0
FFE007FE007FF0
FFE007FE007FF0
FFE007FE007FF0
FFE007FE007FF0
FFE007FE007FF0
FFE007FE007FF0
FFE007FE007FF0
FFE007FE007FF0
FFE007FE007FF0
FFE007FE007FF0
FFE007FE007FF0
FFE007FE007FF0
FFE007FE007FF0
FFE007FE007FF0
FFE007FE007FF0
FFE007FE007FF0
FFE007FE007FF0
FFE007FE007FF0
FFE007FE007FF0
FFE007FE007FF0
FFE007FE007FF0
FFE007FE007FF0
FFE007FE007FF0
FFE007FE007FF0
FFE007FE007FF0
FFE007FE007FF0
ENDCHAR
STARTCHAR 006E
ENCODING 110
SWIDTH 600 0
DWIDTH 60 0
BBX 45 54 8 0
BITMAP
000003FF0000
FFC01FFFE000
FFC07FFFF800
FFC0FFFFFC00
FFC3FFFFFF00
FFE7FFFFFF80
FFEFFFFFFF80
FFFFFFFFFFC0
FFFFFFFFFFE0
FFFFFCFFFFE0
FFFF8007FFE0
FFFE0003FFF0
FFFC0001FFF0
FFF80000FFF0
FFF00000FFF8
FFF000007FF8
FFE000007FF8
FFE000007FF8
FFE000007FF8
FFE000007FF8
FFE000007FF8
FFE000007FF8
FFE000007FF8
FFE000007FF8
FFE000007FF8
FFE000007FF8
FFE000007FF8
FFE000007FF8
FFE000007FF8
FFE000007FF8
FFE000007FF8
FFE000007FF8
FFE000007FF8
FFE000007FF8
FFE000007FF8
FFE000007FF8
FFE000007FF8
FFE000007FF8
FFE000007FF8
FFE000007FF8
FFE000007FF8
FFE000007FF8
FFE000007FF8
FFE000007FF8
FFE000007FF8
FFE000007FF8
FFE000007FF8
FFE000007FF8
FFE000007FF8
FFE000007FF8
FFE000007FF8
FFE000007FF8
FFE000007FF8
FFE000007FF8
ENDCHAR
STARTCHAR 006F
ENCODING 111
SWIDTH 600 0
DWIDTH 60 0
BBX 50 55 5 -1
BITMAP
00000FFC000000
0000FFFFC00000
0003FFFFF00000
000FFFFFFC0000
003FFFFFFE0000
007FFFFFFF8000
00FFFFFFFFC000
01FFFFFFFFE000
03FFFFFFFFF000
03FFFF3FFFF000
07FFF003FFF800
0FFFC000FFFC00
0FFF80007FFC00
1FFF00003FFE00
1FFE00001FFE00
3FFE00001FFF00
3FFC00000FFF00
3FFC00000FFF00
7FF8000007FF00
7FF8000007FF80
7FF8000007FF80
7FF8000007FF80
7FF0000007FF80
7FF0000003FF80
FFF0000003FF80
FFF0000003FF80
FFF0000003FF80
FFF0000003FFC0
FFF0000003FF80
FFF0000003FF80
FFF0000003FF80
7FF0000003FF80
7FF0000007FF80
7FF8000007FF80
7FF8000007FF80
7FF8000007FF80
7FF8000007FF00
3FFC00000FFF00
3FFC00000FFF00
3FFE00001FFF00
1FFE00001FFE00
1FFF00003FFE00
0FFF80007FFC00
0FFFC000FFFC00
07FFF003FFF800
07FFFF3FFFF000
03FFFFFFFFF000
01FFFFFFFFE000
00FFFFFFFFC000
007FFFFFFF8000
003FFFFFFF0000
000FFFFFFC0000
0003FFFFF00000
0000FFFFC00000
00000FFC000000
ENDCHAR
STARTCHAR 0070
ENCODING 112
SWIDTH 600 0
DWIDTH 60 0
BBX 46 74 8 -20
BITMAP
00000FFC0000
FFC07FFF8000
FFC1FFFFE000
FFE3FFFFF000
FFE7FFFFFC00
FFFFFFFFFE00
FFFFFFFFFF00
FFFFFFFFFF00
FFFFFFFFFF80
FFFFF9FFFFC0
FFFF001FFFC0
FFFE000FFFE0
FFFC0007FFE0
FFF80003FFF0
FFF00001FFF0
FFE00000FFF0
FFE00000FFF8
FFE000007FF8
FFE000007FF8
FFE000007FF8
FFE000007FF8
FFE000003FF8
FFE000003FFC
FFE000003FFC
FFE000003FFC
FFE000003FFC
FFE000003FFC
FFE000003FFC
FFE000003FFC
FFE000003FFC
FFE000003FFC
FFE000003FFC
FFE000003FFC
FFE000003FF8
FFE000007FF8
FFE000007FF8
FFE000007FF8
FFE000007FF8
FFE00000FFF8
FFE00000FFF0
FFF00001FFF0
FFF80003FFF0
FFFC0003FFE0
FFFE000FFFE0
FFFF001FFFC0
FFFFF9FFFFC0
FFFFFFFFFF80
FFFFFFFFFF00
FFFFFFFFFF00
FFFFFFFFFE00
FFEFFFFFFC00
FFE3FFFFF000
FFE1FFFFE000
FFE07FFF8000
FFE00FFC0000
FFE000000000
FFE000000000
FFE000000000
FFE000000000
FFE000000000
FFE000000000
FFE000000000
FFE000000000
FFE000000000
FFE000000000
FFE000000000
FFE000000000
FFE000000000
FFE000000000
FFE000000000
FFE000000000
FFE000000000
FFE000000000
FFE000000000
ENDCHAR
STARTCHAR 0071
ENCODING 113
SWIDTH 600 0
DWIDTH 60 0
BBX 46 74 6 -20
BITMAP
0000FFC00000
0007FFF80FFC
001FFFFE0FFC
003FFFFF1FFC
00FFFFFFDFFC
01FFFFFFFFFC
03FFFFFFFFFC
03FFFFFFFFFC
07FFFFFFFFFC
0FFFFE7FFFFC
0FFFE003FFFC
1FFFC001FFFC
1FFF0000FFFC
3FFF00007FFC
3FFE00003FFC
3FFC00001FFC
7FFC00001FFC
7FF800001FFC
7FF800001FFC
7FF800001FFC
7FF000001FFC
FFF000001FFC
FFF000001FFC
FFF000001FFC
FFF000001FFC
FFF000001FFC
FFF000001FFC
FFF000001FFC
FFF000001FFC
FFF000001FFC
FFF000001FFC
FFF000001FFC
FFF000001FFC
FFF000001FFC
7FF000001FFC
7FF800001FFC
7FF800001FFC
7FF800001FFC
7FFC00001FFC
3FFC00001FFC
3FFE00003FFC
3FFE00007FFC
1FFF0000FFFC
1FFF8001FFFC
0FFFE003FFFC
0FFFFE7FFFFC
07FFFFFFFFFC
03FFFFFFFFFC
01FFFFFFFFFC
01FFFFFFFFFC
007FFFFFDFFC
003FFFFF1FFC
001FFFFE1FFC
0007FFF81FFC
0000FFC01FFC
000000001FFC
000000001FFC
000000001FFC
000000001FFC
000000001FFC
000000001FFC
000000001FFC
000000001FFC
000000001FFC
000000001FFC
000000001FFC
000000001FFC
000000001FFC
000000001FFC
000000001FFC
000000001FFC
000000001FFC
000000001FFC
000000001FFC
ENDCHAR
STARTCHAR 0072
ENCODING 114
SWIDTH 600 0
DWIDTH 60 0
BBX 39 54 15 0
BITMAP
000000FFF0
FFE007FFFE
FFE01FFFFC
FFE03FFFFC
FFE0FFFFFC
FFE1FFFFFC
FFE3FFFFFC
FFE7FFFFFC
FFEFFFFFFC
FFFFFFFFF8
FFFFFFFFF8
FFFFFFFFF8
FFFFFC00F8
FFFFE00000
FFFF800000
FFFF000000
FFFE000000
FFFC000000
FFF8000000
FFF0000000
FFF0000000
FFF0000000
FFF0000000
FFF0000000
FFF0000000
FFF0000000
FFF0000000
FFF0000000
FFF0000000
FFF0000000
FFF0000000
FFF0000000
FFF0000000
FFF0000000
FFF0000000
FFF0000000
FFF0000000
FFF0000000
FFF0000000
FFF0000000
FFF0000000
FFF0000000
FFF0000000
FFF0000000
FFF0000000
FFF0000000
FFF0000000
FFF0000000
FFF0000000
FFF0000000
FFF0000000
FFF0000000
FFF0000000
FFF0000000
ENDCHAR
STARTCHAR 0073
ENCODING 115
SWIDTH 600 0
DWIDTH 60 0
BBX 46 55 7 -1
BITMAP
00003FF80000
0003FFFF8000
001FFFFFF000
003FFFFFFC00
00FFFFFFFE00
01FFFFFFFF80
03FFFFFFFFC0
07FFFFFFFFE0
0FFFFFFFFFE0
0FFFFC7FFFF0
1FFFC007FFF8
1FFF0001FFF8
3FFE0000FFF8
3FFC00007FFC
3FFC00003FFC
3FF800003FFC
3FF800003FFC
3FFC00000000
3FFC00000000
3FFE00000000
1FFF00000000
1FFFC0000000
0FFFF8000000
07FFFFC00000
03FFFFFE0000
01FFFFFFC000
00FFFFFFF800
003FFFFFFE00
000FFFFFFF00
0001FFFFFFC0
00003FFFFFE0
000003FFFFF0
0000001FFFF8
00000003FFF8
00000000FFFC
000000007FFC
000000003FFC
FFF000001FFC
FFF000001FFC
FFF000001FFC
7FF000001FFC
7FF800003FFC
7FFC00003FFC
3FFE00007FFC
3FFF8001FFF8
1FFFFE7FFFF8
0FFFFFFFFFF0
0FFFFFFFFFF0
07FFFFFFFFE0
03FFFFFFFFC0
00FFFFFFFF00
007FFFFFFE00
001FFFFFF800
0003FFFFC000
00003FFC0000
ENDCHAR
STARTCHAR 0074
ENCODING 116
SWIDTH 600 0
DWIDTH 60 0
BBX 47 67 6 -1
BITMAP
0007FF800000
0007FF800000
0007FF800000
0007FF800000
0007FF800000
0007FF800000
0007FF800000
0007FF800000
0007FF800000
0007FF800000
0007FF800000
0007FF800000
0007FF800000
FFFFFFFFFFF8
FFFFFFFFFFF8
FFFFFFFFFFF8
FFFFFFFFFFF8
FFFFFFFFFFF8
FFFFFFFFFFF8
FFFFFFFFFFF8
FFFFFFFFFFF8
FFFFFFFFFFF8
0007FF800000
0007FF800000
0007FF800000
0007FF800000
0007FF800000
0007FF800000
0007FF800000
0007FF800000
0007FF800000
0007FF800000
0007FF800000
0007FF800000
0007FF800000
0007FF800000
0007FF800000
0007FF800000
0007FF800000
0007FF800000
0007FF800000
0007FF800000
0007FF800000
0007FF800000
0007FF800000
0007FF800000
0007FF800000
0007FF800000
0007FF800000
0007FF800000
0007FF800000
0007FF800000
0003FFC00000
0003FFC00000
0003FFE00000
0003FFF00000
0001FFF8000C
0001FFFFCFFC
0001FFFFFFFC
0000FFFFFFFC
00007FFFFFFC
00007FFFFFFE
00003FFFFFFE
00001FFFFFFE
000007FFFFFC
000001FFFFE0
0000003FFC00
ENDCHAR
STARTCHAR 0075
ENCODING 117
SWIDTH 600 0
DWIDTH 60 0
BBX 45 54 8 -1
BITMAP
FFF000007FF8
FFF000007FF8
FFF000007FF8
FFF000007FF8
FFF000007FF8
FFF000007FF8
FFF000007FF8
FFF000007FF8
FFF000007FF8
FFF000007FF8
FFF000007FF8
FFF000007FF8
FFF000007FF8
FFF000007FF8
FFF000007FF8
FFF000007FF8
FFF000007FF8
FFF000007FF8
FFF000007FF8
FFF000007FF8
FFF000007FF8
FFF000007FF8
FFF000007FF8
FFF000007FF8
FFF000007FF8
FFF000007FF8
FFF000007FF8
FFF000007FF8
FFF000007FF8
FFF000007FF8
FFF000007FF8
FFF000007FF8
FFF000007FF8
FFF000007FF8
FFF000007FF8
FFF000007FF8
FFF000007FF8
FFF000007FF8
7FF000007FF8
7FF80000FFF8
7FF80001FFF8
7FFC0003FFF8
3FFC0007FFF8
3FFF001FFFF8
3FFFF3FFFFF8
1FFFFFFFFFF8
1FFFFFFFBFF8
0FFFFFFF3FF8
07FFFFFE3FF8
03FFFFFC3FF8
01FFFFF83FF8
00FFFFF03FF8
003FFFC03FF8
0003FE000000
ENDCHAR
STARTCHAR 0076
ENCODING 118
SWIDTH 600 0
DWIDTH 60 0
BBX 52 53 4 0
BITMAP
FFF0000000FFF0
7FF8000001FFE0
7FF8000001FFE0
7FF8000001FFC0
3FFC000003FFC0
3FFC000003FFC0
1FFC000003FF80
1FFE000007FF80
1FFE000007FF00
0FFE000007FF00
0FFF00000FFF00
07FF00000FFE00
07FF00000FFE00
07FF80001FFC00
03FF80001FFC00
03FF80001FFC00
01FFC0003FF800
01FFC0003FF800
01FFC0007FF800
00FFE0007FF000
00FFE0007FF000
007FE000FFE000
007FF000FFE000
007FF000FFE000
003FF801FFC000
003FF801FFC000
001FF801FF8000
001FFC03FF8000
001FFC03FF8000
000FFC03FF0000
000FFE07FF0000
0007FE07FE0000
0007FE07FE0000
0007FF0FFE0000
0003FF0FFC0000
0003FF0FFC0000
0003FF9FFC0000
0001FF9FF80000
0001FF9FF80000
0000FF9FF00000
0000FFFFF00000
0000FFFFF00000
00007FFFE00000
00007FFFE00000
00003FFFC00000
00003FFFC00000
00003FFFC00000
00001FFF800000
00001FFF800000
00000FFF000000
00000FFF000000
00000FFF000000
000007FE000000
ENDCHAR
STARTCHAR 0077
ENCODING 119
SWIDTH 600 0
DWIDTH 60 0
BBX 56 53 2 0
BITMAP
FFC000FF0007FF
FFC000FF0007FF
FFE001FF0007FF
FFE001FF0007FE
7FE001FF8007FE
7FE001FF8007FE
7FE001FF8007FE
7FE003FF800FFE
7FF003FFC00FFC
3FF003FFC00FFC
3FF003FFC00FFC
3FF003FFC00FFC
3FF007FFC00FFC
3FF007FFE00FF8
1FF007FFE01FF8
1FF807FFE01FF8
1FF807FFE01FF8
1FF80FFFE01FF8
1FF80FEFF01FF0
0FF80FEFF01FF0
0FF80FE7F03FF0
0FF81FE7F03FF0
0FFC1FE7F03FF0
0FFC1FC7F83FE0
07FC1FC7F83FE0
07FC1FC3F83FE0
07FC3FC3F83FE0
07FC3F83FC7FE0
07FE3F83FC7FC0
03FE3F81FC7FC0
03FE3F81FC7FC0
03FE7F81FC7FC0
03FE7F01FE7FC0
03FE7F01FE7FC0
03FE7F00FEFF80
01FFFF00FEFF80
01FFFE00FEFF80
01FFFE00FFFF80
01FFFE007FFF80
01FFFE007FFF00
00FFFE007FFF00
00FFFC007FFF00
00FFFC003FFF00
00FFFC003FFF00
00FFFC003FFE00
007FFC003FFE00
007FF8003FFE00
007FF8001FFE00
007FF8001FFE00
007FF8001FFC00
003FF0001FFC00
003FF0000FFC00
003FF0000FFC00
ENDCHAR
STARTCHAR 0078
ENCODING 120
SWIDTH 600 0
DWIDTH 60 0
BBX 52 53 5 0
BITMAP
FFFC000003FFE0
7FFC000007FFC0
3FFE00000FFF80
1FFF00000FFF80
0FFF00001FFF00
0FFF80003FFE00
07FFC0003FFE00
03FFC0007FFC00
03FFE000FFF800
01FFF000FFF000
00FFF801FFF000
007FF803FFE000
007FFC07FFC000
003FFE07FFC000
001FFE0FFF8000
001FFF1FFF0000
000FFF9FFE0000
0007FFBFFE0000
0003FFFFFC0000
0003FFFFF80000
0001FFFFF80000
0000FFFFF00000
0000FFFFE00000
00007FFFC00000
00003FFFC00000
00001FFF800000
00001FFF800000
00003FFFC00000
00007FFFC00000
00007FFFE00000
0000FFFFF00000
0001FFFFF00000
0003FFFFF80000
0003FFFFFC0000
0007FFFFFE0000
000FFF9FFE0000
000FFF1FFF0000
001FFF0FFF8000
003FFE07FF8000
007FFC07FFC000
007FFC03FFE000
00FFF801FFF000
01FFF001FFF000
01FFE000FFF800
03FFE0007FFC00
07FFC0003FFC00
0FFF80003FFE00
0FFF80001FFF00
1FFF00000FFF80
3FFE00000FFF80
3FFE000007FFC0
7FFC000003FFE0
FFF8000001FFF0
ENDCHAR
STARTCHAR 0079
ENCODING 121
SWIDTH 600 0
DWIDTH 60 0
BBX 55 74 3 -21
BITMAP
FFF80000003FFE
7FF80000003FFE
7FFC0000007FFC
7FFC0000007FFC
3FFE0000007FF8
3FFE000000FFF8
1FFE000000FFF0
1FFF000001FFF0
0FFF000001FFF0
0FFF800001FFE0
07FF800003FFE0
07FF800003FFC0
07FFC00003FFC0
03FFC00007FF80
03FFE00007FF80
01FFE0000FFF00
01FFE0000FFF00
00FFF0000FFF00
00FFF0001FFE00
007FF8001FFE00
007FF8003FFC00
007FF8003FFC00
003FFC003FF800
003FFC007FF800
001FFE007FF800
001FFE00FFF000
000FFE00FFF000
000FFF00FFE000
0007FF01FFE000
0007FF81FFC000
0007FF81FFC000
0003FF83FF8000
0003FFC3FF8000
0001FFC7FF8000
0001FFC7FF0000
0000FFE7FF0000
0000FFEFFE0000
00007FEFFE0000
00007FFFFC0000
00007FFFFC0000
00003FFFF80000
00003FFFF80000
00001FFFF80000
00001FFFF00000
00000FFFF00000
00000FFFE00000
00000FFFE00000
000007FFC00000
000007FFC00000
000003FFC00000
000003FF800000
000003FF800000
000007FF000000
000007FF000000
00000FFE000000
00000FFE000000
00001FFC000000
00001FFC000000
00003FFC000000
00003FF8000000
00007FF8000000
0000FFF0000000
0001FFF0000000
0003FFE0000000
001FFFE0000000
03FFFFC0000000
03FFFF80000000
03FFFF00000000
03FFFF00000000
03FFFE00000000
07FFF800000000
07FFF000000000
07FFC000000000
03FE0000000000
ENDCHAR
STARTCHAR 007A
ENCODING 122
SWIDTH 600 0
DWIDTH 60 0
BBX 47 53 7 0
BITMAP
FFFFFFFFFFFC
FFFFFFFFFFFC
FFFFFFFFFFFC
FFFFFFFFFFFC
FFFFFFFFFFFC
FFFFFFFFFFFC
FFFFFFFFFFFC
FFFFFFFFFFFC
FFFFFFFFFFF8
00000003FFF0
00000007FFE0
0000000FFFC0
0000001FFF80
0000001FFF80
0000003FFF00
0000007FFE00
000000FFFC00
000001FFF800
000003FFF000
000003FFF000
000007FFE000
00000FFFC000
00001FFF8000
00003FFF0000
00007FFE0000
0000FFFE0000
0000FFFC0000
0001FFF80000
0003FFF00000
0007FFE00000
000FFFC00000
001FFF800000
001FFF800000
003FFF000000
007FFE000000
00FFFC000000
01FFF8000000
03FFF0000000
03FFF0000000
07FFE0000000
0FFFC0000000
1FFF80000000
3FFF00000000
7FFE00000000
FFFFFFFFFFFE
FFFFFFFFFFFE
FFFFFFFFFFFE
FFFFFFFFFFFE
FFFFFFFFFFFE
FFFFFFFFFFFE
FFFFFFFFFFFE
FFFFFFFFFFFE
FFFFFFFFFFFE
ENDCHAR
STARTCHAR 007B
ENCODING 123
SWIDTH 600 0
DWIDTH 60 0
BBX 33 96 15 -18
BITMAP
0000001F00
000000FF00
000001FF00
000007FF80
00000FFF80
00001FFF80
00003FFF80
00007FFC00
00007FF000
0000FFE000
0000FFC000
0001FFC000
0001FF8000
0001FF8000
0003FF8000
0003FF8000
0003FF8000
0003FF8000
0003FF0000
0007FF0000
0007FF0000
0007FF0000
0007FF0000
0007FF0000
0007FF0000
0007FF0000
0007FF0000
0007FF0000
0007FF0000
0007FF0000
0007FF0000
0007FF0000
0007FF0000
0007FF0000
0007FF0000
0007FF0000
0007FF0000
000FFE0000
000FFE0000
001FFE0000
001FFC0000
003FFC0000
00FFF80000
07FFF00000
FFFFE00000
FFFFC00000
FFFF800000
FFFE000000
FFF8000000
FFFE000000
FFFF800000
FFFFC00000
FFFFE00000
07FFF00000
00FFF80000
003FFC0000
001FFC0000
001FFE0000
000FFE0000
000FFF0000
0007FF0000
0007FF0000
0007FF0000
0007FF0000
0007FF0000
0007FF0000
0007FF0000
0007FF0000
0007FF0000
0007FF0000
0007FF0000
0007FF0000
0007FF0000
0007FF0000
0007FF0000
0007FF0000
0007FF0000
0003FF8000
0003FF8000
0003FF8000
0003FF8000
0003FF8000
0001FFC000
0001FFC000
0000FFC000
0000FFE000
0000FFF000
00007FF800
00003FFC00
00003FFF80
00001FFF80
00000FFF80
000007FF80
000001FF00
0000007F00
0000000F00
ENDCHAR
STARTCHAR 007C
ENCODING 124
SWIDTH 600 0
DWIDTH 60 0
BBX 8 91 26 -20
BITMAP
FF
FF
FF
FF
FF
FF
FF
FF
FF
FF
FF
FF
FF
FF
FF
FF
FF
FF
FF
FF
FF
FF
FF
FF
FF
FF
FF
FF
FF
FF
FF
FF
FF
FF
FF
FF
FF
FF
FF
FF
FF
FF
FF
FF
FF
FF
FF
FF
FF
FF
FF
FF
FF
FF
FF
FF
FF
FF
FF
FF
FF
FF
FF
FF
FF
FF
FF
FF
FF
FF
FF
FF
FF
FF
FF
FF
FF
FF
FF
FF
FF
FF
FF
FF
FF
FF
FF
FF
FF
FF
FF
ENDCHAR
STARTCHAR 007D
ENCODING 125
SWIDTH 600 0
DWIDTH 60 0
BBX 33 96 16 -18
BITMAP
7C00000000
7F80000000
7FE0000000
7FF0000000
FFF8000000
FFFC000000
FFFE000000
1FFF000000
07FF000000
03FF800000
01FF800000
01FFC00000
00FFC00000
00FFC00000
00FFE00000
00FFE00000
007FE00000
007FE00000
007FF00000
007FF00000
007FF00000
007FF00000
007FF00000
007FF00000
007FF00000
007FF00000
007FF00000
007FF00000
007FF00000
007FF00000
007FF00000
007FF00000
007FF00000
007FF00000
007FF00000
007FF00000
007FF00000
003FF80000
003FF80000
003FFC0000
001FFE0000
001FFF0000
000FFF8000
0007FFF000
0003FFFF80
0001FFFF80
0000FFFF80
00003FFF80
00000FFF80
00003FFF80
0000FFFF80
0001FFFF80
0003FFFF80
0007FFF000
000FFF8000
001FFF0000
001FFC0000
003FFC0000
003FF80000
003FF80000
007FF00000
007FF00000
007FF00000
007FF00000
007FF00000
007FF00000
007FF00000
007FF00000
007FF00000
007FF00000
007FF00000
007FF00000
007FF00000
007FF00000
007FF00000
007FF00000
007FF00000
007FF00000
00FFE00000
00FFE00000
00FFE00000
00FFE00000
00FFC00000
01FFC00000
01FFC00000
03FF800000
07FF800000
0FFF000000
1FFE000000
FFFE000000
FFFC000000
FFF8000000
7FF0000000
7FC0000000
7F00000000
7C00000000
ENDCHAR
STARTCHAR 007E
ENCODING 126
SWIDTH 600 0
DWIDTH 60 0
BBX 55 20 2 19
BITMAP
003FF800000000
01FFFE00000000
03FFFF800001F0
07FFFFC00001FE
0FFFFFF00003FE
1FFFFFF80003FE
3FFFFFFC0003FC
3FFFFFFF0007FC
7FFFFFFF800FFC
7FF83FFFE01FFC
7FE00FFFFEFFF8
FFC003FFFFFFF8
FF8001FFFFFFF0
FF80007FFFFFF0
FF00003FFFFFE0
FF00001FFFFFC0
7F000007FFFF80
00000003FFFF00
00000000FFFC00
000000001FF000
ENDCHAR
STARTCHAR 00A0
ENCODING 160
SWIDTH 600 0
DWIDTH 60 0
BBX 0 0 0 0
BITMAP
ENDCHAR
STARTCHAR 00A1
ENCODING 161
SWIDTH 600 0
DWIDTH 60 0
BBX 14 72 24 -18
BITMAP
0FC0
3FE0
7FF0
FFF8
FFF8
FFFC
FFFC
FFFC
FFF8
FFF8
7FF0
3FE0
0FC0
0000
0000
0000
0000
0000
0000
0000
0000
0000
0000
0000
0000
7FF0
7FF0
7FF0
7FF0
7FF0
7FF0
7FF0
7FF0
7FF0
7FF0
7FF0
7FF0
7FF0
7FF0
7FF0
7FF0
7FF0
7FF0
7FF0
7FF0
7FF0
7FF0
7FF0
7FF0
7FF0
7FF0
7FF0
7FF0
7FF0
7FF0
7FF0
7FF0
7FF0
7FF0
7FF0
7FF0
7FF0
7FF0
7FF0
7FF0
7FF0
7FF0
7FF0
7FF0
7FF8
7FF8
7FF8
ENDCHAR
STARTCHAR 00A2
ENCODING 162
SWIDTH 600 0
DWIDTH 60 0
BBX 46 77 7 -12
BITMAP
00001FF80000
00001FF80000
00001FF80000
00001FF80000
00001FF80000
00001FF80000
00001FF80000
00001FF80000
00001FF80000
00001FF80000
00001FF80000
00003FFE0000
0003FFFFC000
000FFFFFF000
001FFFFFFC00
007FFFFFFE00
00FFFFFFFF00
01FFFFFFFF80
03FFFFFFFFC0
07FFFFFFFFE0
07FFF80FFFF0
0FFFC003FFF0
1FFF8000FFF8
1FFF00007FF8
3FFE00007FFC
3FFC00003FFC
3FFC00001FFC
7FF800001FFC
7FF800001FFC
7FF800001FFC
7FF000001FFC
FFF000000000
FFF000000000
FFF000000000
FFF000000000
FFF000000000
FFF000000000
FFF000000000
FFF000000000
FFF000000000
FFF000000000
FFF000000000
FFF000000000
FFF000000000
FFF000000000
FFF000000000
7FF000000000
7FF800000000
7FF800001FFC
7FF800001FFC
3FFC00001FFC
3FFC00001FFC
3FFE00003FFC
1FFF00007FF8
1FFF8000FFF8
0FFFC003FFF0
07FFF80FFFF0
07FFFFFFFFE0
03FFFFFFFFC0
01FFFFFFFF80
00FFFFFFFF00
007FFFFFFE00
001FFFFFFC00
000FFFFFF000
0001FFFFC000
00003FFC0000
00001FF80000
00001FF80000
00001FF80000
00001FF80000
00001FF80000
00001FF80000
00001FF80000
00001FF80000
00001FF80000
00001FF80000
00001FF80000
ENDCHAR
STARTCHAR 00A3
ENCODING 163
SWIDTH 600 0
DWIDTH 60 0
BBX 52 72 5 0
BITMAP
000000FFE00000
000007FFFE0000
00003FFFFF8000
00007FFFFFE000
0001FFFFFFF000
0003FFFFFFF800
0007FFFFFFFC00
000FFFFFFFFE00
001FFFFFFFFF00
001FFFF3FFFF00
003FFF803FFF80
003FFE000FFF80
007FFC0007FFC0
007FF80003FFC0
00FFF80003FFC0
00FFF00001FFC0
00FFF00001FFE0
00FFF00001FFE0
00FFF00001FFE0
00FFE000000000
00FFE000000000
00FFE000000000
00FFE000000000
00FFE000000000
00FFE000000000
00FFF000000000
00FFF000000000
00FFF000000000
00FFF000000000
00FFF000000000
00FFF000000000
00FFF000000000
00FFF000000000
FFFFFFFFE00000
FFFFFFFFE00000
FFFFFFFFE00000
FFFFFFFFE00000
FFFFFFFFE00000
FFFFFFFFE00000
FFFFFFFFE00000
FFFFFFFFE00000
FFFFFFFFE00000
00FFF000000000
00FFF000000000
00FFF000000000
00FFF000000000
00FFF000000000
00FFF000000000
007FF000000000
007FF000000000
007FF000000000
007FF000000000
007FF000000000
007FF000000000
00FFF000000000
00FFF000000000
00FFF000000000
00FFF000000000
00FFE000000000
01FFE000000000
01FFE000000000
03FFC000000000
07FF8000000000
7FFFFFFFFFFFF0
7FFFFFFFFFFFF0
7FFFFFFFFFFFF0
7FFFFFFFFFFFF0
7FFFFFFFFFFFF0
7FFFFFFFFFFFF0
7FFFFFFFFFFFF0
7FFFFFFFFFFFF0
7FFFFFFFFFFFF0
ENDCHAR
STARTCHAR 00A4
ENCODING 164
SWIDTH 600 0
DWIDTH 60 0
BBX 52 54 5 -1
BITMAP
00000000000800
06000000000C00
070007FC001E00
0F807FFF803F00
1FC1FFFFF07F00
3FE7FFFFFCFF80
7FFFFFFFFFFFC0
FFFFFFFFFFFFF0
FFFFFFFFFFFFE0
7FFFFFFFFFFFC0
3FFFFFFFFFFF80
1FFFFFBFFFFF00
0FFFF001FFFE00
07FFC0007FFC00
07FF80003FFC00
0FFE00001FFE00
0FFC00000FFE00
1FFC000007FE00
1FF8000003FF00
1FF0000003FF00
3FF0000001FF80
3FE0000001FF80
3FE0000000FF80
3FE0000000FF80
7FE0000000FF80
7FC0000000FF80
7FC0000000FFC0
7FC00000007FC0
7FC00000007FC0
7FC0000000FFC0
7FC0000000FF80
7FE0000000FF80
3FE0000000FF80
3FE0000000FF80
3FF0000001FF80
3FF0000001FF80
1FF0000003FF00
1FF8000003FF00
1FFC000007FF00
0FFC00000FFE00
0FFE00001FFE00
07FF80003FFC00
0FFFC0007FFE00
1FFFF001FFFF00
3FFFFFBFFFFF80
7FFFFFFFFFFFC0
FFFFFFFFFFFFE0
FFFFFFFFFFFFF0
7FFFFFFFFFFFC0
3FEFFFFFFEFF80
1FC7FFFFFC7F00
0F81FFFFF03E00
07007FFFC01C00
020007FC000800
ENDCHAR
STARTCHAR 00A5
ENCODING 165
SWIDTH 600 0
DWIDTH 60 0
BBX 58 71 1 0
BITMAP
FFFC00000007FFC0
7FFC0000000FFF80
3FFE0000000FFF80
3FFE0000001FFF00
1FFF0000001FFF00
1FFF0000003FFE00
0FFF8000003FFE00
0FFF8000007FFC00
07FFC000007FF800
03FFC00000FFF800
03FFE00000FFF000
01FFE00001FFF000
01FFF00001FFE000
00FFF00003FFE000
00FFF80003FFC000
007FF80007FFC000
007FFC0007FF8000
003FFC000FFF0000
001FFE000FFF0000
001FFE001FFE0000
000FFF001FFE0000
000FFF003FFC0000
0007FF803FFC0000
0007FF807FF80000
0003FFC07FF80000
0003FFC0FFF00000
0001FFE0FFE00000
0000FFE1FFE00000
0000FFF1FFC00000
00007FF3FFC00000
00007FFBFF800000
00003FFFFF800000
00003FFFFF000000
00001FFFFF000000
00001FFFFE000000
03FFFFFFFFFFF000
03FFFFFFFFFFF000
03FFFFFFFFFFF000
03FFFFFFFFFFF000
03FFFFFFFFFFF000
03FFFFFFFFFFF000
03FFFFFFFFFFF000
000001FFE0000000
000001FFE0000000
000001FFE0000000
000001FFE0000000
000001FFE0000000
000001FFE0000000
000001FFE0000000
03FFFFFFFFFFF000
03FFFFFFFFFFF000
03FFFFFFFFFFF000
03FFFFFFFFFFF000
03FFFFFFFFFFF000
03FFFFFFFFFFF000
03FFFFFFFFFFF000
000001FFE0000000
000001FFE0000000
000001FFE0000000
000001FFE0000000
000001FFE0000000
000001FFE0000000
000001FFE0000000
000001FFE0000000
000001FFE0000000
000001FFE0000000
000001FFE0000000
000001FFE0000000
000001FFE0000000
000001FFE0000000
000001FFE0000000
ENDCHAR
STARTCHAR 00A6
ENCODING 166
SWIDTH 600 0
DWIDTH 60 0
BBX 11 84 24 -13
BITMAP
FFE0
FFE0
FFE0
FFE0
FFE0
FFE0
FFE0
FFE0
FFE0
FFE0
FFE0
FFE0
FFE0
FFE0
FFE0
FFE0
FFE0
FFE0
FFE0
FFE0
FFE0
FFE0
FFE0
FFE0
FFE0
FFE0
FFE0
FFE0
FFE0
FFE0
FFE0
FFE0
FFE0
FFE0
FFE0
FFE0
FFE0
0000
0000
0000
0000
0000
0000
0000
0000
FFE0
FFE0
FFE0
FFE0
FFE0
FFE0
FFE0
FFE0
FFE0
FFE0
FFE0
FFE0
FFE0
FFE0
FFE0
FFE0
FFE0
FFE0
FFE0
FFE0
FFE0
FFE0
FFE0
FFE0
FFE0
FFE0
FFE0
FFE0
FFE0
FFE0
FFE0
FFE0
FFE0
FFE0
FFE0
FFE0
FFE0
FFE0
FFE0
ENDCHAR
STARTCHAR 00A7
ENCODING 167
SWIDTH 600 0
DWIDTH 60 0
BBX 53 95 4 -23
BITMAP
00000FFF800000
0000FFFFF80000
0007FFFFFF0000
001FFFFFFFC000
003FFFFFFFF000
00FFFFFFFFF800
01FFFFFFFFFC00
03FFFFFFFFFE00
07FFFFFFFFFF00
07FFFF8FFFFF00
0FFFF0007FFF80
0FFFC0001FFFC0
1FFF00000FFFC0
1FFE000007FFC0
1FFE000003FFE0
3FFC000003FFE0
3FFC000001FFE0
3FFC000001FFE0
3FFC000000FFE0
3FFC000000FFE0
3FFC000000FFE0
3FFC0000000000
3FFE0000000000
1FFF0000000000
1FFF8000000000
1FFFC000000000
0FFFF800000000
0FFFFE00000000
07FFFFE0000000
07FFFFFC000000
03FFFFFF800000
01FFFFFFF00000
00FFFFFFFE0000
01FFFFFFFF8000
03FFFFFFFFE000
07FFFFFFFFF800
0FFFFFFFFFFC00
1FFFBFFFFFFE00
3FFE07FFFFFF00
3FFC00FFFFFF80
7FF8000FFFFFC0
7FF80001FFFFC0
7FF000007FFFE0
7FF000001FFFE0
FFF0000007FFF0
FFF0000003FFF0
FFF0000001FFF0
FFF0000000FFF0
FFF00000007FF0
7FF80000007FF0
7FF80000007FF8
7FFE0000007FF0
7FFF0000007FF0
3FFFC000007FF0
3FFFF00000FFF0
1FFFFE0000FFF0
0FFFFFE001FFE0
0FFFFFFC03FFE0
07FFFFFF87FFC0
01FFFFFFFFFF80
00FFFFFFFFFF00
007FFFFFFFFE00
001FFFFFFFFC00
0003FFFFFFF000
0000FFFFFFF800
00001FFFFFFC00
000001FFFFFE00
0000003FFFFF00
00000007FFFF80
00000000FFFF80
000000003FFFC0
000000000FFFC0
0000000007FFC0
0000000003FFC0
0000000003FFE0
FFF0000001FFE0
FFF0000001FFE0
FFF0000001FFE0
FFF0000001FFE0
7FF8000001FFE0
7FF8000003FFE0
7FFC000003FFC0
7FFE000007FFC0
3FFF00000FFFC0
3FFFC0003FFF80
1FFFF801FFFF80
0FFFFFFFFFFF00
0FFFFFFFFFFE00
07FFFFFFFFFE00
03FFFFFFFFFC00
00FFFFFFFFF000
007FFFFFFFE000
001FFFFFFF8000
0003FFFFFE0000
00007FFFE00000
ENDCHAR
STARTCHAR 00A8
ENCODING 168
SWIDTH 600 0
DWIDTH 60 0
BBX 35 12 13 60
BITMAP
0F80003E00
3FE000FF80
7FF000FFC0
7FF001FFC0
FFF001FFE0
FFF801FFE0
FFF801FFE0
FFF001FFE0
7FF001FFC0
7FF000FFC0
3FE000FF80
0F80003E00
ENDCHAR
STARTCHAR 00A9
ENCODING 169
SWIDTH 600 0
DWIDTH 60 0
BBX 52 55 4 -1
BITMAP
000007FE000000
00003FFFE00000
0001FFFFF80000
0003FFFFFE0000
000FFFFFFF8000
001FFC01FFC000
007FE0003FE000
00FF00000FF000
01FE000003F800
01F8000001FC00
03F0000000FE00
07E003FC007F00
07C00FFF803F00
0FC03FFFC01F80
1F807FFFE00F80
1F00FFFFF007C0
3F01FE07F807C0
3E01FC01F803E0
3E03F800FC03E0
7C03F000FC03E0
7C03F000FC01F0
7C07E000FC01F0
7807E000FC01F0
7807E0000000F0
7807E0000000F0
F807E0000000F0
F807E0000000F0
F807E0000000F0
F807E0000000F0
F807E0000000F0
7807E0000000F0
7807E0000000F0
7807E000FC01F0
7807E000FC01F0
7C03F000FC01F0
7C03F000FC01E0
3C03F800FC03E0
3E01FC01F803E0
1E01FE07F803C0
1F00FFFFF007C0
1F007FFFF00F80
0F803FFFC00F80
07C00FFF801F00
07C003FC003F00
03E00000007E00
01F0000000FC00
01F8000001F800
00FE000003F000
007F00000FE000
001FE0003FC000
000FFC01FF8000
0003FFFFFE0000
0001FFFFF80000
00003FFFE00000
000007FF000000
ENDCHAR
STARTCHAR 00AA
ENCODING 170
SWIDTH 600 0
DWIDTH 60 0
BBX 33 38 13 34
BITMAP
0007FC0000
003FFF8000
00FFFFE000
03FFFFF000
07FFFFF800
0FFFFFFC00
0FFFFFFC00
1FFC0FFE00
1FF003FE00
1FF003FE00
3FE001FF00
07E001FF00
000001FF00
000001FF00
000001FF00
000001FF00
001FFFFF00
01FFFFFF00
07FFFFFF00
0FFFFFFF00
1FFFFFFF00
3FFFFFFF00
7FF801FF00
7FE001FF00
7FC001FF00
7F8001FF00
FF8001FF00
FF8001FF00
7F8003FF00
7FC00FFF00
7FE03FFF00
7FFFFFFF00
3FFFFFFF00
3FFFFEFF00
1FFFFCFF00
0FFFF8FF80
03FFE0FF80
00FF800000
ENDCHAR
STARTCHAR 00AB
ENCODING 171
SWIDTH 600 0
DWIDTH 60 0
BBX 40 39 9 5
BITMAP
0003FC00FF
0007F801FE
000FF803FE
000FF003FC
001FF007FC
003FE00FF8
007FC01FF0
007FC01FF0
00FF803FE0
01FF007FC0
01FF007FC0
03FE00FF80
07FE01FF80
0FFC03FF00
0FF803FE00
1FF807FE00
3FF00FFC00
7FE01FF800
7FE01FF800
FFC03FF000
FFE03FF800
7FE01FF800
3FF00FFC00
1FF807FE00
1FF807FE00
0FFC03FF00
07FE01FF80
03FE00FF80
03FF00FFC0
01FF007FC0
00FF803FE0
007FC01FF0
007FC01FF0
003FE00FF8
001FF007FC
000FF003FC
000FF803FE
0007F801FE
0003FC00FF
ENDCHAR
STARTCHAR 00AC
ENCODING 172
SWIDTH 600 0
DWIDTH 60 0
BBX 41 20 9 19
BITMAP
FFFFFFFFFF80
FFFFFFFFFF80
FFFFFFFFFF80
FFFFFFFFFF80
FFFFFFFFFF80
FFFFFFFFFF80
FFFFFFFFFF80
FFFFFFFFFF80
00000001FF80
00000001FF80
00000001FF80
00000001FF80
00000001FF80
00000001FF80
00000001FF80
00000001FF80
00000001FF80
00000001FF80
00000001FF80
00000001FF80
ENDCHAR
STARTCHAR 00AD
ENCODING 173
SWIDTH 600 0
DWIDTH 60 0
BBX 39 9 12 27
BITMAP
FFFFFFFFFE
FFFFFFFFFE
FFFFFFFFFE
FFFFFFFFFE
FFFFFFFFFE
FFFFFFFFFE
FFFFFFFFFE
FFFFFFFFFE
FFFFFFFFFE
ENDCHAR
STARTCHAR 00AE
ENCODING 174
SWIDTH 600 0
DWIDTH 60 0
BBX 52 55 4 -1
BITMAP
000007FE000000
00003FFFE00000
0001FFFFF80000
0007FFFFFE0000
000FFFFFFF8000
001FFC01FFC000
007FC0003FE000
00FF00000FF000
01FE000003F800
01F8000001FC00
03F0000000FE00
07E1FFFC003E00
0FC1FFFF803F00
0F81FFFFE01F80
1F81FFFFF00F80
1F01FFFFF007C0
3E01F803F807C0
3E01F801F803E0
3C01F800FC03E0
7C01F800FC03E0
7C01F800FC01E0
7801F800FC01F0
7801F800F801F0
7801F801F801F0
F801F807F800F0
F801FFFFF000F0
F801FFFFE000F0
F801FFFF8000F0
F801FFFE0000F0
F801FFFF0000F0
F801F81F0000F0
7801F80F8001F0
7801F80F8001F0
7801F80FC001F0
7C01F807C001E0
7C01F807E003E0
3C01F803E003E0
3E01F803F003E0
3E01F801F007C0
1F01F801F807C0
1F81F800F80F80
0F81F800FC1F80
0FC00000003F00
07E00000007E00
03F0000000FE00
01F8000001FC00
01FE000003F800
00FF00000FF000
007FC0003FE000
001FFC01FFC000
000FFFFFFF8000
0007FFFFFE0000
0001FFFFF80000
00003FFFE00000
000007FE000000
ENDCHAR
STARTCHAR 00AF
ENCODING 175
SWIDTH 600 0
DWIDTH 60 0
BBX 35 8 13 63
BITMAP
FFFFFFFFE0
FFFFFFFFE0
FFFFFFFFE0
FFFFFFFFE0
FFFFFFFFE0
FFFFFFFFE0
FFFFFFFFE0
FFFFFFFFE0
ENDCHAR
STARTCHAR 00B0
ENCODING 176
SWIDTH 600 0
DWIDTH 60 0
BBX 26 26 17 46
BITMAP
003F8000
01FFE000
03FFF800
07FFFC00
0FFFFE00
1FFFFF00
3FFFFF00
3FE0FF80
7F807F80
7F003FC0
7F001FC0
7E001FC0
FE001FC0
FE001FC0
7E001FC0
7F001FC0
7F003FC0
7F807F80
3FE0FF80
3FFFFF00
1FFFFF00
0FFFFE00
07FFFC00
03FFF800
01FFE000
003F8000
ENDCHAR
STARTCHAR 00B1
ENCODING 177
SWIDTH 600 0
DWIDTH 60 0
BBX 45 62 7 0
BITMAP
00003FF00000
00003FF00000
00003FF00000
00003FF00000
00003FF00000
00003FF00000
00003FF00000
00003FF00000
00003FF00000
00003FF00000
00003FF00000
00003FF00000
00003FF00000
00003FF00000
00003FF00000
00003FF00000
00003FF00000
00003FF00000
FFFFFFFFFFF8
FFFFFFFFFFF8
FFFFFFFFFFF8
FFFFFFFFFFF8
FFFFFFFFFFF8
FFFFFFFFFFF8
FFFFFFFFFFF8
FFFFFFFFFFF8
FFFFFFFFFFF8
00003FF00000
00003FF00000
00003FF00000
00003FF00000
00003FF00000
00003FF00000
00003FF00000
00003FF00000
00003FF00000
00003FF00000
00003FF00000
00003FF00000
00003FF00000
00003FF00000
00003FF00000
00003FF00000
00003FF00000
00003FF00000
00003FF00000
00003FF00000
000000000000
000000000000
000000000000
000000000000
000000000000
000000000000
3FFFFFFFFFE0
3FFFFFFFFFE0
3FFFFFFFFFE0
3FFFFFFFFFE0
3FFFFFFFFFE0
3FFFFFFFFFE0
3FFFFFFFFFE0
3FFFFFFFFFE0
3FFFFFFFFFE0
ENDCHAR
STARTCHAR 00B2
ENCODING 178
SWIDTH 600 0
DWIDTH 60 0
BBX 31 39 15 33
BITMAP
003FF000
01FFFE00
03FFFF80
0FFFFFC0
1FFFFFE0
3FFFFFF0
3FFFFFF0
7FF03FF8
7FE01FF8
FFC00FF8
FF800FF8
FF800FF8
FF800FF8
00000FF8
00001FF8
00001FF8
00003FF0
00007FF0
0000FFE0
0001FFE0
0003FFC0
0007FF80
000FFF00
001FFE00
003FFC00
007FF000
00FFE000
01FFC000
03FF8000
07FF0000
0FFC0000
1FF80000
7FFFFFFE
7FFFFFFE
7FFFFFFE
7FFFFFFE
7FFFFFFE
7FFFFFFE
7FFFFFFE
ENDCHAR
STARTCHAR 00B3
ENCODING 179
SWIDTH 600 0
DWIDTH 60 0
BBX 31 39 15 32
BITMAP
003FF000
01FFFE00
07FFFF80
0FFFFFE0
1FFFFFF0
3FFFFFF0
7FFFFFF8
7FF03FF8
7FC00FFC
7FC00FFC
7FC007FC
000007FC
000007FC
00000FF8
00001FF8
00003FF0
003FFFE0
003FFFC0
003FFF00
003FFF80
003FFFE0
003FFFF0
00003FF8
00000FFC
000007FC
000007FC
000007FC
FF8007FE
FF8007FC
FFC007FC
FFE00FFC
7FF03FFC
7FFFFFF8
3FFFFFF8
1FFFFFF0
0FFFFFE0
07FFFF80
01FFFE00
003FF000
ENDCHAR
STARTCHAR 00B4
ENCODING 180
SWIDTH 600 0
DWIDTH 60 0
BBX 23 14 19 59
BITMAP
007FFE
00FFFC
00FFF8
01FFF0
03FFE0
03FFC0
07FF80
0FFF00
0FFE00
1FFC00
3FF800
3FF000
7FE000
FFC000
ENDCHAR
STARTCHAR 00B5
ENCODING 181
SWIDTH 600 0
DWIDTH 60 0
BBX 44 73 9 -20
BITMAP
FFE00000FFF0
FFE00000FFF0
FFE00000FFF0
FFE00000FFF0
FFE00000FFF0
FFE00000FFF0
FFE00000FFF0
FFE00000FFF0
FFE00000FFF0
FFE00000FFF0
FFE00000FFF0
FFE00000FFF0
FFE00000FFF0
FFE00000FFF0
FFE00000FFF0
FFE00000FFF0
FFE00000FFF0
FFE00000FFF0
FFE00000FFF0
FFE00000FFF0
FFE00000FFF0
FFE00000FFF0
FFE00000FFF0
FFE00000FFF0
FFE00000FFF0
FFE00000FFF0
FFE00000FFF0
FFE00000FFF0
FFE00000FFF0
FFE00000FFF0
FFE00000FFF0
FFE00000FFF0
FFE00000FFF0
FFE00000FFF0
FFF00000FFF0
FFF00000FFF0
FFF00000FFF0
FFF00000FFF0
FFF00000FFF0
FFF80000FFF0
FFF80001FFF0
FFFC0003FFF0
FFFE0007FFF0
FFFF001FFFF0
FFFFF3FFFFF0
FFFFFFFFFFF0
FFFFFFFFFFF0
FFFFFFFFFFF0
FFFFFFFFFFF0
FFFFFFFF7FF0
FFFFFFFE7FF0
FFEFFFFC7FF0
FFE7FFF07FF0
FFE0FF800000
FFE000000000
FFE000000000
FFE000000000
FFE000000000
FFE000000000
FFE000000000
FFE000000000
FFE000000000
FFE000000000
FFE000000000
FFE000000000
FFE000000000
FFE000000000
FFE000000000
FFE000000000
FFE000000000
FFE000000000
FFE000000000
FFE000000000
ENDCHAR
STARTCHAR 00B6
ENCODING 182
SWIDTH 600 0
DWIDTH 60 0
BBX 39 71 10 0
BITMAP
00001FFFFE
0001FFFFFE
000FFFFFFE
003FFFFFFE
007FFFFFFE
00FFFFFFFE
01FFFFFFFE
03FFFFFFFE
07FFFFFFFE
0FFFFFFFFE
1FFFFFFFFE
1FFFFFFFFE
3FFFFFFFFE
3FFFFFFFFE
3FFFFFFFFE
7FFFFFFFFE
7FFFFFFFFE
7FFFFFFFFE
7FFFFFFFFE
FFFFFFFFFE
FFFFFFFFFE
FFFFFFFFFE
FFFFFFFFFE
FFFFFFFFFE
FFFFFFFFFE
FFFFFFFFFE
7FFFFFFFFE
7FFFFFFFFE
7FFFFFFFFE
7FFFFFFFFE
7FFFFFFFFE
3FFFFFFFFE
3FFFFFFFFE
3FFFFFFFFE
1FFFFFFFFE
1FFFFFFFFE
0FFFFFFFFE
07FFFFFFFE
03FFFFFFFE
03FFFFFFFE
00FFFFFFFE
007FFFFFFE
003FFFFFFE
000FFFFFFE
0001FFFFFE
00003FFFFE
0000000FFE
0000000FFE
0000000FFE
0000000FFE
0000000FFE
0000000FFE
0000000FFE
0000000FFE
0000000FFE
0000000FFE
0000000FFE
0000000FFE
0000000FFE
0000000FFE
0000000FFE
0000000FFE
0000000FFE
0000000FFE
0000000FFE
0000000FFE
0000000FFE
0000000FFE
0000000FFE
0000000FFE
0000000FFE
ENDCHAR
STARTCHAR 00B7
ENCODING 183
SWIDTH 600 0
DWIDTH 60 0
BBX 14 13 24 29
BITMAP
0FC0
3FF0
7FF8
7FF8
FFFC
FFFC
FFFC
FFFC
FFFC
7FF8
7FF8
3FF0
0FC0
ENDCHAR
STARTCHAR 00B8
ENCODING 184
SWIDTH 600 0
DWIDTH 60 0
BBX 17 22 22 -21
BITMAP
7FC000
7FC000
7F8000
7FF000
FFFC00
FFFE00
FFFE00
07FF00
03FF00
01FF80
01FF80
01FF80
01FF80
03FF00
0FFF00
7FFF00
7FFE00
7FFC00
7FF800
7FF000
7FC000
7C0000
ENDCHAR
STARTCHAR 00B9
ENCODING 185
SWIDTH 600 0
DWIDTH 60 0
BBX 19 39 19 32
BITMAP
000020
0001E0
000FE0
00FFE0
07FFE0
3FFFE0
FFFFE0
FFFFE0
FFFFE0
FFFFE0
FFFFE0
FF3FE0
F03FE0
003FE0
003FE0
003FE0
003FE0
003FE0
003FE0
003FE0
003FE0
003FE0
003FE0
003FE0
003FE0
003FE0
003FE0
003FE0
003FE0
003FE0
003FE0
003FE0
003FE0
003FE0
003FE0
003FE0
003FE0
003FE0
003FE0
ENDCHAR
STARTCHAR 00BA
ENCODING 186
SWIDTH 600 0
DWIDTH 60 0
BBX 34 38 13 34
BITMAP
000FF80000
007FFF8000
01FFFFE000
03FFFFF000
07FFFFF800
0FFFFFFC00
1FFFFFFE00
3FFC0FFF00
3FF003FF00
7FE001FF80
7FC000FF80
7F8000FF80
FF80007FC0
FF80007FC0
FF80007FC0
FF80007FC0
FF80007FC0
FF80007FC0
FF80007FC0
FF80007FC0
FF80007FC0
FF80007FC0
FF80007FC0
FF80007FC0
FF80007FC0
FF80007FC0
7F8000FF80
7FC000FF80
7FE001FF80
3FF003FF00
3FFC0FFF00
1FFFFFFE00
0FFFFFFC00
07FFFFF800
03FFFFF000
01FFFFE000
007FFF8000
000FFC0000
ENDCHAR
STARTCHAR 00BB
ENCODING 187
SWIDTH 600 0
DWIDTH 60 0
BBX 40 39 11 7
BITMAP
FF003FC000
7F801FE000
7FC01FF000
3FE00FF800
1FE007F800
1FF007FC00
0FF803FE00
07FC01FF00
07FC01FF00
03FE00FF80
03FF00FFC0
01FF007FC0
00FF803FE0
00FFC03FF0
007FE01FF8
007FE01FF8
003FF00FFC
001FF807FE
001FFC07FF
000FFC03FF
000FFC03FF
001FF807FE
003FF00FFC
003FF00FFC
007FE01FF8
00FFC03FF0
00FF803FE0
01FF807FE0
01FF007FC0
03FE00FF80
07FC01FF00
07FC01FF00
0FF803FE00
1FF007FC00
1FE007F800
3FE00FF800
3FC00FF000
7F801FE000
FF003FC000
ENDCHAR
STARTCHAR 00BC
ENCODING 188
SWIDTH 600 0
DWIDTH 60 0
BBX 55 72 2 0
BITMAP
00008000000000
00078000000000
003F8000000000
01FF8000000000
0FFF8000000000
7FFF8000000000
FFFF8000000000
FFFF8000000000
FFFF8000000000
FFFF8000000000
FE7F8000000000
E07F8000000000
007F8000040000
007F80000F0000
007F80000FC000
007F80001FE000
007F80001FE000
007F80003FC000
007F80007F8000
007F80007F8000
007F8000FF0000
007F8000FF0000
007F8001FE0000
007F8001FE0000
007F8003FC0000
007F8003FC0000
007F8007F80000
007F8007F80000
007F800FF00000
007F801FE00000
007F801FE00000
007F803FC00000
007F803FC00000
007F807F800000
007F807F800000
000000FF000000
000000FF000000
000001FE003FE0
000001FE003FE0
000003FC007FE0
000007F800FFE0
000007F800FFE0
00000FF001FFE0
00000FF003FFE0
00001FE007FFE0
00001FE007FFE0
00003FC00FFFE0
00003FC01FFFE0
00007F801FDFE0
00007F803FDFE0
0000FF007F9FE0
0001FE00FF1FE0
0001FE00FE1FE0
0003FC01FE1FE0
0003FC03FC1FE0
0007F803F81FE0
0007F807F01FE0
000FF00FE01FE0
0007F01FE01FFE
0001E01FFFFFFE
0000601FFFFFFE
0000001FFFFFFE
0000001FFFFFFE
0000001FFFFFFE
0000001FFFFFFE
00000000001FE0
00000000001FE0
00000000001FE0
00000000001FE0
00000000001FE0
00000000001FE0
00000000001FE0
ENDCHAR
STARTCHAR 00BD
ENCODING 189
SWIDTH 600 0
DWIDTH 60 0
BBX 57 72 1 0
BITMAP
0000800000000000
0007800000000000
003F800000000000
01FF800000000000
0FFF800000000000
7FFF800000000000
FFFF800000000000
FFFF800000000000
FFFF800000000000
FFFF800000000000
FE7F800000000000
E07F800000000000
007F800010000000
007F80003C000000
007F80003F000000
007F80007F800000
007F80007F800000
007F8000FF000000
007F8001FE000000
007F8001FE000000
007F8003FC000000
007F8003FC000000
007F8007F8000000
007F8007F8000000
007F800FF0000000
007F800FF0000000
007F801FE0000000
007F801FE0000000
007F803FC0000000
007F807F80000000
007F807F80000000
007F80FF00000000
007F80FF00000000
007F81FE00000000
007F81FE00000000
000003FC00000000
000003FC00000000
000007F803FF0000
000007F80FFFC000
00000FF03FFFF000
00001FE07FFFF800
00001FE0FFFFFC00
00003FC1FFFFFE00
00003FC1FF87FE00
00007F83FE01FE00
00007F83FC01FF00
0000FF03FC00FF00
0000FF07FC00FF00
0001FE07FC00FF00
0001FE000001FF00
0003FC000001FF00
0007F8000003FE00
0007F8000007FE00
000FF000000FFC00
000FF000001FF800
001FE000003FF000
001FE000007FF000
003FC00000FFE000
001FC00001FF8000
0007800003FF0000
0001800007FE0000
000000000FFC0000
000000001FF80000
000000003FE00000
000000007FC00000
00000001FF800000
00000003FFFFFF80
00000003FFFFFF80
00000003FFFFFF80
00000003FFFFFF80
00000003FFFFFF80
00000003FFFFFF80
ENDCHAR
STARTCHAR 00BE
ENCODING 190
SWIDTH 600 0
DWIDTH 60 0
BBX 58 71 1 0
BITMAP
007FE00000000000
03FFFC0000000000
07FFFF0000000000
1FFFFF8000000000
1FFFFFC000000000
3FFFFFC000000000
7FF9FFE000000000
7FC03FE000000000
7F801FE000000000
7F801FE000000000
00001FE000000000
00001FE000200000
00003FE000780000
00003FC0007E0000
0003FF8000FF0000
003FFF0000FF0000
003FFE0001FE0000
003FFC0003FC0000
003FFF0003FC0000
003FFFC007F80000
0000FFC007F80000
00003FE00FF00000
00001FE00FF00000
00000FF01FE00000
00000FF01FE00000
FF800FF03FC00000
FF801FF03FC00000
7FC01FF07F800000
7FE07FE0FF000000
7FFFFFE0FF000000
3FFFFFC1FE000000
1FFFFF81FE000000
0FFFFF03FC000000
07FFFE03FC000000
00FFF007F8000000
00000007F8000000
0000000FF007FC00
0000000FF007FC00
0000001FE00FFC00
0000003FC01FFC00
0000003FC01FFC00
0000007F803FFC00
0000007F807FFC00
000000FF00FFFC00
000000FF00FFFC00
000001FE01FFFC00
000001FE03FFFC00
000003FC03FBFC00
000003FC07FBFC00
000007F80FF3FC00
00000FF01FE3FC00
00000FF01FC3FC00
00001FE03FC3FC00
00001FE07F83FC00
00003FC07F03FC00
00003FC0FE03FC00
00007F81FC03FC00
00003F83FC03FFC0
00000F03FFFFFFC0
00000303FFFFFFC0
00000003FFFFFFC0
00000003FFFFFFC0
00000003FFFFFFC0
00000003FFFFFFC0
000000000003FC00
000000000003FC00
000000000003FC00
000000000003FC00
000000000003FC00
000000000003FC00
000000000003FC00
ENDCHAR
STARTCHAR 00BF
ENCODING 191
SWIDTH 600 0
DWIDTH 60 0
BBX 42 72 10 -19
BITMAP
00001F000000
00007FC00000
0000FFE00000
0000FFE00000
0000FFF00000
0001FFF00000
0001FFF00000
0001FFF00000
0000FFE00000
0000FFE00000
00007FC00000
00001F000000
000000000000
000000000000
000000000000
000000000000
000000000000
000000000000
000000000000
000000000000
000000000000
0000FFE00000
0000FFE00000
0000FFE00000
0000FFE00000
0000FFE00000
0000FFE00000
0000FFE00000
0001FFE00000
0001FFE00000
0003FFC00000
0007FFC00000
000FFFC00000
001FFF800000
003FFF000000
007FFE000000
00FFFC000000
01FFF8000000
03FFF0000000
07FFE0000000
07FFC0000000
0FFF80000000
1FFF80000000
1FFF00000000
3FFE00000000
3FFC00000000
7FFC00000000
7FF800000000
FFF800000000
FFF000000000
FFF000000000
FFF000000000
FFF000000000
FFE000000000
FFE00003FFC0
FFF00003FFC0
FFF00003FFC0
FFF00003FFC0
FFF00007FF80
FFF80007FF80
7FFC000FFF80
7FFE003FFF00
3FFF80FFFF00
3FFFFFFFFE00
1FFFFFFFFE00
1FFFFFFFFC00
0FFFFFFFF800
07FFFFFFF000
03FFFFFFE000
00FFFFFF8000
003FFFFE0000
0007FFF00000
ENDCHAR
STARTCHAR 00C0
ENCODING 192
SWIDTH 600 0
DWIDTH 60 0
BBX 56 89 3 0
BITMAP
001FFF80000000
000FFF80000000
0007FFC0000000
0003FFE0000000
0001FFE0000000
0000FFF0000000
00007FF8000000
00003FF8000000
00001FFC000000
00000FFE000000
000007FE000000
000003FF000000
000001FF800000
00000000000000
00000000000000
00000000000000
00000000000000
00000000000000
000003FF800000
000003FF800000
000003FFC00000
000007FFC00000
000007FFC00000
000007FFE00000
000007FFE00000
00000FFFE00000
00000FFFF00000
00000FFFF00000
00001FFFF00000
00001FFFF80000
00001FFFF80000
00003FFFF80000
00003FFFFC0000
00003FFFFC0000
00007FFFFC0000
00007FFFFE0000
00007FEFFE0000
0000FFE7FE0000
0000FFE7FE0000
0000FFC7FF0000
0001FFC7FF0000
0001FFC3FF0000
0001FF83FF8000
0003FF83FF8000
0003FF81FF8000
0003FF81FFC000
0007FF01FFC000
0007FF00FFC000
0007FF00FFE000
000FFE00FFE000
000FFE00FFE000
000FFE007FF000
001FFC007FF000
001FFC007FF000
001FFC003FF800
003FFC003FF800
003FF8003FF800
003FF8003FFC00
007FF8001FFC00
007FF0001FFC00
007FF0001FFC00
00FFF0000FFE00
00FFFFFFFFFE00
00FFFFFFFFFE00
01FFFFFFFFFF00
01FFFFFFFFFF00
01FFFFFFFFFF00
01FFFFFFFFFF80
03FFFFFFFFFF80
03FFFFFFFFFF80
03FFFFFFFFFFC0
07FFFFFFFFFFC0
07FF000001FFC0
07FF000001FFE0
0FFF000001FFE0
0FFF000000FFE0
0FFE000000FFF0
1FFE000000FFF0
1FFE0000007FF0
1FFC0000007FF8
3FFC0000007FF8
3FFC0000007FF8
3FFC0000003FFC
7FF80000003FFC
7FF80000003FFC
7FF80000001FFC
FFF00000001FFE
FFF00000001FFE
FFF00000001FFF
ENDCHAR
STARTCHAR 00C1
ENCODING 193
SWIDTH 600 0
DWIDTH 60 0
BBX 56 90 3 0
BITMAP
00000000FFFC00
00000001FFF800
00000001FFF000
00000003FFE000
00000007FFC000
00000007FF8000
0000000FFF0000
0000001FFE0000
0000001FFC0000
0000003FF80000
0000007FF00000
0000007FE00000
000000FFC00000
000001FF800000
00000000000000
00000000000000
00000000000000
00000000000000
00000000000000
000003FF800000
000003FF800000
000003FFC00000
000007FFC00000
000007FFC00000
000007FFE00000
000007FFE00000
00000FFFE00000
00000FFFF00000
00000FFFF00000
00001FFFF00000
00001FFFF80000
00001FFFF80000
00003FFFF80000
00003FFFFC0000
00003FFFFC0000
00007FFFFC0000
00007FFFFE0000
00007FEFFE0000
0000FFE7FE0000
0000FFE7FE0000
0000FFC7FF0000
0001FFC7FF0000
0001FFC3FF0000
0001FF83FF8000
0003FF83FF8000
0003FF81FF8000
0003FF81FFC000
0007FF01FFC000
0007FF00FFC000
0007FF00FFE000
000FFE00FFE000
000FFE00FFE000
000FFE007FF000
001FFC007FF000
001FFC007FF000
001FFC003FF800
003FFC003FF800
003FF8003FF800
003FF8003FFC00
007FF8001FFC00
007FF0001FFC00
007FF0001FFC00
00FFF0000FFE00
00FFFFFFFFFE00
00FFFFFFFFFE00
01FFFFFFFFFF00
01FFFFFFFFFF00
01FFFFFFFFFF00
01FFFFFFFFFF80
03FFFFFFFFFF80
03FFFFFFFFFF80
03FFFFFFFFFFC0
07FFFFFFFFFFC0
07FF000001FFC0
07FF000001FFE0
0FFF000001FFE0
0FFF000000FFE0
0FFE000000FFF0
1FFE000000FFF0
1FFE0000007FF0
1FFC0000007FF8
3FFC0000007FF8
3FFC0000007FF8
3FFC0000003FFC
7FF80000003FFC
7FF80000003FFC
7FF80000001FFC
FFF00000001FFE
FFF00000001FFE
FFF00000001FFF
ENDCHAR
STARTCHAR 00C2
ENCODING 194
SWIDTH 600 0
DWIDTH 60 0
BBX 56 91 3 0
BITMAP
000000FF000000
000001FF800000
000003FFC00000
00000FFFE00000
00001FFFF00000
00003FFFFC0000
00007FFFFE0000
0000FFE7FF0000
0001FFC3FF8000
0003FF01FFC000
0007FE00FFE000
001FFC003FF000
001FF8001FF800
00000000000000
00000000000000
00000000000000
00000000000000
00000000000000
00000000000000
00000000000000
000003FF800000
000003FF800000
000003FFC00000
000007FFC00000
000007FFC00000
000007FFE00000
000007FFE00000
00000FFFE00000
00000FFFF00000
00000FFFF00000
00001FFFF00000
00001FFFF80000
00001FFFF80000
00003FFFF80000
00003FFFFC0000
00003FFFFC0000
00007FFFFC0000
00007FFFFE0000
00007FEFFE0000
0000FFE7FE0000
0000FFE7FE0000
0000FFC7FF0000
0001FFC7FF0000
0001FFC3FF0000
0001FF83FF8000
0003FF83FF8000
0003FF81FF8000
0003FF81FFC000
0007FF01FFC000
0007FF00FFC000
0007FF00FFE000
000FFE00FFE000
000FFE00FFE000
000FFE007FF000
001FFC007FF000
001FFC007FF000
001FFC003FF800
003FFC003FF800
003FF8003FF800
003FF8003FFC00
007FF8001FFC00
007FF0001FFC00
007FF0001FFC00
00FFF0000FFE00
00FFFFFFFFFE00
00FFFFFFFFFE00
01FFFFFFFFFF00
01FFFFFFFFFF00
01FFFFFFFFFF00
01FFFFFFFFFF80
03FFFFFFFFFF80
03FFFFFFFFFF80
03FFFFFFFFFFC0
07FFFFFFFFFFC0
07FF000001FFC0
07FF000001FFE0
0FFF000001FFE0
0FFF000000FFE0
0FFE000000FFF0
1FFE000000FFF0
1FFE0000007FF0
1FFC0000007FF8
3FFC0000007FF8
3FFC0000007FF8
3FFC0000003FFC
7FF80000003FFC
7FF80000003FFC
7FF80000001FFC
FFF00000001FFE
FFF00000001FFE
FFF00000001FFF
ENDCHAR
STARTCHAR 00C3
ENCODING 195
SWIDTH 600 0
DWIDTH 60 0
BBX 56 92 3 0
BITMAP
00000000010000
00003F0001F000
0000FFE001F800
0003FFF803F800
0007FFFE07F800
0007FFFFFFF800
000FFFFFFFF000
001FFFFFFFF000
001FFFFFFFE000
001FE0FFFFC000
001FC03FFF8000
003F8007FF0000
001F8001FC0000
00008000000000
00000000000000
00000000000000
00000000000000
00000000000000
00000000000000
00000000000000
00000000000000
000003FF800000
000003FF800000
000003FFC00000
000007FFC00000
000007FFC00000
000007FFE00000
000007FFE00000
00000FFFE00000
00000FFFF00000
00000FFFF00000
00001FFFF00000
00001FFFF80000
00001FFFF80000
00003FFFF80000
00003FFFFC0000
00003FFFFC0000
00007FFFFC0000
00007FFFFE0000
00007FEFFE0000
0000FFE7FE0000
0000FFE7FE0000
0000FFC7FF0000
0001FFC7FF0000
0001FFC3FF0000
0001FF83FF8000
0003FF83FF8000
0003FF81FF8000
0003FF81FFC000
0007FF01FFC000
0007FF00FFC000
0007FF00FFE000
000FFE00FFE000
000FFE00FFE000
000FFE007FF000
001FFC007FF000
001FFC007FF000
001FFC003FF800
003FFC003FF800
003FF8003FF800
003FF8003FFC00
007FF8001FFC00
007FF0001FFC00
007FF0001FFC00
00FFF0000FFE00
00FFFFFFFFFE00
00FFFFFFFFFE00
01FFFFFFFFFF00
01FFFFFFFFFF00
01FFFFFFFFFF00
01FFFFFFFFFF80
03FFFFFFFFFF80
03FFFFFFFFFF80
03FFFFFFFFFFC0
07FFFFFFFFFFC0
07FF000001FFC0
07FF000001FFE0
0FFF000001FFE0
0FFF000000FFE0
0FFE000000FFF0
1FFE000000FFF0
1FFE0000007FF0
1FFC0000007FF8
3FFC0000007FF8
3FFC0000007FF8
3FFC0000003FFC
7FF80000003FFC
7FF80000003FFC
7FF80000001FFC
FFF00000001FFE
FFF00000001FFE
FFF00000001FFF
ENDCHAR
STARTCHAR 00C4
ENCODING 196
SWIDTH 600 0
DWIDTH 60 0
BBX 56 89 3 0
BITMAP
0003E0000F8000
000FF8003FE000
001FFC003FF000
001FFC007FF000
003FFC007FF800
003FFE007FF800
003FFE007FF800
003FFC007FF800
001FFC007FF000
001FFC003FF000
000FF8003FE000
0003E0000F8000
00000000000000
00000000000000
00000000000000
00000000000000
00000000000000
00000000000000
000003FF800000
000003FF800000
000003FFC00000
000007FFC00000
000007FFC00000
000007FFE00000
000007FFE00000
00000FFFE00000
00000FFFF00000
00000FFFF00000
00001FFFF00000
00001FFFF80000
00001FFFF80000
00003FFFF80000
00003FFFFC0000
00003FFFFC0000
00007FFFFC0000
00007FFFFE0000
00007FEFFE0000
0000FFE7FE0000
0000FFE7FE0000
0000FFC7FF0000
0001FFC7FF0000
0001FFC3FF0000
0001FF83FF8000
0003FF83FF8000
0003FF81FF8000
0003FF81FFC000
0007FF01FFC000
0007FF00FFC000
0007FF00FFE000
000FFE00FFE000
000FFE00FFE000
000FFE007FF000
001FFC007FF000
001FFC007FF000
001FFC003FF800
003FFC003FF800
003FF8003FF800
003FF8003FFC00
007FF8001FFC00
007FF0001FFC00
007FF0001FFC00
00FFF0000FFE00
00FFFFFFFFFE00
00FFFFFFFFFE00
01FFFFFFFFFF00
01FFFFFFFFFF00
01FFFFFFFFFF00
01FFFFFFFFFF80
03FFFFFFFFFF80
03FFFFFFFFFF80
03FFFFFFFFFFC0
07FFFFFFFFFFC0
07FF000001FFC0
07FF000001FFE0
0FFF000001FFE0
0FFF000000FFE0
0FFE000000FFF0
1FFE000000FFF0
1FFE0000007FF0
1FFC0000007FF8
3FFC0000007FF8
3FFC0000007FF8
3FFC0000003FFC
7FF80000003FFC
7FF80000003FFC
7FF80000001FFC
FFF00000001FFE
FFF00000001FFE
FFF00000001FFF
ENDCHAR
STARTCHAR 00C5
ENCODING 197
SWIDTH 600 0
DWIDTH 60 0
BBX 56 95 3 0
BITMAP
0000007E000000
000001FF800000
000007FFE00000
00000FFFF00000
00001FFFF80000
00001FC3F80000
00003F00FC0000
00003F00FC0000
00003E007C0000
00003E007C0000
00003E007C0000
00003E007C0000
00003F00FC0000
00003F00FC0000
00001FC3F80000
00001FFFF80000
00000FFFF00000
000007FFE00000
000003FFC00000
0000007E000000
00000000000000
00000000000000
00000000000000
00000000000000
000003FF800000
000003FF800000
000003FFC00000
000007FFC00000
000007FFC00000
000007FFE00000
000007FFE00000
00000FFFE00000
00000FFFF00000
00000FFFF00000
00001FFFF00000
00001FFFF80000
00001FFFF80000
00003FFFF80000
00003FFFFC0000
00003FFFFC0000
00007FFFFC0000
00007FFFFE0000
00007FEFFE0000
0000FFE7FE0000
0000FFE7FE0000
0000FFC7FF0000
0001FFC7FF0000
0001FFC3FF0000
0001FF83FF8000
0003FF83FF8000
0003FF81FF8000
0003FF81FFC000
0007FF01FFC000
0007FF00FFC000
0007FF00FFE000
000FFE00FFE000
000FFE00FFE000
000FFE007FF000
001FFC007FF000
001FFC007FF000
001FFC003FF800
003FFC003FF800
003FF8003FF800
003FF8003FFC00
007FF8001FFC00
007FF0001FFC00
007FF0001FFC00
00FFF0000FFE00
00FFFFFFFFFE00
00FFFFFFFFFE00
01FFFFFFFFFF00
01FFFFFFFFFF00
01FFFFFFFFFF00
01FFFFFFFFFF80
03FFFFFFFFFF80
03FFFFFFFFFF80
03FFFFFFFFFFC0
07FFFFFFFFFFC0
07FF000001FFC0
07FF000001FFE0
0FFF000001FFE0
0FFF000000FFE0
0FFE000000FFF0
1FFE000000FFF0
1FFE0000007FF0
1FFC0000007FF8
3FFC0000007FF8
3FFC0000007FF8
3FFC0000003FFC
7FF80000003FFC
7FF80000003FFC
7FF80000001FFC
FFF00000001FFE
FFF00000001FFE
FFF00000001FFF
ENDCHAR
STARTCHAR 00C6
ENCODING 198
SWIDTH 600 0
DWIDTH 60 0
BBX 56 71 2 0
BITMAP
0000007FFFFFFE
0000007FFFFFFE
000000FFFFFFFE
000000FFFFFFFE
000000FFFFFFFE
000001FFFFFFFE
000001FFFFFFFE
000001FFFFFFFE
000003FFFFFFFE
000003FFFF8000
000007FFFF8000
000007FFFF8000
000007FFFF8000
00000FFFFF8000
00000FFFFF8000
00000FFBFF8000
00001FFBFF8000
00001FFBFF8000
00001FF3FF8000
00003FF3FF8000
00003FF3FF8000
00003FF3FF8000
00007FE3FF8000
00007FE3FF8000
0000FFE3FF8000
0000FFC3FF8000
0000FFC3FF8000
0001FFC3FF8000
0001FF83FF8000
0001FF83FF8000
0003FF83FFFFF8
0003FF03FFFFF8
0003FF03FFFFF8
0007FF03FFFFF8
0007FE03FFFFF8
0007FE03FFFFF8
000FFE03FFFFF8
000FFC03FFFFF8
001FFC03FFFFF8
001FFC03FF8000
001FFC03FF8000
003FF803FF8000
003FF803FF8000
003FF803FF8000
007FFFFFFF8000
007FFFFFFF8000
007FFFFFFF8000
00FFFFFFFF8000
00FFFFFFFF8000
01FFFFFFFF8000
01FFFFFFFF8000
01FFFFFFFF8000
03FFFFFFFF8000
03FFFFFFFF8000
03FF8003FF8000
07FF8003FF8000
07FF0003FF8000
07FF0003FF8000
0FFF0003FF8000
0FFE0003FF8000
0FFE0003FF8000
1FFE0003FF8000
1FFE0003FFFFFF
3FFC0003FFFFFF
3FFC0003FFFFFF
3FFC0003FFFFFF
7FF80003FFFFFF
7FF80003FFFFFF
7FF80003FFFFFF
FFF00003FFFFFF
FFF00003FFFFFF
ENDCHAR
STARTCHAR 00C7
ENCODING 199
SWIDTH 600 0
DWIDTH 60 0
BBX 51 93 4 -21
BITMAP
000007FF000000
00007FFFF00000
0001FFFFFC0000
0007FFFFFF0000
000FFFFFFFC000
001FFFFFFFE000
003FFFFFFFF000
007FFFFFFFF800
00FFFFFFFFFC00
01FFFFDFFFFE00
03FFF800FFFE00
03FFE0003FFF00
07FFC0001FFF00
0FFF80000FFF80
0FFF000007FF80
0FFF000007FFC0
1FFE000003FFC0
1FFE000003FFC0
3FFC000001FFC0
3FFC000001FFE0
3FFC000001FFE0
3FF8000001FFE0
7FF8000001FFE0
7FF80000000000
7FF80000000000
7FF80000000000
7FF80000000000
7FF00000000000
7FF00000000000
FFF00000000000
FFF00000000000
FFF00000000000
FFF00000000000
FFF00000000000
FFF00000000000
FFF00000000000
FFF00000000000
FFF00000000000
FFF00000000000
FFF00000000000
FFF00000000000
FFF00000000000
FFF00000000000
7FF00000000000
7FF00000000000
7FF00000000000
7FF80000000000
7FF80000000000
7FF80000000000
7FF80000000000
7FF8000001FFE0
3FF8000001FFE0
3FFC000001FFE0
3FFC000001FFE0
3FFC000001FFE0
1FFE000003FFC0
1FFE000003FFC0
1FFF000007FFC0
0FFF000007FF80
0FFF80000FFF80
07FFC0001FFF00
07FFE0003FFF00
03FFF800FFFE00
01FFFFCFFFFE00
00FFFFFFFFFC00
00FFFFFFFFF800
007FFFFFFFF000
003FFFFFFFE000
000FFFFFFFC000
0007FFFFFF0000
0001FFFFFC0000
00007FFFF00000
000007FF000000
000003FC000000
000003FF800000
000007FFE00000
000007FFF00000
000007FFF00000
0000003FF80000
0000001FF80000
0000000FFC0000
0000000FFC0000
0000000FFC0000
0000000FFC0000
0000001FF80000
0000007FF80000
000003FFF80000
000003FFF00000
000003FFE00000
000003FFC00000
000003FF800000
000003FE000000
000003E0000000
ENDCHAR
STARTCHAR 00C8
ENCODING 200
SWIDTH 600 0
DWIDTH 60 0
BBX 46 89 8 0
BITMAP
03FFF0000000
01FFF0000000
00FFF8000000
007FFC000000
003FFC000000
001FFE000000
000FFF000000
0007FF000000
0003FF800000
0001FFC00000
0000FFC00000
00007FE00000
00003FF00000
000000000000
000000000000
000000000000
000000000000
000000000000
FFFFFFFFFFFC
FFFFFFFFFFFC
FFFFFFFFFFFC
FFFFFFFFFFFC
FFFFFFFFFFFC
FFFFFFFFFFFC
FFFFFFFFFFFC
FFFFFFFFFFFC
FFFFFFFFFFFC
FFF000000000
FFF000000000
FFF000000000
FFF000000000
FFF000000000
FFF000000000
FFF000000000
FFF000000000
FFF000000000
FFF000000000
FFF000000000
FFF000000000
FFF000000000
FFF000000000
FFF000000000
FFF000000000
FFF000000000
FFF000000000
FFF000000000
FFF000000000
FFF000000000
FFFFFFFFFF80
FFFFFFFFFF80
FFFFFFFFFF80
FFFFFFFFFF80
FFFFFFFFFF80
FFFFFFFFFF80
FFFFFFFFFF80
FFFFFFFFFF80
FFFFFFFFFF80
FFF000000000
FFF000000000
FFF000000000
FFF000000000
FFF000000000
FFF000000000
FFF000000000
FFF000000000
FFF000000000
FFF000000000
FFF000000000
FFF000000000
FFF000000000
FFF000000000
FFF000000000
FFF000000000
FFF000000000
FFF000000000
FFF000000000
FFF000000000
FFF000000000
FFF000000000
FFF000000000
FFFFFFFFFFFC
FFFFFFFFFFFC
FFFFFFFFFFFC
FFFFFFFFFFFC
FFFFFFFFFFFC
FFFFFFFFFFFC
FFFFFFFFFFFC
FFFFFFFFFFFC
FFFFFFFFFFFC
ENDCHAR
STARTCHAR 00C9
ENCODING 201
SWIDTH 600 0
DWIDTH 60 0
BBX 46 90 8 0
BITMAP
0000001FFF80
0000003FFF00
0000003FFE00
0000007FFC00
000000FFF800
000000FFF000
000001FFE000
000003FFC000
000003FF8000
000007FF0000
00000FFE0000
00000FFC0000
00001FF80000
00003FF00000
000000000000
000000000000
000000000000
000000000000
000000000000
FFFFFFFFFFFC
FFFFFFFFFFFC
FFFFFFFFFFFC
FFFFFFFFFFFC
FFFFFFFFFFFC
FFFFFFFFFFFC
FFFFFFFFFFFC
FFFFFFFFFFFC
FFFFFFFFFFFC
FFF000000000
FFF000000000
FFF000000000
FFF000000000
FFF000000000
FFF000000000
FFF000000000
FFF000000000
FFF000000000
FFF000000000
FFF000000000
FFF000000000
FFF000000000
FFF000000000
FFF000000000
FFF000000000
FFF000000000
FFF000000000
FFF000000000
FFF000000000
FFF000000000
FFFFFFFFFF80
FFFFFFFFFF80
FFFFFFFFFF80
FFFFFFFFFF80
FFFFFFFFFF80
FFFFFFFFFF80
FFFFFFFFFF80
FFFFFFFFFF80
FFFFFFFFFF80
FFF000000000
FFF000000000
FFF000000000
FFF000000000
FFF000000000
FFF000000000
FFF000000000
FFF000000000
FFF000000000
FFF000000000
FFF000000000
FFF000000000
FFF000000000
FFF000000000
FFF000000000
FFF000000000
FFF000000000
FFF000000000
FFF000000000
FFF000000000
FFF000000000
FFF000000000
FFF000000000
FFFFFFFFFFFC
FFFFFFFFFFFC
FFFFFFFFFFFC
FFFFFFFFFFFC
FFFFFFFFFFFC
FFFFFFFFFFFC
FFFFFFFFFFFC
FFFFFFFFFFFC
FFFFFFFFFFFC
ENDCHAR
STARTCHAR 00CA
ENCODING 202
SWIDTH 600 0
DWIDTH 60 0
BBX 46 91 8 0
BITMAP
00001FE00000
00003FF00000
00007FF80000
0001FFFC0000
0003FFFE0000
0007FFFF8000
000FFFFFC000
001FFCFFE000
003FF87FF000
007FE03FF800
00FFC01FFC00
03FF8007FE00
03FF0003FF00
000000000000
000000000000
000000000000
000000000000
000000000000
000000000000
000000000000
FFFFFFFFFFFC
FFFFFFFFFFFC
FFFFFFFFFFFC
FFFFFFFFFFFC
FFFFFFFFFFFC
FFFFFFFFFFFC
FFFFFFFFFFFC
FFFFFFFFFFFC
FFFFFFFFFFFC
FFF000000000
FFF000000000
FFF000000000
FFF000000000
FFF000000000
FFF000000000
FFF000000000
FFF000000000
FFF000000000
FFF000000000
FFF000000000
FFF000000000
FFF000000000
FFF000000000
FFF000000000
FFF000000000
FFF000000000
FFF000000000
FFF000000000
FFF000000000
FFF000000000
FFFFFFFFFF80
FFFFFFFFFF80
FFFFFFFFFF80
FFFFFFFFFF80
FFFFFFFFFF80
FFFFFFFFFF80
FFFFFFFFFF80
FFFFFFFFFF80
FFFFFFFFFF80
FFF000000000
FFF000000000
FFF000000000
FFF000000000
FFF000000000
FFF000000000
FFF000000000
FFF000000000
FFF000000000
FFF000000000
FFF000000000
FFF000000000
FFF000000000
FFF000000000
FFF000000000
FFF000000000
FFF000000000
FFF000000000
FFF000000000
FFF000000000
FFF000000000
FFF000000000
FFF000000000
FFFFFFFFFFFC
FFFFFFFFFFFC
FFFFFFFFFFFC
FFFFFFFFFFFC
FFFFFFFFFFFC
FFFFFFFFFFFC
FFFFFFFFFFFC
FFFFFFFFFFFC
FFFFFFFFFFFC
ENDCHAR
STARTCHAR 00CB
ENCODING 203
SWIDTH 600 0
DWIDTH 60 0
BBX 46 89 8 0
BITMAP
007C0001F000
01FF0007FC00
03FF8007FE00
03FF800FFE00
07FF800FFF00
07FFC00FFF00
07FFC00FFF00
07FF800FFF00
03FF800FFE00
03FF8007FE00
01FF0007FC00
007C0001F000
000000000000
000000000000
000000000000
000000000000
000000000000
000000000000
FFFFFFFFFFFC
FFFFFFFFFFFC
FFFFFFFFFFFC
FFFFFFFFFFFC
FFFFFFFFFFFC
FFFFFFFFFFFC
FFFFFFFFFFFC
FFFFFFFFFFFC
FFFFFFFFFFFC
FFF000000000
FFF000000000
FFF000000000
FFF000000000
FFF000000000
FFF000000000
FFF000000000
FFF000000000
FFF000000000
FFF000000000
FFF000000000
FFF000000000
FFF000000000
FFF000000000
FFF000000000
FFF000000000
FFF000000000
FFF000000000
FFF000000000
FFF000000000
FFF000000000
FFFFFFFFFF80
FFFFFFFFFF80
FFFFFFFFFF80
FFFFFFFFFF80
FFFFFFFFFF80
FFFFFFFFFF80
FFFFFFFFFF80
FFFFFFFFFF80
FFFFFFFFFF80
FFF000000000
FFF000000000
FFF000000000
FFF000000000
FFF000000000
FFF000000000
FFF000000000
FFF000000000
FFF000000000
FFF000000000
FFF000000000
FFF000000000
FFF000000000
FFF000000000
FFF000000000
FFF000000000
FFF000000000
FFF000000000
FFF000000000
FFF000000000
FFF000000000
FFF000000000
FFF000000000
FFFFFFFFFFFC
FFFFFFFFFFFC
FFFFFFFFFFFC
FFFFFFFFFFFC
FFFFFFFFFFFC
FFFFFFFFFFFC
FFFFFFFFFFFC
FFFFFFFFFFFC
FFFFFFFFFFFC
ENDCHAR
STARTCHAR 00CC
ENCODING 204
SWIDTH 600 0
DWIDTH 60 0
BBX 42 89 9 0
BITMAP
3FFF00000000
1FFF00000000
0FFF80000000
07FFC0000000
03FFC0000000
01FFE0000000
00FFF0000000
007FF0000000
003FF8000000
001FFC000000
000FFC000000
0007FE000000
0003FF000000
000000000000
000000000000
000000000000
000000000000
000000000000
FFFFFFFFFFC0
FFFFFFFFFFC0
FFFFFFFFFFC0
FFFFFFFFFFC0
FFFFFFFFFFC0
FFFFFFFFFFC0
FFFFFFFFFFC0
FFFFFFFFFFC0
FFFFFFFFFFC0
0001FFE00000
0001FFE00000
0001FFE00000
0001FFE00000
0001FFE00000
0001FFE00000
0001FFE00000
0001FFE00000
0001FFE00000
0001FFE00000
0001FFE00000
0001FFE00000
0001FFE00000
0001FFE00000
0001FFE00000
0001FFE00000
0001FFE00000
0001FFE00000
0001FFE00000
0001FFE00000
0001FFE00000
0001FFE00000
0001FFE00000
0001FFE00000
0001FFE00000
0001FFE00000
0001FFE00000
0001FFE00000
0001FFE00000
0001FFE00000
0001FFE00000
0001FFE00000
0001FFE00000
0001FFE00000
0001FFE00000
0001FFE00000
0001FFE00000
0001FFE00000
0001FFE00000
0001FFE00000
0001FFE00000
0001FFE00000
0001FFE00000
0001FFE00000
0001FFE00000
0001FFE00000
0001FFE00000
0001FFE00000
0001FFE00000
0001FFE00000
0001FFE00000
0001FFE00000
0001FFE00000
FFFFFFFFFFC0
FFFFFFFFFFC0
FFFFFFFFFFC0
FFFFFFFFFFC0
FFFFFFFFFFC0
FFFFFFFFFFC0
FFFFFFFFFFC0
FFFFFFFFFFC0
FFFFFFFFFFC0
ENDCHAR
STARTCHAR 00CD
ENCODING 205
SWIDTH 600 0
DWIDTH 60 0
BBX 42 90 9 0
BITMAP
000001FFF800
000003FFF000
000003FFE000
000007FFC000
00000FFF8000
00000FFF0000
00001FFE0000
00003FFC0000
00003FF80000
00007FF00000
0000FFE00000
0000FFC00000
0001FF800000
0003FF000000
000000000000
000000000000
000000000000
000000000000
000000000000
FFFFFFFFFFC0
FFFFFFFFFFC0
FFFFFFFFFFC0
FFFFFFFFFFC0
FFFFFFFFFFC0
FFFFFFFFFFC0
FFFFFFFFFFC0
FFFFFFFFFFC0
FFFFFFFFFFC0
0001FFE00000
0001FFE00000
0001FFE00000
0001FFE00000
0001FFE00000
0001FFE00000
0001FFE00000
0001FFE00000
0001FFE00000
0001FFE00000
0001FFE00000
0001FFE00000
0001FFE00000
0001FFE00000
0001FFE00000
0001FFE00000
0001FFE00000
0001FFE00000
0001FFE00000
0001FFE00000
0001FFE00000
0001FFE00000
0001FFE00000
0001FFE00000
0001FFE00000
0001FFE00000
0001FFE00000
0001FFE00000
0001FFE00000
0001FFE00000
0001FFE00000
0001FFE00000
0001FFE00000
0001FFE00000
0001FFE00000
0001FFE00000
0001FFE00000
0001FFE00000
0001FFE00000
0001FFE00000
0001FFE00000
0001FFE00000
0001FFE00000
0001FFE00000
0001FFE00000
0001FFE00000
0001FFE00000
0001FFE00000
0001FFE00000
0001FFE00000
0001FFE00000
0001FFE00000
0001FFE00000
FFFFFFFFFFC0
FFFFFFFFFFC0
FFFFFFFFFFC0
FFFFFFFFFFC0
FFFFFFFFFFC0
FFFFFFFFFFC0
FFFFFFFFFFC0
FFFFFFFFFFC0
FFFFFFFFFFC0
ENDCHAR
STARTCHAR 00CE
ENCODING 206
SWIDTH 600 0
DWIDTH 60 0
BBX 42 91 9 0
BITMAP
0001FE000000
0003FF000000
0007FF800000
001FFFC00000
003FFFE00000
007FFFF80000
00FFFFFC0000
01FFCFFE0000
03FF87FF0000
07FE03FF8000
0FFC01FFC000
3FF8007FE000
3FF0003FF000
000000000000
000000000000
000000000000
000000000000
000000000000
000000000000
000000000000
FFFFFFFFFFC0
FFFFFFFFFFC0
FFFFFFFFFFC0
FFFFFFFFFFC0
FFFFFFFFFFC0
FFFFFFFFFFC0
FFFFFFFFFFC0
FFFFFFFFFFC0
FFFFFFFFFFC0
0001FFE00000
0001FFE00000
0001FFE00000
0001FFE00000
0001FFE00000
0001FFE00000
0001FFE00000
0001FFE00000
0001FFE00000
0001FFE00000
0001FFE00000
0001FFE00000
0001FFE00000
0001FFE00000
0001FFE00000
0001FFE00000
0001FFE00000
0001FFE00000
0001FFE00000
0001FFE00000
0001FFE00000
0001FFE00000
0001FFE00000
0001FFE00000
0001FFE00000
0001FFE00000
0001FFE00000
0001FFE00000
0001FFE00000
0001FFE00000
0001FFE00000
0001FFE00000
0001FFE00000
0001FFE00000
0001FFE00000
0001FFE00000
0001FFE00000
0001FFE00000
0001FFE00000
0001FFE00000
0001FFE00000
0001FFE00000
0001FFE00000
0001FFE00000
0001FFE00000
0001FFE00000
0001FFE00000
0001FFE00000
0001FFE00000
0001FFE00000
0001FFE00000
0001FFE00000
0001FFE00000
FFFFFFFFFFC0
FFFFFFFFFFC0
FFFFFFFFFFC0
FFFFFFFFFFC0
FFFFFFFFFFC0
FFFFFFFFFFC0
FFFFFFFFFFC0
FFFFFFFFFFC0
FFFFFFFFFFC0
ENDCHAR
STARTCHAR 00CF
ENCODING 207
SWIDTH 600 0
DWIDTH 60 0
BBX 42 89 9 0
BITMAP
03E0000F8000
0FF8003FE000
1FFC003FF000
1FFC007FF000
3FFC007FF800
3FFE007FF800
3FFE007FF800
3FFC007FF800
1FFC007FF000
1FFC003FF000
0FF8003FE000
03E0000F8000
000000000000
000000000000
000000000000
000000000000
000000000000
000000000000
FFFFFFFFFFC0
FFFFFFFFFFC0
FFFFFFFFFFC0
FFFFFFFFFFC0
FFFFFFFFFFC0
FFFFFFFFFFC0
FFFFFFFFFFC0
FFFFFFFFFFC0
FFFFFFFFFFC0
0001FFE00000
0001FFE00000
0001FFE00000
0001FFE00000
0001FFE00000
0001FFE00000
0001FFE00000
0001FFE00000
0001FFE00000
0001FFE00000
0001FFE00000
0001FFE00000
0001FFE00000
0001FFE00000
0001FFE00000
0001FFE00000
0001FFE00000
0001FFE00000
0001FFE00000
0001FFE00000
0001FFE00000
0001FFE00000
0001FFE00000
0001FFE00000
0001FFE00000
0001FFE00000
0001FFE00000
0001FFE00000
0001FFE00000
0001FFE00000
0001FFE00000
0001FFE00000
0001FFE00000
0001FFE00000
0001FFE00000
0001FFE00000
0001FFE00000
0001FFE00000
0001FFE00000
0001FFE00000
0001FFE00000
0001FFE00000
0001FFE00000
0001FFE00000
0001FFE00000
0001FFE00000
0001FFE00000
0001FFE00000
0001FFE00000
0001FFE00000
0001FFE00000
0001FFE00000
0001FFE00000
FFFFFFFFFFC0
FFFFFFFFFFC0
FFFFFFFFFFC0
FFFFFFFFFFC0
FFFFFFFFFFC0
FFFFFFFFFFC0
FFFFFFFFFFC0
FFFFFFFFFFC0
FFFFFFFFFFC0
ENDCHAR
STARTCHAR 00D0
ENCODING 208
SWIDTH 610 0
DWIDTH 61 0
BBX 59 71 -2 0
BITMAP
003FFFFFC0000000
003FFFFFFC000000
003FFFFFFF800000
003FFFFFFFE00000
003FFFFFFFF80000
003FFFFFFFFC0000
003FFFFFFFFF0000
003FFFFFFFFF8000
003FFFFFFFFFC000
003FFC07FFFFE000
003FFC001FFFF000
003FFC0007FFF800
003FFC0001FFF800
003FFC0000FFFC00
003FFC00007FFE00
003FFC00003FFE00
003FFC00001FFF00
003FFC00001FFF00
003FFC00000FFF00
003FFC00000FFF80
003FFC000007FF80
003FFC000007FFC0
003FFC000003FFC0
003FFC000003FFC0
003FFC000003FFC0
003FFC000003FFC0
003FFC000001FFE0
003FFC000001FFE0
003FFC000001FFE0
003FFC000001FFE0
003FFC000001FFE0
FFFFFFFF8001FFE0
FFFFFFFF8001FFE0
FFFFFFFF8001FFE0
FFFFFFFF8001FFE0
FFFFFFFF8001FFE0
FFFFFFFF8001FFE0
FFFFFFFF8001FFE0
FFFFFFFF8001FFE0
003FFC000001FFE0
003FFC000001FFE0
003FFC000001FFE0
003FFC000001FFE0
003FFC000001FFE0
003FFC000001FFE0
003FFC000003FFC0
003FFC000003FFC0
003FFC000003FFC0
003FFC000003FFC0
003FFC000007FFC0
003FFC000007FF80
003FFC000007FF80
003FFC00000FFF80
003FFC00000FFF00
003FFC00001FFF00
003FFC00003FFE00
003FFC00007FFE00
003FFC0000FFFC00
003FFC0001FFF800
003FFC0007FFF800
003FFC001FFFF000
003FFC07FFFFE000
003FFFFFFFFFC000
003FFFFFFFFF8000
003FFFFFFFFF0000
003FFFFFFFFE0000
003FFFFFFFF80000
003FFFFFFFE00000
003FFFFFFF800000
003FFFFFFC000000
003FFFFFC0000000
ENDCHAR
STARTCHAR 00D1
ENCODING 209
SWIDTH 600 0
DWIDTH 60 0
BBX 47 92 6 0
BITMAP
000000002000
0007E0003E00
001FFC003F00
007FFF007F00
00FFFFC0FF00
00FFFFFFFF00
01FFFFFFFE00
03FFFFFFFE00
03FFFFFFFC00
03FC1FFFF800
03F807FFF000
07F000FFE000
03F0003F8000
001000000000
000000000000
000000000000
000000000000
000000000000
000000000000
000000000000
000000000000
FFF800001FFE
FFF800001FFE
FFF800001FFE
FFFC00001FFE
FFFC00001FFE
FFFE00001FFE
FFFE00001FFE
FFFF00001FFE
FFFF00001FFE
FFFF80001FFE
FFFF80001FFE
FFFFC0001FFE
FFFFC0001FFE
FFFFE0001FFE
FFFFE0001FFE
FFFFF0001FFE
FFFFF0001FFE
FFFFF8001FFE
FFFFF8001FFE
FFFFF8001FFE
FFFFFC001FFE
FFFFFC001FFE
FFFFFE001FFE
FFF7FE001FFE
FFF7FF001FFE
FFF3FF001FFE
FFF3FF801FFE
FFF1FF801FFE
FFF1FFC01FFE
FFF0FFC01FFE
FFF0FFE01FFE
FFF07FE01FFE
FFF07FF01FFE
FFF07FF01FFE
FFF03FF81FFE
FFF03FF81FFE
FFF01FF81FFE
FFF01FFC1FFE
FFF00FFC1FFE
FFF00FFE1FFE
FFF007FE1FFE
FFF007FF1FFE
FFF003FF1FFE
FFF003FF9FFE
FFF001FF9FFE
FFF001FFDFFE
FFF000FFDFFE
FFF000FFFFFE
FFF0007FFFFE
FFF0007FFFFE
FFF0003FFFFE
FFF0003FFFFE
FFF0001FFFFE
FFF0001FFFFE
FFF0000FFFFE
FFF0000FFFFE
FFF00007FFFE
FFF00007FFFE
FFF00007FFFE
FFF00003FFFE
FFF00003FFFE
FFF00001FFFE
FFF00001FFFE
FFF00000FFFE
FFF00000FFFE
FFF000007FFE
FFF000007FFE
FFF000003FFE
FFF000003FFE
FFF000001FFE
FFF000001FFE
ENDCHAR
STARTCHAR 00D2
ENCODING 210
SWIDTH 600 0
DWIDTH 60 0
BBX 51 91 4 -1
BITMAP
007FFE00000000
003FFE00000000
001FFF00000000
000FFF80000000
0007FF80000000
0003FFC0000000
0001FFE0000000
0000FFE0000000
00007FF0000000
00003FF8000000
00001FF8000000
00000FFC000000
000007FE000000
00000000000000
00000000000000
00000000000000
00000000000000
00000000000000
000007FE000000
00007FFFC00000
0001FFFFF80000
0007FFFFFC0000
000FFFFFFF0000
003FFFFFFF8000
007FFFFFFFC000
00FFFFFFFFE000
00FFFFFFFFF000
01FFFF1FFFF800
03FFF801FFFC00
03FFE0007FFC00
07FFC0003FFE00
0FFF80001FFE00
0FFF00001FFF00
0FFF00000FFF00
1FFE000007FF80
1FFE000007FF80
3FFC000003FF80
3FFC000003FFC0
3FFC000003FFC0
3FF8000001FFC0
7FF8000001FFC0
7FF8000001FFE0
7FF8000001FFE0
7FF8000001FFE0
7FF8000001FFE0
7FF0000001FFE0
7FF0000000FFE0
FFF0000000FFE0
FFF0000000FFE0
FFF0000000FFE0
FFF0000000FFE0
FFF0000000FFE0
FFF0000000FFE0
FFF0000000FFE0
FFF0000000FFE0
FFF0000000FFE0
FFF0000000FFE0
FFF0000000FFE0
FFF0000000FFE0
FFF0000000FFE0
FFF0000000FFE0
FFF0000000FFE0
7FF0000000FFE0
7FF0000001FFE0
7FF8000001FFE0
7FF8000001FFE0
7FF8000001FFE0
7FF8000001FFE0
7FF8000001FFE0
3FF8000003FFC0
3FFC000003FFC0
3FFC000003FFC0
3FFC000003FF80
1FFE000007FF80
1FFE000007FF80
0FFF00000FFF00
0FFF00001FFF00
0FFF80001FFE00
07FFC0003FFE00
03FFE0007FFC00
03FFF801FFFC00
01FFFFBFFFF800
00FFFFFFFFF000
007FFFFFFFE000
007FFFFFFFC000
001FFFFFFF8000
000FFFFFFF0000
0007FFFFFE0000
0001FFFFF80000
00007FFFE00000
000007FE000000
ENDCHAR
STARTCHAR 00D3
ENCODING 211
SWIDTH 600 0
DWIDTH 60 0
BBX 51 92 4 -1
BITMAP
00000003FFF000
00000007FFE000
00000007FFC000
0000000FFF8000
0000001FFF0000
0000001FFE0000
0000003FFC0000
0000007FF80000
0000007FF00000
000000FFE00000
000001FFC00000
000001FF800000
000003FF000000
000007FE000000
00000000000000
00000000000000
00000000000000
00000000000000
00000000000000
000007FE000000
00007FFFC00000
0001FFFFF80000
0007FFFFFC0000
000FFFFFFF0000
003FFFFFFF8000
007FFFFFFFC000
00FFFFFFFFE000
00FFFFFFFFF000
01FFFF1FFFF800
03FFF801FFFC00
03FFE0007FFC00
07FFC0003FFE00
0FFF80001FFE00
0FFF00001FFF00
0FFF00000FFF00
1FFE000007FF80
1FFE000007FF80
3FFC000003FF80
3FFC000003FFC0
3FFC000003FFC0
3FF8000001FFC0
7FF8000001FFC0
7FF8000001FFE0
7FF8000001FFE0
7FF8000001FFE0
7FF8000001FFE0
7FF0000001FFE0
7FF0000000FFE0
FFF0000000FFE0
FFF0000000FFE0
FFF0000000FFE0
FFF0000000FFE0
FFF0000000FFE0
FFF0000000FFE0
FFF0000000FFE0
FFF0000000FFE0
FFF0000000FFE0
FFF0000000FFE0
FFF0000000FFE0
FFF0000000FFE0
FFF0000000FFE0
FFF0000000FFE0
FFF0000000FFE0
7FF0000000FFE0
7FF0000001FFE0
7FF8000001FFE0
7FF8000001FFE0
7FF8000001FFE0
7FF8000001FFE0
7FF8000001FFE0
3FF8000003FFC0
3FFC000003FFC0
3FFC000003FFC0
3FFC000003FF80
1FFE000007FF80
1FFE000007FF80
0FFF00000FFF00
0FFF00001FFF00
0FFF80001FFE00
07FFC0003FFE00
03FFE0007FFC00
03FFF801FFFC00
01FFFFBFFFF800
00FFFFFFFFF000
007FFFFFFFE000
007FFFFFFFC000
001FFFFFFF8000
000FFFFFFF0000
0007FFFFFE0000
0001FFFFF80000
00007FFFE00000
000007FE000000
ENDCHAR
STARTCHAR 00D4
ENCODING 212
SWIDTH 600 0
DWIDTH 60 0
BBX 51 93 4 -1
BITMAP
000001FE000000
000003FF000000
000007FF800000
00001FFFC00000
00003FFFE00000
00007FFFF80000
0000FFFFFC0000
0001FFCFFE0000
0003FF87FF0000
0007FE03FF8000
000FFC01FFC000
003FF8007FE000
003FF0003FF000
00000000000000
00000000000000
00000000000000
00000000000000
00000000000000
00000000000000
00000000000000
000007FE000000
00007FFFC00000
0001FFFFF80000
0007FFFFFC0000
000FFFFFFF0000
003FFFFFFF8000
007FFFFFFFC000
00FFFFFFFFE000
00FFFFFFFFF000
01FFFF1FFFF800
03FFF801FFFC00
03FFE0007FFC00
07FFC0003FFE00
0FFF80001FFE00
0FFF00001FFF00
0FFF00000FFF00
1FFE000007FF80
1FFE000007FF80
3FFC000003FF80
3FFC000003FFC0
3FFC000003FFC0
3FF8000001FFC0
7FF8000001FFC0
7FF8000001FFE0
7FF8000001FFE0
7FF8000001FFE0
7FF8000001FFE0
7FF0000001FFE0
7FF0000000FFE0
FFF0000000FFE0
FFF0000000FFE0
FFF0000000FFE0
FFF0000000FFE0
FFF0000000FFE0
FFF0000000FFE0
FFF0000000FFE0
FFF0000000FFE0
FFF0000000FFE0
FFF0000000FFE0
FFF0000000FFE0
FFF0000000FFE0
FFF0000000FFE0
FFF0000000FFE0
FFF0000000FFE0
7FF0000000FFE0
7FF0000001FFE0
7FF8000001FFE0
7FF8000001FFE0
7FF8000001FFE0
7FF8000001FFE0
7FF8000001FFE0
3FF8000003FFC0
3FFC000003FFC0
3FFC000003FFC0
3FFC000003FF80
1FFE000007FF80
1FFE000007FF80
0FFF00000FFF00
0FFF00001FFF00
0FFF80001FFE00
07FFC0003FFE00
03FFE0007FFC00
03FFF801FFFC00
01FFFFBFFFF800
00FFFFFFFFF000
007FFFFFFFE000
007FFFFFFFC000
001FFFFFFF8000
000FFFFFFF0000
0007FFFFFE0000
0001FFFFF80000
00007FFFE00000
000007FE000000
ENDCHAR
STARTCHAR 00D5
ENCODING 213
SWIDTH 600 0
DWIDTH 60 0
BBX 51 94 4 -1
BITMAP
00000000020000
00007E0003E000
0001FFC003F000
0007FFF007F000
000FFFFC0FF000
000FFFFFFFF000
001FFFFFFFE000
003FFFFFFFE000
003FFFFFFFC000
003FC1FFFF8000
003F807FFF0000
007F000FFE0000
003F0003F80000
00010000000000
00000000000000
00000000000000
00000000000000
00000000000000
00000000000000
00000000000000
00000000000000
000007FE000000
00007FFFC00000
0001FFFFF80000
0007FFFFFC0000
000FFFFFFF0000
003FFFFFFF8000
007FFFFFFFC000
00FFFFFFFFE000
00FFFFFFFFF000
01FFFF1FFFF800
03FFF801FFFC00
03FFE0007FFC00
07FFC0003FFE00
0FFF80001FFE00
0FFF00001FFF00
0FFF00000FFF00
1FFE000007FF80
1FFE000007FF80
3FFC000003FF80
3FFC000003FFC0
3FFC000003FFC0
3FF8000001FFC0
7FF8000001FFC0
7FF8000001FFE0
7FF8000001FFE0
7FF8000001FFE0
7FF8000001FFE0
7FF0000001FFE0
7FF0000000FFE0
FFF0000000FFE0
FFF0000000FFE0
FFF0000000FFE0
FFF0000000FFE0
FFF0000000FFE0
FFF0000000FFE0
FFF0000000FFE0
FFF0000000FFE0
FFF0000000FFE0
FFF0000000FFE0
FFF0000000FFE0
FFF0000000FFE0
FFF0000000FFE0
FFF0000000FFE0
FFF0000000FFE0
7FF0000000FFE0
7FF0000001FFE0
7FF8000001FFE0
7FF8000001FFE0
7FF8000001FFE0
7FF8000001FFE0
7FF8000001FFE0
3FF8000003FFC0
3FFC000003FFC0
3FFC000003FFC0
3FFC000003FF80
1FFE000007FF80
1FFE000007FF80
0FFF00000FFF00
0FFF00001FFF00
0FFF80001FFE00
07FFC0003FFE00
03FFE0007FFC00
03FFF801FFFC00
01FFFFBFFFF800
00FFFFFFFFF000
007FFFFFFFE000
007FFFFFFFC000
001FFFFFFF8000
000FFFFFFF0000
0007FFFFFE0000
0001FFFFF80000
00007FFFE00000
000007FE000000
ENDCHAR
STARTCHAR 00D6
ENCODING 214
SWIDTH 600 0
DWIDTH 60 0
BBX 51 91 4 -1
BITMAP
0007C0001F0000
001FF0007FC000
003FF8007FE000
003FF800FFE000
007FF800FFF000
007FFC00FFF000
007FFC00FFF000
007FF800FFF000
003FF800FFE000
003FF8007FE000
001FF0007FC000
0007C0001F0000
00000000000000
00000000000000
00000000000000
00000000000000
00000000000000
00000000000000
000007FE000000
00007FFFC00000
0001FFFFF80000
0007FFFFFC0000
000FFFFFFF0000
003FFFFFFF8000
007FFFFFFFC000
00FFFFFFFFE000
00FFFFFFFFF000
01FFFF1FFFF800
03FFF801FFFC00
03FFE0007FFC00
07FFC0003FFE00
0FFF80001FFE00
0FFF00001FFF00
0FFF00000FFF00
1FFE000007FF80
1FFE000007FF80
3FFC000003FF80
3FFC000003FFC0
3FFC000003FFC0
3FF8000001FFC0
7FF8000001FFC0
7FF8000001FFE0
7FF8000001FFE0
7FF8000001FFE0
7FF8000001FFE0
7FF0000001FFE0
7FF0000000FFE0
FFF0000000FFE0
FFF0000000FFE0
FFF0000000FFE0
FFF0000000FFE0
FFF0000000FFE0
FFF0000000FFE0
FFF0000000FFE0
FFF0000000FFE0
FFF0000000FFE0
FFF0000000FFE0
FFF0000000FFE0
FFF0000000FFE0
FFF0000000FFE0
FFF0000000FFE0
FFF0000000FFE0
7FF0000000FFE0
7FF0000001FFE0
7FF8000001FFE0
7FF8000001FFE0
7FF8000001FFE0
7FF8000001FFE0
7FF8000001FFE0
3FF8000003FFC0
3FFC000003FFC0
3FFC000003FFC0
3FFC000003FF80
1FFE000007FF80
1FFE000007FF80
0FFF00000FFF00
0FFF00001FFF00
0FFF80001FFE00
07FFC0003FFE00
03FFE0007FFC00
03FFF801FFFC00
01FFFFBFFFF800
00FFFFFFFFF000
007FFFFFFFE000
007FFFFFFFC000
001FFFFFFF8000
000FFFFFFF0000
0007FFFFFE0000
0001FFFFF80000
00007FFFE00000
000007FE000000
ENDCHAR
STARTCHAR 00D7
ENCODING 215
SWIDTH 600 0
DWIDTH 60 0
BBX 45 46 8 11
BITMAP
010000000200
030000000600
078000000F00
0FC000001F80
1FE000003FC0
3FF000007FE0
7FF80000FFF0
FFFC0001FFF8
7FFE0003FFF8
3FFF0007FFF0
1FFF800FFFE0
0FFFC01FFFC0
07FFE03FFF80
03FFF07FFF00
01FFF8FFFE00
00FFFDFFFC00
007FFFFFF800
003FFFFFF000
001FFFFFE000
000FFFFFC000
0007FFFF8000
0003FFFF0000
0001FFFE0000
0000FFFC0000
0001FFFE0000
0003FFFF0000
0007FFFF8000
000FFFFFC000
001FFFFFE000
003FFFFFF000
007FFFFFF800
00FFFDFFFC00
01FFF8FFFE00
03FFF07FFF00
07FFE03FFF80
0FFFC01FFFC0
1FFF800FFFE0
3FFF0007FFF0
7FFE0003FFF8
FFFC0001FFF8
7FF80000FFF0
3FF000007FE0
1FE000003FC0
0FC000001F80
078000000F00
030000000600
ENDCHAR
STARTCHAR 00D8
ENCODING 216
SWIDTH 600 0
DWIDTH 60 0
BBX 53 78 3 -4
BITMAP
000000000007F8
00000000000FF8
000003FF000FF0
00003FFFE01FE0
0000FFFFFC3FE0
0003FFFFFF3FC0
0007FFFFFFFFC0
001FFFFFFFFF80
003FFFFFFFFF80
007FFFFFFFFF00
007FFFFFFFFE00
00FFFF9FFFFE00
01FFFC01FFFC00
01FFF0007FFE00
03FFE0003FFF00
07FFC0001FFF00
07FF80000FFF80
0FFF00001FFF80
0FFF00001FFF80
0FFE00003FFFC0
1FFE00007FFFC0
1FFE00007FFFE0
1FFC0000FFFFE0
1FFC0000FFFFE0
3FFC0001FEFFE0
3FFC0001FEFFF0
3FFC0003FCFFF0
3FFC0007FCFFF0
3FF80007F8FFF0
3FF8000FF8FFF0
7FF8000FF0FFF0
7FF8001FE0FFF0
7FF8001FE07FF0
7FF8003FC07FF0
7FF8007FC07FF0
7FF8007F807FF0
7FF800FF007FF0
7FF800FF007FF0
7FF801FE007FF0
7FF801FE007FF0
7FF803FC007FF0
7FF807FC007FF0
7FF807F8007FF0
7FF80FF0007FF0
7FF80FF0007FF0
7FF81FE0007FF0
7FF83FE000FFF0
3FF83FC000FFF0
3FF87FC000FFF0
3FF87F8000FFF0
3FFCFF0000FFF0
3FFCFF0000FFF0
3FFDFE0000FFE0
3FFFFE0001FFE0
1FFFFC0001FFE0
1FFFFC0001FFE0
1FFFF80001FFC0
1FFFF00003FFC0
0FFFF00003FFC0
0FFFE00007FF80
07FFE0000FFF80
07FFC0000FFF00
03FFE0001FFF00
03FFF0003FFE00
01FFFC00FFFE00
01FFFFDFFFFC00
01FFFFFFFFF800
03FFFFFFFFF000
03FFFFFFFFE000
07FFFFFFFFC000
07FFFFFFFF8000
0FF3FFFFFF0000
1FF1FFFFFC0000
1FE03FFFF00000
3FC007FF000000
7FC00000000000
7F800000000000
FF000000000000
ENDCHAR
STARTCHAR 00D9
ENCODING 217
SWIDTH 600 0
DWIDTH 60 0
BBX 48 90 6 -1
BITMAP
00FFFC000000
007FFC000000
003FFE000000
001FFF000000
000FFF000000
0007FF800000
0003FFC00000
0001FFC00000
0000FFE00000
00007FF00000
00003FF00000
00001FF80000
00000FFC0000
000000000000
000000000000
000000000000
000000000000
000000000000
FFF000000FFF
FFF000000FFF
FFF000000FFF
FFF000000FFF
FFF000000FFF
FFF000000FFF
FFF000000FFF
FFF000000FFF
FFF000000FFF
FFF000000FFF
FFF000000FFF
FFF000000FFF
FFF000000FFF
FFF000000FFF
FFF000000FFF
FFF000000FFF
FFF000000FFF
FFF000000FFF
FFF000000FFF
FFF000000FFF
FFF000000FFF
FFF000000FFF
FFF000000FFF
FFF000000FFF
FFF000000FFF
FFF000000FFF
FFF000000FFF
FFF000000FFF
FFF000000FFF
FFF000000FFF
FFF000000FFF
FFF000000FFF
FFF000000FFF
FFF000000FFF
FFF000000FFF
FFF000000FFF
FFF000000FFF
FFF000000FFF
FFF000000FFF
FFF000000FFF
FFF000000FFF
FFF000000FFF
FFF000000FFF
FFF000000FFF
FFF000000FFF
FFF000000FFF
FFF000000FFF
FFF000000FFF
FFF000000FFF
FFF000000FFF
FFF000000FFE
7FF000000FFE
7FF800001FFE
7FF800001FFE
7FF800001FFE
7FF800003FFE
3FFC00003FFC
3FFC00007FFC
3FFE00007FF8
1FFF0000FFF8
1FFF8001FFF0
0FFFE007FFF0
07FFFE7FFFE0
07FFFFFFFFE0
03FFFFFFFFC0
01FFFFFFFF80
00FFFFFFFF00
007FFFFFFE00
001FFFFFF800
0007FFFFE000
0001FFFF8000
00003FF80000
ENDCHAR
STARTCHAR 00DA
ENCODING 218
SWIDTH 600 0
DWIDTH 60 0
BBX 48 90 6 -1
BITMAP
00000007FFE0
0000000FFFC0
0000000FFF80
0000001FFF00
0000003FFE00
0000003FFC00
0000007FF800
000000FFF000
000000FFE000
000001FFC000
000003FF8000
000003FF0000
000007FE0000
00000FFC0000
000000000000
000000000000
000000000000
000000000000
FFF000000FFF
FFF000000FFF
FFF000000FFF
FFF000000FFF
FFF000000FFF
FFF000000FFF
FFF000000FFF
FFF000000FFF
FFF000000FFF
FFF000000FFF
FFF000000FFF
FFF000000FFF
FFF000000FFF
FFF000000FFF
FFF000000FFF
FFF000000FFF
FFF000000FFF
FFF000000FFF
FFF000000FFF
FFF000000FFF
FFF000000FFF
FFF000000FFF
FFF000000FFF
FFF000000FFF
FFF000000FFF
FFF000000FFF
FFF000000FFF
FFF000000FFF
FFF000000FFF
FFF000000FFF
FFF000000FFF
FFF000000FFF
FFF000000FFF
FFF000000FFF
FFF000000FFF
FFF000000FFF
FFF000000FFF
FFF000000FFF
FFF000000FFF
FFF000000FFF
FFF000000FFF
FFF000000FFF
FFF000000FFF
FFF000000FFF
FFF000000FFF
FFF000000FFF
FFF000000FFF
FFF000000FFF
FFF000000FFF
FFF000000FFF
FFF000000FFE
7FF000000FFE
7FF800001FFE
7FF800001FFE
7FF800001FFE
7FF800003FFE
3FFC00003FFC
3FFC00007FFC
3FFE00007FF8
1FFF0000FFF8
1FFF8001FFF0
0FFFE007FFF0
07FFFE7FFFE0
07FFFFFFFFE0
03FFFFFFFFC0
01FFFFFFFF80
00FFFFFFFF00
007FFFFFFE00
001FFFFFF800
0007FFFFE000
0001FFFF8000
00003FF80000
ENDCHAR
STARTCHAR 00DB
ENCODING 219
SWIDTH 600 0
DWIDTH 60 0
BBX 48 92 6 -1
BITMAP
000003FC0000
000007FE0000
00000FFF0000
00003FFF8000
00007FFFC000
0000FFFFF000
0001FFFFF800
0003FF9FFC00
0007FF0FFE00
000FFC07FF00
001FF803FF80
007FF000FFC0
007FE0007FE0
000000000000
000000000000
000000000000
000000000000
000000000000
000000000000
000000000000
FFF000000FFF
FFF000000FFF
FFF000000FFF
FFF000000FFF
FFF000000FFF
FFF000000FFF
FFF000000FFF
FFF000000FFF
FFF000000FFF
FFF000000FFF
FFF000000FFF
FFF000000FFF
FFF000000FFF
FFF000000FFF
FFF000000FFF
FFF000000FFF
FFF000000FFF
FFF000000FFF
FFF000000FFF
FFF000000FFF
FFF000000FFF
FFF000000FFF
FFF000000FFF
FFF000000FFF
FFF000000FFF
FFF000000FFF
FFF000000FFF
FFF000000FFF
FFF000000FFF
FFF000000FFF
FFF000000FFF
FFF000000FFF
FFF000000FFF
FFF000000FFF
FFF000000FFF
FFF000000FFF
FFF000000FFF
FFF000000FFF
FFF000000FFF
FFF000000FFF
FFF000000FFF
FFF000000FFF
FFF000000FFF
FFF000000FFF
FFF000000FFF
FFF000000FFF
FFF000000FFF
FFF000000FFF
FFF000000FFF
FFF000000FFF
FFF000000FFE
7FF000000FFE
7FF800001FFE
7FF800001FFE
7FF800001FFE
7FF800003FFE
3FFC00003FFC
3FFC00007FFC
3FFE00007FF8
1FFF0000FFF8
1FFF8001FFF0
0FFFE007FFF0
07FFFE7FFFE0
07FFFFFFFFE0
03FFFFFFFFC0
01FFFFFFFF80
00FFFFFFFF00
007FFFFFFE00
001FFFFFF800
0007FFFFE000
0001FFFF8000
00003FF80000
ENDCHAR
STARTCHAR 00DC
ENCODING 220
SWIDTH 600 0
DWIDTH 60 0
BBX 48 90 6 -1
BITMAP
000F80003E00
003FE000FF80
007FF000FFC0
007FF001FFC0
00FFF001FFE0
00FFF801FFE0
00FFF801FFE0
00FFF001FFE0
007FF001FFC0
007FF000FFC0
003FE000FF80
000F80003E00
000000000000
000000000000
000000000000
000000000000
000000000000
000000000000
FFF000000FFF
FFF000000FFF
FFF000000FFF
FFF000000FFF
FFF000000FFF
FFF000000FFF
FFF000000FFF
FFF000000FFF
FFF000000FFF
FFF000000FFF
FFF000000FFF
FFF000000FFF
FFF000000FFF
FFF000000FFF
FFF000000FFF
FFF000000FFF
FFF000000FFF
FFF000000FFF
FFF000000FFF
FFF000000FFF
FFF000000FFF
FFF000000FFF
FFF000000FFF
FFF000000FFF
FFF000000FFF
FFF000000FFF
FFF000000FFF
FFF000000FFF
FFF000000FFF
FFF000000FFF
FFF000000FFF
FFF000000FFF
FFF000000FFF
FFF000000FFF
FFF000000FFF
FFF000000FFF
FFF000000FFF
FFF000000FFF
FFF000000FFF
FFF000000FFF
FFF000000FFF
FFF000000FFF
FFF000000FFF
FFF000000FFF
FFF000000FFF
FFF000000FFF
FFF000000FFF
FFF000000FFF
FFF000000FFF
FFF000000FFF
FFF000000FFE
7FF000000FFE
7FF800001FFE
7FF800001FFE
7FF800001FFE
7FF800003FFE
3FFC00003FFC
3FFC00007FFC
3FFE00007FF8
1FFF0000FFF8
1FFF8001FFF0
0FFFE007FFF0
07FFFE7FFFE0
07FFFFFFFFE0
03FFFFFFFFC0
01FFFFFFFF80
00FFFFFFFF00
007FFFFFFE00
001FFFFFF800
0007FFFFE000
0001FFFF8000
00003FF80000
ENDCHAR
STARTCHAR 00DD
ENCODING 221
SWIDTH 600 0
DWIDTH 60 0
BBX 56 90 2 0
BITMAP
00000000FFFC00
00000001FFF800
00000001FFF000
00000003FFE000
00000007FFC000
00000007FF8000
0000000FFF0000
0000001FFE0000
0000001FFC0000
0000003FF80000
0000007FF00000
0000007FE00000
000000FFC00000
000001FF800000
00000000000000
00000000000000
00000000000000
00000000000000
00000000000000
FFFC0000001FFF
7FFC0000003FFE
7FFC0000003FFE
3FFE0000007FFC
3FFE0000007FFC
1FFF000000FFF8
1FFF000000FFF8
0FFF800000FFF0
0FFF800001FFF0
07FF800001FFE0
07FFC00003FFE0
03FFC00003FFC0
03FFE00007FFC0
01FFE00007FF80
01FFF00007FF80
00FFF0000FFF00
00FFF0000FFF00
007FF8001FFF00
007FF8001FFE00
003FFC003FFE00
003FFC003FFC00
001FFE007FFC00
001FFE007FF800
000FFF007FF800
000FFF00FFF000
0007FF00FFF000
0007FF81FFE000
0003FF81FFE000
0003FFC3FFC000
0003FFC3FFC000
0001FFE3FF8000
0001FFE7FF8000
0000FFE7FF0000
0000FFFFFF0000
00007FFFFE0000
00007FFFFE0000
00003FFFFC0000
00003FFFFC0000
00001FFFF80000
00001FFFF80000
00000FFFF00000
00000FFFF00000
000007FFE00000
000007FFE00000
000003FFC00000
000003FFC00000
000003FFC00000
000003FFC00000
000003FFC00000
000003FFC00000
000003FFC00000
000003FFC00000
000003FFC00000
000003FFC00000
000003FFC00000
000003FFC00000
000003FFC00000
000003FFC00000
000003FFC00000
000003FFC00000
000003FFC00000
000003FFC00000
000003FFC00000
000003FFC00000
000003FFC00000
000003FFC00000
000003FFC00000
000003FFC00000
000003FFC00000
000003FFC00000
000003FFC00000
ENDCHAR
STARTCHAR 00DE
ENCODING 222
SWIDTH 600 0
DWIDTH 60 0
BBX 49 71 7 0
BITMAP
FFF00000000000
FFF00000000000
FFF00000000000
FFF00000000000
FFF00000000000
FFF00000000000
FFF00000000000
FFF00000000000
FFF00000000000
FFF00000000000
FFF00000000000
FFF00000000000
FFF00000000000
FFF00000000000
FFFFFFFF000000
FFFFFFFFF00000
FFFFFFFFFC0000
FFFFFFFFFF0000
FFFFFFFFFF8000
FFFFFFFFFFC000
FFFFFFFFFFE000
FFFFFFFFFFF000
FFFFFFFFFFF800
FFF0000FFFFC00
FFF00001FFFC00
FFF000007FFE00
FFF000003FFE00
FFF000001FFF00
FFF000000FFF00
FFF000000FFF00
FFF0000007FF80
FFF0000007FF80
FFF0000007FF80
FFF0000007FF80
FFF0000007FF80
FFF0000007FF80
FFF0000007FF80
FFF0000007FF80
FFF0000007FF80
FFF0000007FF80
FFF000000FFF00
FFF000000FFF00
FFF000001FFF00
FFF000003FFE00
FFF000007FFE00
FFF00001FFFC00
FFF0000FFFFC00
FFFFFFFFFFF800
FFFFFFFFFFF000
FFFFFFFFFFE000
FFFFFFFFFFC000
FFFFFFFFFF8000
FFFFFFFFFF0000
FFFFFFFFFC0000
FFFFFFFFF00000
FFFFFFFF000000
FFF00000000000
FFF00000000000
FFF00000000000
FFF00000000000
FFF00000000000
FFF00000000000
FFF00000000000
FFF00000000000
FFF00000000000
FFF00000000000
FFF00000000000
FFF00000000000
FFF00000000000
FFF00000000000
FFF00000000000
ENDCHAR
STARTCHAR 00DF
ENCODING 223
SWIDTH 600 0
DWIDTH 60 0
BBX 48 77 8 -1
BITMAP
0001FFF00000
000FFFFC0000
003FFFFF0000
00FFFFFFC000
01FFFFFFE000
03FFFFFFF000
07FFFFFFF800
0FFFFFFFF800
0FFFFFFFFC00
1FFFC1FFFC00
1FFF007FFE00
3FFE003FFE00
3FFC001FFE00
7FFC001FFE00
7FF8000FFF00
7FF8000FFF00
7FF0000FFF00
FFF0000FFF00
FFF0000FFF00
FFF0000FFF00
FFF0000FFE00
FFF0000FFE00
FFF0001FFE00
FFF0001FFE00
FFF0003FFC00
FFF0003FFC00
FFF0007FF800
FFF0007FF800
FFF000FFF000
FFF000FFF000
FFF001FFE000
FFF001FFE000
FFF003FFC000
FFF003FFC000
FFF003FFC000
FFF003FFC000
FFF003FFC000
FFF003FFC000
FFF003FFC000
FFF001FFE000
FFF001FFF000
FFF001FFF800
FFF000FFF800
FFF000FFFC00
FFF0007FFE00
FFF0007FFF00
FFF0003FFF80
FFF0001FFFC0
FFF0000FFFE0
FFF00007FFF0
FFF00003FFF8
FFF00001FFF8
FFF00000FFFC
FFF000007FFC
FFF000003FFE
FFF000001FFE
FFF000001FFE
FFF000000FFF
FFF000000FFF
FFF000000FFF
FFF000000FFF
FFF000000FFF
FFF000000FFF
FFF000000FFF
FFF040001FFE
FFF030003FFE
FFF07E007FFE
FFF07FF3FFFC
FFF07FFFFFFC
FFF07FFFFFF8
FFF0FFFFFFF8
FFF0FFFFFFF0
FFF0FFFFFFE0
FFF1FFFFFFC0
FFF0FFFFFF00
FFF01FFFFC00
000001FFE000
ENDCHAR
STARTCHAR 00E0
ENCODING 224
SWIDTH 600 0
DWIDTH 60 0
BBX 46 74 7 -1
BITMAP
03FFF0000000
01FFF0000000
00FFF8000000
007FFC000000
003FFC000000
001FFE000000
000FFF000000
0007FF000000
0003FF800000
0001FFC00000
0000FFC00000
00007FE00000
00003FF00000
000000000000
000000000000
000000000000
000000000000
000000000000
000000000000
00007FF00000
0007FFFF0000
003FFFFFC000
007FFFFFF000
01FFFFFFFC00
03FFFFFFFE00
07FFFFFFFF00
0FFFFFFFFF80
1FFFFFFFFF80
1FFFF1FFFFC0
3FFF001FFFE0
3FFE0007FFE0
7FFC0003FFE0
7FF80001FFF0
7FF80000FFF0
7FF00000FFF0
7FF00000FFF0
00000000FFF0
000000007FF0
000000007FF0
000000007FF0
000000007FF0
00007FFFFFF0
000FFFFFFFF0
007FFFFFFFF0
01FFFFFFFFF0
03FFFFFFFFF0
07FFFFFFFFF0
0FFFFFFFFFF0
1FFFF0007FF0
3FFF00007FF0
7FFC00007FF0
7FF800007FF0
FFF000007FF0
FFF000007FF0
FFF000007FF0
FFE000007FF0
FFE000007FF0
FFE000007FF0
FFE00000FFF0
FFF00000FFF0
FFF00001FFF0
FFF80003FFF0
FFF8000FFFF0
FFFE003FFFF0
7FFFE3FFFFF0
7FFFFFFFFFF0
3FFFFFFFFFF8
1FFFFFFFFFF8
0FFFFFFFFFF8
07FFFFFE7FF8
03FFFFFC7FF8
01FFFFF03FFC
003FFFC03FFC
0007FE000000
ENDCHAR
STARTCHAR 00E1
ENCODING 225
SWIDTH 600 0
DWIDTH 60 0
BBX 46 75 7 -1
BITMAP
0000001FFF80
0000003FFF00
0000003FFE00
0000007FFC00
000000FFF800
000000FFF000
000001FFE000
000003FFC000
000003FF8000
000007FF0000
00000FFE0000
00000FFC0000
00001FF80000
00003FF00000
000000000000
000000000000
000000000000
000000000000
000000000000
000000000000
00007FF00000
0007FFFF0000
003FFFFFC000
007FFFFFF000
01FFFFFFFC00
03FFFFFFFE00
07FFFFFFFF00
0FFFFFFFFF80
1FFFFFFFFF80
1FFFF1FFFFC0
3FFF001FFFE0
3FFE0007FFE0
7FFC0003FFE0
7FF80001FFF0
7FF80000FFF0
7FF00000FFF0
7FF00000FFF0
00000000FFF0
000000007FF0
000000007FF0
000000007FF0
000000007FF0
00007FFFFFF0
000FFFFFFFF0
007FFFFFFFF0
01FFFFFFFFF0
03FFFFFFFFF0
07FFFFFFFFF0
0FFFFFFFFFF0
1FFFF0007FF0
3FFF00007FF0
7FFC00007FF0
7FF800007FF0
FFF000007FF0
FFF000007FF0
FFF000007FF0
FFE000007FF0
FFE000007FF0
FFE000007FF0
FFE00000FFF0
FFF00000FFF0
FFF00001FFF0
FFF80003FFF0
FFF8000FFFF0
FFFE003FFFF0
7FFFE3FFFFF0
7FFFFFFFFFF0
3FFFFFFFFFF8
1FFFFFFFFFF8
0FFFFFFFFFF8
07FFFFFE7FF8
03FFFFFC7FF8
01FFFFF03FFC
003FFFC03FFC
0007FE000000
ENDCHAR
STARTCHAR 00E2
ENCODING 226
SWIDTH 600 0
DWIDTH 60 0
BBX 46 76 7 -1
BITMAP
00001FE00000
00003FF00000
00007FF80000
0001FFFC0000
0003FFFE0000
0007FFFF8000
000FFFFFC000
001FFCFFE000
003FF87FF000
007FE03FF800
00FFC01FFC00
03FF8007FE00
03FF0003FF00
000000000000
000000000000
000000000000
000000000000
000000000000
000000000000
000000000000
000000000000
00007FF00000
0007FFFF0000
003FFFFFC000
007FFFFFF000
01FFFFFFFC00
03FFFFFFFE00
07FFFFFFFF00
0FFFFFFFFF80
1FFFFFFFFF80
1FFFF1FFFFC0
3FFF001FFFE0
3FFE0007FFE0
7FFC0003FFE0
7FF80001FFF0
7FF80000FFF0
7FF00000FFF0
7FF00000FFF0
00000000FFF0
000000007FF0
000000007FF0
000000007FF0
000000007FF0
00007FFFFFF0
000FFFFFFFF0
007FFFFFFFF0
01FFFFFFFFF0
03FFFFFFFFF0
07FFFFFFFFF0
0FFFFFFFFFF0
1FFFF0007FF0
3FFF00007FF0
7FFC00007FF0
7FF800007FF0
FFF000007FF0
FFF000007FF0
FFF000007FF0
FFE000007FF0
FFE000007FF0
FFE000007FF0
FFE00000FFF0
FFF00000FFF0
FFF00001FFF0
FFF80003FFF0
FFF8000FFFF0
FFFE003FFFF0
7FFFE3FFFFF0
7FFFFFFFFFF0
3FFFFFFFFFF8
1FFFFFFFFFF8
0FFFFFFFFFF8
07FFFFFE7FF8
03FFFFFC7FF8
01FFFFF03FFC
003FFFC03FFC
0007FE000000
ENDCHAR
STARTCHAR 00E3
ENCODING 227
SWIDTH 600 0
DWIDTH 60 0
BBX 46 77 7 -1
BITMAP
000000002000
0007E0003E00
001FFC003F00
007FFF007F00
00FFFFC0FF00
00FFFFFFFF00
01FFFFFFFE00
03FFFFFFFE00
03FFFFFFFC00
03FC1FFFF800
03F807FFF000
07F000FFE000
03F0003F8000
001000000000
000000000000
000000000000
000000000000
000000000000
000000000000
000000000000
000000000000
000000000000
00007FF00000
0007FFFF0000
003FFFFFC000
007FFFFFF000
01FFFFFFFC00
03FFFFFFFE00
07FFFFFFFF00
0FFFFFFFFF80
1FFFFFFFFF80
1FFFF1FFFFC0
3FFF001FFFE0
3FFE0007FFE0
7FFC0003FFE0
7FF80001FFF0
7FF80000FFF0
7FF00000FFF0
7FF00000FFF0
00000000FFF0
000000007FF0
000000007FF0
000000007FF0
000000007FF0
00007FFFFFF0
000FFFFFFFF0
007FFFFFFFF0
01FFFFFFFFF0
03FFFFFFFFF0
07FFFFFFFFF0
0FFFFFFFFFF0
1FFFF0007FF0
3FFF00007FF0
7FFC00007FF0
7FF800007FF0
FFF000007FF0
FFF000007FF0
FFF000007FF0
FFE000007FF0
FFE000007FF0
FFE000007FF0
FFE00000FFF0
FFF00000FFF0
FFF00001FFF0
FFF80003FFF0
FFF8000FFFF0
FFFE003FFFF0
7FFFE3FFFFF0
7FFFFFFFFFF0
3FFFFFFFFFF8
1FFFFFFFFFF8
0FFFFFFFFFF8
07FFFFFE7FF8
03FFFFFC7FF8
01FFFFF03FFC
003FFFC03FFC
0007FE000000
ENDCHAR
STARTCHAR 00E4
ENCODING 228
SWIDTH 600 0
DWIDTH 60 0
BBX 46 74 7 -1
BITMAP
007C0001F000
01FF0007FC00
03FF8007FE00
03FF800FFE00
07FF800FFF00
07FFC00FFF00
07FFC00FFF00
07FF800FFF00
03FF800FFE00
03FF8007FE00
01FF0007FC00
007C0001F000
000000000000
000000000000
000000000000
000000000000
000000000000
000000000000
000000000000
00007FF00000
0007FFFF0000
003FFFFFC000
007FFFFFF000
01FFFFFFFC00
03FFFFFFFE00
07FFFFFFFF00
0FFFFFFFFF80
1FFFFFFFFF80
1FFFF1FFFFC0
3FFF001FFFE0
3FFE0007FFE0
7FFC0003FFE0
7FF80001FFF0
7FF80000FFF0
7FF00000FFF0
7FF00000FFF0
00000000FFF0
000000007FF0
000000007FF0
000000007FF0
000000007FF0
00007FFFFFF0
000FFFFFFFF0
007FFFFFFFF0
01FFFFFFFFF0
03FFFFFFFFF0
07FFFFFFFFF0
0FFFFFFFFFF0
1FFFF0007FF0
3FFF00007FF0
7FFC00007FF0
7FF800007FF0
FFF000007FF0
FFF000007FF0
FFF000007FF0
FFE000007FF0
FFE000007FF0
FFE000007FF0
FFE00000FFF0
FFF00000FFF0
FFF00001FFF0
FFF80003FFF0
FFF8000FFFF0
FFFE003FFFF0
7FFFE3FFFFF0
7FFFFFFFFFF0
3FFFFFFFFFF8
1FFFFFFFFFF8
0FFFFFFFFFF8
07FFFFFE7FF8
03FFFFFC7FF8
01FFFFF03FFC
003FFFC03FFC
0007FE000000
ENDCHAR
STARTCHAR 00E5
ENCODING 229
SWIDTH 600 0
DWIDTH 60 0
BBX 46 80 7 -1
BITMAP
00000FC00000
00003FF00000
0000FFFC0000
0001FFFE0000
0003FFFF0000
0003F87F0000
0007E01F8000
0007E01F8000
0007C00F8000
0007C00F8000
0007C00F8000
0007C00F8000
0007E01F8000
0007E01F8000
0003F87F0000
0003FFFF0000
0001FFFE0000
0000FFFC0000
00007FF80000
00000FC00000
000000000000
000000000000
000000000000
000000000000
000000000000
00007FF00000
0007FFFF0000
003FFFFFC000
007FFFFFF000
01FFFFFFFC00
03FFFFFFFE00
07FFFFFFFF00
0FFFFFFFFF80
1FFFFFFFFF80
1FFFF1FFFFC0
3FFF001FFFE0
3FFE0007FFE0
7FFC0003FFE0
7FF80001FFF0
7FF80000FFF0
7FF00000FFF0
7FF00000FFF0
00000000FFF0
000000007FF0
000000007FF0
000000007FF0
000000007FF0
00007FFFFFF0
000FFFFFFFF0
007FFFFFFFF0
01FFFFFFFFF0
03FFFFFFFFF0
07FFFFFFFFF0
0FFFFFFFFFF0
1FFFF0007FF0
3FFF00007FF0
7FFC00007FF0
7FF800007FF0
FFF000007FF0
FFF000007FF0
FFF000007FF0
FFE000007FF0
FFE000007FF0
FFE000007FF0
FFE00000FFF0
FFF00000FFF0
FFF00001FFF0
FFF80003FFF0
FFF8000FFFF0
FFFE003FFFF0
7FFFE3FFFFF0
7FFFFFFFFFF0
3FFFFFFFFFF8
1FFFFFFFFFF8
0FFFFFFFFFF8
07FFFFFE7FF8
03FFFFFC7FF8
01FFFFF03FFC
003FFFC03FFC
0007FE000000
ENDCHAR
STARTCHAR 00E6
ENCODING 230
SWIDTH 600 0
DWIDTH 60 0
BBX 56 55 2 -1
BITMAP
0007FC000FF000
003FFF807FFE00
00FFFFE1FFFF80
03FFFFF3FFFFC0
07FFFFFFFFFFE0
0FFFFFFFFFFFF0
0FFFFFFFFFFFF8
1FFFFFFFFFFFFC
1FFFFFFFFFFFFC
3FFFBFFFFE7FFE
3FFC07FFF01FFE
3FF803FFE00FFE
7FF803FFC007FF
7FF003FFC007FF
7FF003FFC007FF
7FF001FF8007FF
000001FF8007FF
000001FF8007FF
000001FF8007FF
000001FF8007FF
000001FF8007FF
000001FF8007FF
000001FF8007FF
0001FFFFFFFFFF
001FFFFFFFFFFF
00FFFFFFFFFFFF
01FFFFFFFFFFFF
07FFFFFFFFFFFF
0FFFFFFFFFFFFF
1FFFFFFFFFFFFF
1FFFFFFFFFFFFF
3FFFC1FF800000
3FFF01FF800000
7FFC01FF800000
7FF801FF800000
7FF801FF800000
FFF001FF800000
FFF001FF800000
FFF001FF800000
FFF001FFC00000
FFF001FFC00000
FFF001FFC00000
FFF001FFE00000
FFF801FFF00018
7FFC03FFFC0078
7FFFBFFFFFCFFC
7FFFFFFFFFFFFC
3FFFFFFFFFFFFC
3FFFFFFFFFFFFC
1FFFFFEFFFFFFE
0FFFFFC7FFFFFE
07FFFF83FFFFFE
03FFFE01FFFFF8
00FFFC007FFFC0
001FE0000FFE00
ENDCHAR
STARTCHAR 00E7
ENCODING 231
SWIDTH 600 0
DWIDTH 60 0
BBX 47 75 6 -21
BITMAP
00001FFC0000
0000FFFFC000
0007FFFFF000
001FFFFFFC00
003FFFFFFE00
007FFFFFFF80
00FFFFFFFFC0
01FFFFFFFFC0
03FFFFFFFFE0
07FFFF3FFFF0
0FFFE003FFF0
0FFFC001FFF8
1FFF00007FF8
1FFF00003FFC
3FFE00003FFC
3FFC00001FFC
3FFC00001FFE
7FF800000FFE
7FF800000FFE
7FF800000FFE
7FF800000000
7FF000000000
FFF000000000
FFF000000000
FFF000000000
FFF000000000
FFF000000000
FFF000000000
FFF000000000
FFF000000000
FFF000000000
FFF000000000
FFF000000000
7FF000000000
7FF000000000
7FF800000000
7FF800000FFE
7FF800000FFE
3FFC00001FFE
3FFC00001FFE
3FFE00001FFC
1FFF00003FFC
1FFF00007FFC
0FFFC000FFF8
0FFFE003FFF8
07FFFF3FFFF0
03FFFFFFFFE0
01FFFFFFFFC0
00FFFFFFFF80
007FFFFFFF00
003FFFFFFE00
001FFFFFF800
0007FFFFF000
0000FFFF8000
00001FFC0000
00000FF00000
00000FFE0000
00001FFF8000
00001FFFC000
00001FFFC000
000000FFE000
0000007FE000
0000003FF000
0000003FF000
0000003FF000
0000003FF000
0000007FE000
000001FFE000
00000FFFE000
00000FFFC000
00000FFF8000
00000FFF0000
00000FFE0000
00000FF80000
00000F800000
ENDCHAR
STARTCHAR 00E8
ENCODING 232
SWIDTH 600 0
DWIDTH 60 0
BBX 48 74 6 -1
BITMAP
01FFF8000000
00FFF8000000
007FFC000000
003FFE000000
001FFE000000
000FFF000000
0007FF800000
0003FF800000
0001FFC00000
0000FFE00000
00007FE00000
00003FF00000
00001FF80000
000000000000
000000000000
000000000000
000000000000
000000000000
000000000000
00000FFC0000
0000FFFFC000
0003FFFFF000
000FFFFFFC00
001FFFFFFE00
007FFFFFFF00
00FFFFFFFFC0
01FFFFFFFFC0
03FFFFFFFFE0
03FFFF3FFFF0
07FFF003FFF0
0FFFC000FFF8
0FFF80007FFC
1FFF00003FFC
1FFE00001FFC
3FFC00001FFE
3FFC00000FFE
7FF800000FFE
7FF800000FFF
7FF8000007FF
7FF0000007FF
FFF0000007FF
FFFFFFFFFFFF
FFFFFFFFFFFF
FFFFFFFFFFFF
FFFFFFFFFFFF
FFFFFFFFFFFF
FFFFFFFFFFFF
FFFFFFFFFFFF
FFFFFFFFFFFF
FFFFFFFFFFFF
FFF000000000
FFF000000000
FFF000000000
FFF000000000
7FF800000000
7FF800000000
7FFC00000000
7FFC00000000
3FFE00000040
3FFE000000E0
1FFF000001F0
1FFFC00007F8
0FFFE0000FFC
07FFF8007FFE
07FFFFCFFFFE
03FFFFFFFFFC
01FFFFFFFFF8
00FFFFFFFFF0
007FFFFFFFE0
001FFFFFFFC0
000FFFFFFF00
0003FFFFFC00
00007FFFF000
00000FFF0000
ENDCHAR
STARTCHAR 00E9
ENCODING 233
SWIDTH 600 0
DWIDTH 60 0
BBX 48 75 6 -1
BITMAP
0000000FFFC0
0000001FFF80
0000001FFF00
0000003FFE00
0000007FFC00
0000007FF800
000000FFF000
000001FFE000
000001FFC000
000003FF8000
000007FF0000
000007FE0000
00000FFC0000
00001FF80000
000000000000
000000000000
000000000000
000000000000
000000000000
000000000000
00000FFC0000
0000FFFFC000
0003FFFFF000
000FFFFFFC00
001FFFFFFE00
007FFFFFFF00
00FFFFFFFFC0
01FFFFFFFFC0
03FFFFFFFFE0
03FFFF3FFFF0
07FFF003FFF0
0FFFC000FFF8
0FFF80007FFC
1FFF00003FFC
1FFE00001FFC
3FFC00001FFE
3FFC00000FFE
7FF800000FFE
7FF800000FFF
7FF8000007FF
7FF0000007FF
FFF0000007FF
FFFFFFFFFFFF
FFFFFFFFFFFF
FFFFFFFFFFFF
FFFFFFFFFFFF
FFFFFFFFFFFF
FFFFFFFFFFFF
FFFFFFFFFFFF
FFFFFFFFFFFF
FFFFFFFFFFFF
FFF000000000
FFF000000000
FFF000000000
FFF000000000
7FF800000000
7FF800000000
7FFC00000000
7FFC00000000
3FFE00000040
3FFE000000E0
1FFF000001F0
1FFFC00007F8
0FFFE0000FFC
07FFF8007FFE
07FFFFCFFFFE
03FFFFFFFFFC
01FFFFFFFFF8
00FFFFFFFFF0
007FFFFFFFE0
001FFFFFFFC0
000FFFFFFF00
0003FFFFFC00
00007FFFF000
00000FFF0000
ENDCHAR
STARTCHAR 00EA
ENCODING 234
SWIDTH 600 0
DWIDTH 60 0
BBX 48 76 6 -1
BITMAP
00000FF00000
00001FF80000
00003FFC0000
0000FFFE0000
0001FFFF0000
0003FFFFC000
0007FFFFE000
000FFE7FF000
001FFC3FF800
003FF01FFC00
007FE00FFE00
01FFC003FF00
01FF8001FF80
000000000000
000000000000
000000000000
000000000000
000000000000
000000000000
000000000000
000000000000
00000FFC0000
0000FFFFC000
0003FFFFF000
000FFFFFFC00
001FFFFFFE00
007FFFFFFF00
00FFFFFFFFC0
01FFFFFFFFC0
03FFFFFFFFE0
03FFFF3FFFF0
07FFF003FFF0
0FFFC000FFF8
0FFF80007FFC
1FFF00003FFC
1FFE00001FFC
3FFC00001FFE
3FFC00000FFE
7FF800000FFE
7FF800000FFF
7FF8000007FF
7FF0000007FF
FFF0000007FF
FFFFFFFFFFFF
FFFFFFFFFFFF
FFFFFFFFFFFF
FFFFFFFFFFFF
FFFFFFFFFFFF
FFFFFFFFFFFF
FFFFFFFFFFFF
FFFFFFFFFFFF
FFFFFFFFFFFF
FFF000000000
FFF000000000
FFF000000000
FFF000000000
7FF800000000
7FF800000000
7FFC00000000
7FFC00000000
3FFE00000040
3FFE000000E0
1FFF000001F0
1FFFC00007F8
0FFFE0000FFC
07FFF8007FFE
07FFFFCFFFFE
03FFFFFFFFFC
01FFFFFFFFF8
00FFFFFFFFF0
007FFFFFFFE0
001FFFFFFFC0
000FFFFFFF00
0003FFFFFC00
00007FFFF000
00000FFF0000
ENDCHAR
STARTCHAR 00EB
ENCODING 235
SWIDTH 600 0
DWIDTH 60 0
BBX 48 74 6 -1
BITMAP
003E0000F800
00FF8003FE00
01FFC003FF00
01FFC007FF00
03FFC007FF80
03FFE007FF80
03FFE007FF80
03FFC007FF80
01FFC007FF00
01FFC003FF00
00FF8003FE00
003E0000F800
000000000000
000000000000
000000000000
000000000000
000000000000
000000000000
000000000000
00000FFC0000
0000FFFFC000
0003FFFFF000
000FFFFFFC00
001FFFFFFE00
007FFFFFFF00
00FFFFFFFFC0
01FFFFFFFFC0
03FFFFFFFFE0
03FFFF3FFFF0
07FFF003FFF0
0FFFC000FFF8
0FFF80007FFC
1FFF00003FFC
1FFE00001FFC
3FFC00001FFE
3FFC00000FFE
7FF800000FFE
7FF800000FFF
7FF8000007FF
7FF0000007FF
FFF0000007FF
FFFFFFFFFFFF
FFFFFFFFFFFF
FFFFFFFFFFFF
FFFFFFFFFFFF
FFFFFFFFFFFF
FFFFFFFFFFFF
FFFFFFFFFFFF
FFFFFFFFFFFF
FFFFFFFFFFFF
FFF000000000
FFF000000000
FFF000000000
FFF000000000
7FF800000000
7FF800000000
7FFC00000000
7FFC00000000
3FFE00000040
3FFE000000E0
1FFF000001F0
1FFFC00007F8
0FFFE0000FFC
07FFF8007FFE
07FFFFCFFFFE
03FFFFFFFFFC
01FFFFFFFFF8
00FFFFFFFFF0
007FFFFFFFE0
001FFFFFFFC0
000FFFFFFF00
0003FFFFFC00
00007FFFF000
00000FFF0000
ENDCHAR
STARTCHAR 00EC
ENCODING 236
SWIDTH 600 0
DWIDTH 60 0
BBX 44 72 10 0
BITMAP
03FFF0000000
01FFF0000000
00FFF8000000
007FFC000000
003FFC000000
001FFE000000
000FFF000000
0007FF000000
0003FF800000
0001FFC00000
0000FFC00000
00007FE00000
00003FF00000
000000000000
000000000000
000000000000
000000000000
000000000000
000000000000
FFFFFFF00000
FFFFFFF00000
FFFFFFF00000
FFFFFFF00000
FFFFFFF00000
FFFFFFF00000
FFFFFFF00000
FFFFFFF00000
FFFFFFF00000
00007FF00000
00007FF00000
00007FF00000
00007FF00000
00007FF00000
00007FF00000
00007FF00000
00007FF00000
00007FF00000
00007FF00000
00007FF00000
00007FF00000
00007FF00000
00007FF00000
00007FF00000
00007FF00000
00007FF00000
00007FF00000
00007FF00000
00007FF00000
00007FF00000
00007FF00000
00007FF00000
00007FF00000
00007FF00FFFF8
FFFFFFFFFFF8
FFFFFFFFFFF8
FFFFFFFFFFF8
FFFFFFFFFFF8
FFFFFFFFFFF8
FFFFFFFFFFF8
FFFFFFFFFFF8
000003F80000
000003F00000
000007F00000
000007E00000
00000FE00000
00000FC00000
00001FC00000
00001F800000
00003F800000
00003F000000
00007F000000
FFFFFFFFFFF8
FFFFFFFFFFF8
FFFFFFFFFFF8
FFFFFFFFFFF8
FFFFFFFFFFF8
FFFFFFFFFFF8
FFFFFFFFFFF8
FFFFFFFFFFF8
FFFFFFFFFFF8
000FE0000000
000FC0000000
001FC0000000
001F80000000
003F00000000
003F00000000
001E00000000
000600000000
ENDCHAR
STARTCHAR 2264
ENCODING 8804
SWIDTH 600 0
DWIDTH 60 0
BBX 42 57 9 2
BITMAP
0000000000C0
0000000007C0
000000001FC0
00000000FFC0
00000007FFC0
0000001FFFC0
000000FFFFC0
000003FFFFC0
00001FFFFFC0
00007FFFFFC0
0003FFFFFF80
001FFFFFFC00
007FFFFFE000
03FFFFFF0000
0FFFFFF80000
7FFFFFC00000
FFFFFE000000
FFFFF0000000
FFFF80000000
FFF800000000
FFF000000000
FFFF00000000
FFFFE0000000
FFFFFC000000
7FFFFF800000
1FFFFFF00000
03FFFFFE0000
00FFFFFFC000
001FFFFFF800
0007FFFFFF00
0000FFFFFFC0
00001FFFFFC0
000007FFFFC0
000000FFFFC0
0000003FFFC0
00000007FFC0
00000000FFC0
000000003FC0
0000000007C0
0000000001C0
000000000040
000000000000
000000000000
000000000000
000000000000
000000000000
000000000000
000000000000
FFFFFFFFFF80
FFFFFFFFFF80
FFFFFFFFFF80
FFFFFFFFFF80
FFFFFFFFFF80
FFFFFFFFFF80
FFFFFFFFFF80
FFFFFFFFFF80
FFFFFFFFFF80
ENDCHAR
STARTCHAR 2265
ENCODING 8805
SWIDTH 600 0
DWIDTH 60 0
BBX 44 59 8 1
BITMAP
E00000000000
F80000000000
FF0000000000
FFE000000000
FFFC00000000
FFFF00000000
FFFFE0000000
FFFFFC000000
FFFFFF000000
FFFFFFE00000
3FFFFFFC0000
07FFFFFF0000
007FFFFFE000
000FFFFFFC00
0001FFFFFF00
00003FFFFFE0
000007FFFFF0
000000FFFFF0
0000000FFFF0
00000001FFF0
00000001FFF0
0000000FFFF0
000000FFFFF0
000007FFFFF0
00003FFFFFE0
0001FFFFFF80
000FFFFFFC00
007FFFFFE000
03FFFFFF8000
1FFFFFFC0000
FFFFFFE00000
FFFFFF800000
FFFFFC000000
FFFFE0000000
FFFF80000000
FFFC00000000
FFE000000000
FF8000000000
FC0000000000
E00000000000
800000000000
000000000000
000000000000
000000000000
000000000000
000000000000
000000000000
000000000000
000000000000
000000000000
7FFFFFFFFFC0
7FFFFFFFFFC0
7FFFFFFFFFC0
7FFFFFFFFFC0
7FFFFFFFFFC0
7FFFFFFFFFC0
7FFFFFFFFFC0
7FFFFFFFFFC0
7FFFFFFFFFC0
ENDCHAR
STARTCHAR 25CA
ENCODING 9674
SWIDTH 600 0
DWIDTH 60 0
BBX 47 71 7 0
BITMAP
00003FF00000
00007FF80000
00007FF80000
0000FFFC0000
0000FFFC0000
0001FFFE0000
0001FFFE0000
0003FFFF0000
0003FFFF0000
0007FFFF8000
0007FFFF8000
000FFCFFC000
000FFCFFC000
001FFC7FE000
001FF87FF000
003FF87FF000
003FF03FF800
007FF03FF800
007FE01FFC00
00FFE01FFC00
01FFC00FFE00
01FFC00FFE00
03FF8007FF00
03FF8007FF00
07FF0003FF80
07FF0003FF80
0FFF0001FFC0
0FFE0001FFC0
1FFE0000FFE0
1FFC0000FFF0
3FFC00007FF0
3FF800007FF8
7FF800003FF8
7FF000003FFC
FFF000003FFC
FFE000001FFE
FFF000003FFC
7FF000003FFC
7FF800003FF8
3FF800007FF8
3FFC00007FF0
1FFC0000FFF0
1FFE0000FFE0
0FFE0001FFC0
0FFF0001FFC0
07FF0003FF80
07FF8003FF80
03FF8007FF00
03FFC007FF00
01FFC00FFE00
00FFC00FFE00
00FFE01FFC00
007FE01FFC00
007FF01FF800
003FF03FF800
003FF83FF000
001FF87FF000
001FFC7FE000
000FFCFFE000
000FFEFFC000
0007FEFF8000
0007FFFF8000
0003FFFF0000
0003FFFF0000
0001FFFE0000
0000FFFE0000
0000FFFC0000
00007FFC0000
00007FF80000
00003FF80000
00003FF00000
ENDCHAR
STARTCHAR F6C3
ENCODING 63171
SWIDTH 600 0
DWIDTH 60 0
BBX 13 20 13 -8
BITMAP
0FF8
0FF8
0FF8
0FF8
0FF8
0FF8
0FF8
0FF8
0FF8
1FF0
1FF0
1FF0
3FE0
3FE0
3FE0
7FC0
FF80
3F80
1F00
0600
ENDCHAR
STARTCHAR FEFF
ENCODING 65279
SWIDTH 600 0
DWIDTH 60 0
BBX 0 0 0 0
BITMAP
ENDCHAR
STARTCHAR FFFC
ENCODING 65532
SWIDTH 600 0
DWIDTH 60 0
BBX 52 50 4 0
BITMAP
FF8FE1FC7F8FF0
FF8FE1FC7F8FF0
FF8FE1FC7F8FF0
E0000000000070
E0000000000070
E0000000000070
E0000000000070
00000000000000
00000000000000
00000000000000
00000000000000
E0000000000070
E0000000000070
E0000000000070
E0000000000070
E0000000000070
E0000000000070
000603F8001C00
003FC3FE001C00
0071E3FF001C00
00E06303801C00
E0C07303801C70
E0C03303001C70
E0C0330F001C70
E0C033FE001C70
E0C0330F001C70
E0C03303801C70
E0C07301801C70
00E073039C1C00
0070E3038E3800
007FC3FF0FF800
E01F83FE03E070
E0000000000070
E0000000000070
E0000000000070
E0000000000070
E0000000000070
E0000000000070
00000000000000
00000000000000
00000000000000
E0000000000070
E0000000000070
E0000000000070
E0000000000070
E0000000000070
FF8FE1FC7F8FF0
FF8FE1FC7F8FF0
FF8FE1FC7F8FF0
FF8FE1FC7F8FF0
ENDCHAR
STARTCHAR FFFD
ENCODING 65533
SWIDTH 600 0
DWIDTH 60 0
BBX 58 122 1 -27
BITMAP
0000000800000000
0000000000000000
0000000000000000
0000000000000000
0000000000000000
0000000000000000
0000000000000000
0000000000000000
0000000000000000
0000000000000000
0000000000000000
0000000000000000
0000000000000000
0000000000000000
0000000000000000
0000000000000000
0000000000000000
0000000000000000
0000000000000000
0000000000000000
0000000000000000
0000000000000000
0000000000000000
0000000000000000
0000000000000000
0000000000000000
0000000000000000
0000000800000000
0000000C00000000
0000001C00000000
0000001E00000000
0000003E00000000
0000007F00000000
0000007F80000000
000000FF80000000
000000FFC0000000
000001FFE0000000
000003FFE0000000
000003FFF0000000
000007FFF0000000
000007FFF8000000
00000FFFFC000000
00001FFFFC000000
00001FFFFE000000
00003FFFFE000000
00007FFFFF000000
00007FFFFF800000
0000FFFFFF800000
0000FFFFFFC00000
0001FFFFFFC00000
0003FFFFFFE00000
0003FFFFFFF00000
0007FFFFFFF00000
0007FFFFFFF80000
000FFFC1FFF80000
001FFE001FFC0000
001FF80007FE0000
003FF00003FE0000
003FE00001FF0000
007FC00000FF0000
00FF800000FF8000
00FF8000007FC000
01FF000C007FC000
03FF001E003FE000
03FF003F003FE000
07FF003F003FF000
07FF003F003FF800
0FFFFFFF003FF800
1FFFFFFF003FFC00
1FFFFFFF003FFC00
3FFFFFFF003FFE00
3FFFFFFE003FFF00
7FFFFFFE007FFF00
FFFFFFFE007FFF80
FFFFFFFC00FFFFC0
FFFFFFF801FFFF80
7FFFFFF801FFFF00
7FFFFFF003FFFF00
3FFFFFE007FFFE00
1FFFFFC00FFFFE00
1FFFFF800FFFFC00
0FFFFF801FFFF800
07FFFF001FFFF800
07FFFF003FFFF000
03FFFF003FFFF000
03FFFF003FFFE000
01FFFF003FFFC000
00FFFFFFFFFFC000
00FFFFFFFFFF8000
007FFFFFFFFF8000
007FFFFFFFFF0000
003FFF003FFE0000
001FFF003FFE0000
001FFF003FFC0000
000FFF003FFC0000
000FFF003FF80000
0007FF003FF00000
0003FF003FF00000
0003FF003FE00000
0001FF003FE00000
0000FFFFFFC00000
0000FFFFFF800000
00007FFFFF800000
00007FFFFF000000
00003FFFFF000000
00001FFFFE000000
00001FFFFC000000
00000FFFFC000000
00000FFFF8000000
000007FFF0000000
000003FFF0000000
000003FFE0000000
000001FFE0000000
000001FFC0000000
000000FF80000000
0000007F80000000
0000007F00000000
0000003F00000000
0000001E00000000
0000001C00000000
0000000C00000000
0000000800000000
ENDCHAR
ENDFONT
